<?xml version="1.0" standalone="no"?>
<!DOCTYPE svg PUBLIC "-//W3C//DTD SVG 1.1//EN" "http://www.w3.org/Graphics/SVG/1.1/DTD/svg11.dtd">
<svg xmlns="http://www.w3.org/2000/svg">
<defs >
<font id="CrimsonText" horiz-adv-x="554" ><font-face
    font-family="Crimson Text"
    units-per-em="1024"
    panose-1="2 0 8 3 0 0 0 0 0 0"
    ascent="939"
    descent="-238"
    alphabetic="0" />
<glyph unicode=" " glyph-name="space" horiz-adv-x="190" />
<glyph unicode="!" glyph-name="exclam" horiz-adv-x="230" d="M2 66Q8 97 32 118T83 139Q112 139 128 118T138 66T108 12T57 -11T13 11T2 66ZM185 642Q208 642 222 624T230 574Q220 519 122 221Q111 190 85 190Q79 190 79 212Q82 272 93 406T111 575Q117 605
138 623T185 642Z" />
<glyph unicode="&quot;" glyph-name="quotedbl" horiz-adv-x="340" d="M289 698Q312 698 317 688T317 633Q311 603 286 541T252 449Q248 434 231 434Q225 434 220 437T216 447Q220 487 220 522T218 590T216 636Q219 653 241 675T289 698ZM135 698Q158 698 163
688T163 633Q157 603 132 541T98 449Q94 434 77 434Q71 434 66 437T62 447Q66 487 66 522T64 590T62 636Q65 653 87 675T135 698Z" />
<glyph unicode="#" glyph-name="numbersign" horiz-adv-x="442" d="M356 378Q356 378 427 378Q434 378 434 373Q434 359 426 335T409 311H337L308 237H379Q386 237 386 231Q386 217 378 194T361 170H289L238 24Q235 16 200 16Q173 16 173 21Q174 23 174 24L226
170H149L98 24Q95 16 60 16Q33 16 33 21Q34 23 34 24L86 170H15Q8 170 8 176Q8 190 16 213T33 237H105L134 311H63Q56 311 56 317Q56 331 64 354T81 378H153L204 524Q207 532 247 532Q269 532 269 526Q268 525 268 524L216 378H293L344 524Q347 532 387 532Q409
532 409 526Q408 525 408 524L356 378ZM274 311H197L168 237H245L274 311Z" />
<glyph unicode="$" glyph-name="dollar" horiz-adv-x="452" d="M233 231L166 46H170Q213 46 241 84T270 161Q270 189 243 220Q240 224 233 231ZM146 -9L124 -69Q122 -74 110 -74Q93 -74 74 -58L94 -3Q58 3 6 16V42Q6 103 14 175Q15 185 38 185Q54 185 59 181Q59
147 74 112T117 59L191 266Q183 274 167 287T143 306Q109 334 91 362T72 432Q72 521 146 582T300 643Q310 643 328 641L347 694Q349 700 360 700Q384 700 400 682L380 631Q403 624 437 618Q426 446 418 446Q397 446 389 450Q382 452 382 462Q382 518 354 557L287
374Q298 365 318 351T346 330Q374 307 388 283T402 219Q402 132 343 68Q309 31 262 11T168 -9H146ZM245 411L309 587Q297 589 290 589Q243 589 222 555T201 492Q201 465 217 442Q222 434 245 411Z" />
<glyph unicode="%" glyph-name="percent" horiz-adv-x="627" d="M220 605Q171 605 153 510Q128 375 191 375Q217 375 234 402T259 466Q286 605 220 605ZM175 642T236 642T331 597T353 489T290 382T177 337T82 381T60 489T123 597ZM431 268Q382 268 364 174Q339
38 402 38Q428 38 445 65T470 130Q497 268 431 268ZM386 306T447 306T542 261T564 153T501 46T388 1T293 45T271 153T334 261ZM629 629L61 7Q50 -4 28 -4Q17 -4 9 -2T-2 4T-6 10L563 632Q577 646 583 646Q612 646 629 629Z" />
<glyph unicode="&amp;" glyph-name="ampersand" horiz-adv-x="649" d="M294 635Q340 635 374 610T409 543Q409 514 388 487T349 460Q335 460 335 469Q335 470 339 483T343 514Q343 545 323 564T272 584Q228 584 199 549T170 466Q170 425 199 400Q224 407 239 407Q266
407 287 394T309 360Q309 341 289 331T244 320Q206 320 182 341Q137 303 137 204Q137 135 175 88T284 40Q363 40 415 98T468 237Q468 274 454 301T411 329Q386 329 368 316T349 280Q349 264 377 257Q392 253 406 242T421 217Q421 168 378 157Q355 157 327 187T299
256Q299 311 343 348T445 386Q460 386 483 385T521 384Q554 384 578 400T603 444Q603 457 594 465T570 474Q560 474 546 463T521 452Q503 452 491 466T479 499Q479 530 501 546Q646 546 646 444Q646 399 618 371T539 342Q533 342 513 344Q570 293 570 224Q570 125
479 56T272 -14Q170 -14 94 44T17 196Q17 258 59 310T150 381Q148 383 139 392T125 408T113 425T103 450T100 479Q100 553 161 594T294 635Z" />
<glyph unicode="&apos;" glyph-name="quotesingle" horiz-adv-x="186" d="M135 698Q158 698 163 688T163 633Q157 603 132 541T98 449Q94 434 77 434Q71 434 66 437T62 447Q66 487 66 522T64 590T62 636Q65 653 87 675T135 698Z" />
<glyph unicode="(" glyph-name="parenleft" horiz-adv-x="353" d="M29 200Q29 289 58 377T131 530T220 645T304 722T356 748Q363 748 363 729Q363 727 363 725T362 721T360 718Q292 674 216 502T139 141Q139 45 159 -24T199 -106Q200 -106 200 -111Q199 -118 194
-127T184 -137Q174 -137 156 -123T116 -78T75 -9T42 85T29 200Z" />
<glyph unicode=")" glyph-name="parenright" horiz-adv-x="344" d="M319 408Q319 322 291 235T220 84T131 -32T47 -110T-7 -137Q-14 -137 -14 -118V-112Q-14 -108 -11 -106Q9 -96 44 -48T116 74T181 256T209 471Q209 561 192 629T149 718Q148 719 148 721Q149
728 154 738T165 748Q181 748 206 723T256 655T300 546T319 408Z" />
<glyph unicode="*" glyph-name="asterisk" horiz-adv-x="376" d="M221 516Q231 516 249 546T291 605T341 635Q368 635 368 602Q368 575 335 555T270 519T237 492Q237 483 256 479T297 471T339 457T358 424Q358 407 344 393T313 378Q295 378 277 399T243 441T218
462T206 445T201 395T192 339Q181 301 148 301Q136 301 126 311T116 334Q116 356 150 404T184 464Q184 472 176 472T123 450T56 428Q43 428 34 437T24 458Q24 467 27 477T46 497T86 508Q102 508 129 504T166 500Q177 500 181 501T187 504T188 510Q188 520 162 556T135
616Q135 635 148 650T179 665Q191 665 198 660T208 638T211 615T212 584V575Q211 566 211 558T211 539T214 522T221 516Z" />
<glyph unicode="+" glyph-name="plus" horiz-adv-x="485" d="M236 470Q238 479 266 483T308 488Q314 488 316 486T318 479L283 291Q281 286 286 286H459Q463 286 463 268Q463 240 437 214Q437 214 271 214Q267 214 267 210Q267 210 232 30Q231 23 207 18T166 12Q158
12 154 15T151 21L187 209Q187 214 183 214H12Q8 214 8 232Q8 260 34 286Q34 286 199 286Q203 286 203 290Q209 319 219 376T236 470Z" />
<glyph unicode="," glyph-name="comma" horiz-adv-x="243" d="M2 -134Q2 -132 10 -127T31 -111T55 -88T75 -53T84 -9Q84 1 76 24T68 61Q68 93 94 113T159 134Q185 134 194 126Q195 119 195 95Q195 30 166 -20Q136 -72 106 -101T18 -168Q2 -156 2 -134Z" />
<glyph unicode="-" glyph-name="hyphen" horiz-adv-x="330" d="M53 267L280 279Q286 279 286 267Q286 256 277 231T260 204L34 193Q29 193 29 208Q29 219 37 242T53 267Z" />
<glyph unicode="." glyph-name="period" horiz-adv-x="203" d="M156 66Q150 35 127 12T75 -11Q46 -11 30 12T19 66T49 117T102 139T146 118T156 66Z" />
<glyph unicode="/" glyph-name="slash" horiz-adv-x="486" d="M496 755L72 -12Q69 -18 48 -26T4 -35Q-2 -35 -6 -34T-10 -30L-11 -28L413 739Q425 761 463 761Q487 761 496 755Z" />
<glyph unicode="0" glyph-name="zero" horiz-adv-x="502" d="M307 575Q266 575 229 503T168 312Q146 194 157 122T205 49Q285 49 338 317Q361 435 353 505T307 575ZM231 625T316 625T446 533T467 311T360 90T193 -3T61 89T38 311T147 532Z" />
<glyph unicode="1" glyph-name="one" horiz-adv-x="309" d="M298 643Q307 643 307 624Q293 595 280 530L202 126Q195 87 195 66Q195 53 206 44T228 33T244 30Q245 30 245 27Q245 10 238 -4Q228 -3 184 0T118 4Q96 4 50 1T-7 -4Q-8 -3 -8 3Q-8 30 0 30Q11 30 34
38T62 56Q70 73 78 113L144 452Q148 468 148 481Q148 502 135 502T64 469Q52 476 55 493Q55 501 59 505Q283 643 298 643Z" />
<glyph unicode="2" glyph-name="two" horiz-adv-x="452" d="M245 559Q215 559 186 538T138 495T118 474Q112 474 108 482T104 499L108 516Q136 553 196 597T305 642Q364 642 400 607T437 511Q437 488 431 464T418 419T394 374T366 333T331 291T294 253T252 214T212
180T170 145T132 113Q130 111 130 106Q130 102 133 102H292Q308 102 321 106T343 121T358 138T369 158T377 174Q382 182 406 182Q415 182 420 174Q413 156 385 92T346 0L203 1Q4 0 -3 0Q-8 8 -8 19Q-8 27 -7 33Q103 139 194 258T299 451Q302 468 302 483Q302 517
288 538T245 559Z" />
<glyph unicode="3" glyph-name="three" horiz-adv-x="430" d="M310 642Q348 642 377 613T395 527Q388 493 371 465T338 422T287 378Q323 378 363 331T390 214Q377 147 329 96T221 21T98 -4Q29 -4 -3 28Q-6 36 -6 56Q-6 78 9 91T42 104Q61 104 89 76T142 48Q186
48 216 84T260 188Q272 246 253 282T187 319Q151 319 120 314Q115 323 119 340Q123 355 125 359Q255 381 281 501Q288 532 273 552T238 572Q208 572 179 560T132 536T112 524Q104 524 104 544Q104 557 107 560Q143 601 189 621T310 642Z" />
<glyph unicode="4" glyph-name="four" horiz-adv-x="464" d="M439 646Q444 646 449 643T453 634L378 252Q376 244 385 244H415Q423 244 423 229Q423 221 419 207T411 184L407 174H369Q364 174 362 166L330 4Q306 -5 267 -5Q213 -5 216 8L247 168Q247 173 239 173L16
174Q9 183 9 198Q9 207 12 222L410 630Q426 646 439 646ZM300 445Q302 452 298 452Q296 452 294 450L106 256Q104 254 104 251Q104 244 109 244H253Q262 247 264 253L300 445Z" />
<glyph unicode="5" glyph-name="five" horiz-adv-x="445" d="M402 535Q368 535 317 535Q240 536 221 534T198 523L159 412Q199 422 236 422Q308 422 360 367T398 235Q378 132 292 64T99 -4Q30 -4 -2 28Q-5 36 -5 56Q-5 78 10 91T43 104Q62 104 90 76T143 48Q191
48 221 90T262 183Q275 248 252 288T186 328Q160 328 138 325T104 318T90 314Q82 314 76 328L102 406Q129 485 156 561T189 638Q404 638 426 643Q431 633 427 609Q418 558 402 535Z" />
<glyph unicode="6" glyph-name="six" horiz-adv-x="467" d="M231 344Q231 352 248 359T287 367Q337 367 373 323T409 218Q409 132 337 63T181 -6Q109 -6 64 38T18 161Q18 204 33 252T82 354T165 459T290 559T455 645Q460 643 463 632T465 611Q268 527 186 334Q144
235 144 120Q144 46 193 46Q231 46 257 102T283 224Q283 282 265 300Q253 312 232 318Q231 323 231 344Z" />
<glyph unicode="7" glyph-name="seven" horiz-adv-x="471" d="M37 -11Q26 -11 18 -3T10 14Q10 24 14 28L361 513H141Q94 513 54 434Q53 434 49 434T43 433Q26 433 20 440Q27 460 41 493T70 559T90 603Q94 615 110 615H411Q425 615 449 616T474 618Q479 618 479
613Q479 600 440 542L44 -10Q41 -11 37 -11Z" />
<glyph unicode="8" glyph-name="eight" horiz-adv-x="458" d="M185 46Q216 46 237 68T264 113T271 154Q271 164 269 173T265 190T256 207T247 221T236 236T225 248T213 260T202 270Q194 278 191 278Q189 278 183 274Q168 263 151 214T133 122Q133 46 185 46ZM286
580Q258 580 241 556T219 509T214 470Q214 461 215 454T219 440T224 428T233 417T241 407T250 397T260 388Q265 383 270 383Q274 383 277 386Q330 456 330 524Q330 580 286 580ZM294 633Q358 633 404 602T450 514Q450 418 317 341Q315 340 315 338T316 334L326
325Q336 316 341 311T357 294T374 272T388 248T399 221T403 191Q403 119 333 57T168 -6Q99 -6 54 25T8 121Q8 242 151 315Q157 318 152 323Q152 324 138 339T119 360T106 381T93 413T89 448Q89 534 155 583T294 633Z" />
<glyph unicode="9" glyph-name="nine" horiz-adv-x="451" d="M233 294Q233 286 216 279T177 272Q127 272 91 316T55 421Q55 507 127 576T283 645Q355 645 400 601T446 478Q446 435 431 387T382 285T299 180T174 80T9 -6Q4 -4 1 7T-1 28Q196 112 278 305Q320 404
320 519Q320 593 271 593Q233 593 207 537T181 415Q181 357 199 339Q211 327 232 321Q233 316 233 294Z" />
<glyph unicode=":" glyph-name="colon" horiz-adv-x="226" d="M70 361Q70 396 97 422T156 449Q180 449 195 433T210 392Q210 358 184 328T127 298Q102 298 86 316T70 361ZM10 52Q10 87 37 113T96 140Q120 140 134 124T149 83Q149 49 124 19T67 -11Q42 -11 26 7T10 52Z" />
<glyph unicode=";" glyph-name="semicolon" horiz-adv-x="262" d="M105 361Q105 396 132 422T191 449Q215 449 230 433T245 392Q245 358 219 328T162 298Q137 298 121 316T105 361ZM72 -18Q75 -3 65 16T59 62Q63 82 86 108T147 134Q174 134 183 126Q188 83 182
52Q179 36 155 -20Q129 -67 97 -99T7 -168H5Q0 -168 -5 -155T-9 -134Q-9 -133 8 -120T45 -79T72 -18Z" />
<glyph unicode="&lt;" glyph-name="less" horiz-adv-x="427" d="M93 209L359 51Q359 51 360 45Q359 38 349 12T334 -15L330 -13L18 177Q4 187 9 217Q12 232 30 241L414 428Q418 430 419 430Q423 430 423 386Q423 386 419 364L93 209Z" />
<glyph unicode="=" glyph-name="equal" horiz-adv-x="531" d="M27 109Q27 109 23 119Q32 153 42 176Q43 179 45 180T48 181H50H462Q469 181 469 178Q469 177 469 176Q463 147 448 115Q448 114 440 109H27ZM55 251L50 261Q67 323 76 323H494Q498 323 497 318Q492
293 475 257L469 251H55Z" />
<glyph unicode="&gt;" glyph-name="greater" horiz-adv-x="441" d="M331 209L65 364Q65 364 64 373Q86 430 91 430Q91 430 95 428L406 241Q421 232 418 217Q413 187 393 177L8 -13Q4 -15 3 -15Q-1 -15 -1 12T-1 45L3 51L331 209Z" />
<glyph unicode="?" glyph-name="question" horiz-adv-x="346" d="M6 51Q6 86 32 112T89 139Q114 139 130 123T146 81Q146 46 121 18T64 -11Q41 -11 24 6T6 51ZM179 215Q179 203 166 195Q142 195 96 229T50 300Q50 341 71 366T118 404L219 449Q271 472 271 515Q271
567 222 567Q207 567 185 545T147 522Q114 522 103 551T104 609Q134 646 187 646Q252 646 300 605T348 500Q348 459 326 420T272 363Q227 338 169 312Q130 296 130 271Q130 254 154 236T179 215Z" />
<glyph unicode="@" glyph-name="at" horiz-adv-x="749" d="M291 -171Q219 -171 161 -138T70 -54T24 61T23 185Q58 365 186 471T476 577Q565 577 625 524T705 392T709 233Q683 102 621 45T492 -13Q445 -13 418 12T396 69Q396 70 394 69T391 67Q374 41 334 17T249
-7Q200 -7 179 39T168 141Q189 247 277 328T485 410Q501 410 524 408T562 404L577 401Q566 370 560 348L501 143Q470 34 512 34Q545 34 570 53T611 105T634 162T647 214Q672 344 621 431T455 519Q327 519 227 437T101 223Q70 64 128 -31T351 -126Q383 -126 418
-113V-122Q415 -141 381 -156T291 -171ZM412 182L454 322Q460 334 458 346T432 359Q392 359 341 300T271 143Q261 90 265 72T287 53Q317 53 361 105T412 182Z" />
<glyph unicode="A" glyph-name="A" horiz-adv-x="634" d="M303 213Q251 213 218 212Q215 212 209 210T201 207L156 131Q123 82 123 65T148 39T188 30Q190 30 190 26Q190 6 185 -4Q173 -3 141 0T85 3Q60 3 21 0T-33 -4Q-34 -2 -34 4Q-34 30 -29 30Q-19 30 14 44T56
71Q65 84 95 134L367 586Q368 588 377 603T391 625T404 644T420 661T433 667Q442 667 445 659L550 141Q554 115 564 66Q567 50 590 40T624 30Q626 30 626 25Q626 5 619 -4Q616 -4 569 -1T497 3Q478 3 359 -4Q358 -3 358 3Q358 30 366 30T392 38T417 55Q422 62 422
69Q422 78 400 207Q400 211 394 211Q358 213 303 213ZM315 273Q353 273 382 275Q386 275 386 280L354 458L246 280Q245 279 245 278T247 276Q274 273 315 273Z" />
<glyph unicode="B" glyph-name="B" horiz-adv-x="561" d="M391 224Q391 315 299 315Q241 315 239 301L195 76Q195 76 195 72Q195 66 200 63T220 57T267 55Q292 55 313 64Q342 76 366 116T391 224ZM532 226Q532 126 454 63T261 0Q260 0 185 1T107 2Q73 2 36 -1T-12
-4Q-14 -2 -14 5Q-14 11 -13 17T-9 26T-6 30Q4 30 26 38T53 55Q65 76 78 143L151 521Q162 585 161 599Q160 607 140 617T110 628Q108 628 108 635Q108 655 115 662Q184 659 246 659Q305 659 344 660T390 661Q421 661 451 653T507 629T550 584T567 518Q567 499 563
482T553 450T538 422T521 399T502 381T485 366T470 356T460 350T456 348Q482 343 507 310T532 226ZM427 529Q427 571 409 588T354 606Q325 606 312 603T295 590L255 385Q252 371 301 371Q359 371 393 410T427 529Z" />
<glyph unicode="C" glyph-name="C" horiz-adv-x="587" d="M391 667Q493 667 598 638Q598 626 594 562T588 490Q586 483 578 479T560 475Q558 475 546 478Q545 492 541 507T526 541T498 575T452 600T385 611Q321 611 268 561T186 428T156 247Q156 157 193 102T305
47Q347 47 388 57T452 83Q469 95 484 116T506 153T515 168Q541 168 544 155Q541 141 527 96T504 44Q447 -7 298 -7Q167 -7 89 68T11 259Q11 341 45 418T134 548T257 634T391 667Z" />
<glyph unicode="D" glyph-name="D" horiz-adv-x="678" d="M107 2Q73 2 36 -1T-12 -4Q-14 -2 -14 5Q-14 11 -13 17T-9 26T-6 30Q4 30 26 38T53 55Q65 76 78 143L151 521Q162 585 161 599Q160 607 140 617T110 628Q108 628 108 635Q108 655 115 662Q184 659 246
659H408Q475 659 527 639T610 583T658 502T674 404Q674 348 657 291T606 181T525 87T414 22T278 -3Q260 -3 201 -1T107 2ZM402 603Q320 603 306 587Q289 568 282 524L207 136Q194 71 201 66Q218 53 304 53Q382 53 438 125T523 340Q534 392 531 439T515 523T473
581T402 603Z" />
<glyph unicode="E" glyph-name="E" horiz-adv-x="542" d="M107 2Q73 2 36 -1T-12 -4Q-14 -2 -14 5Q-14 11 -13 17T-9 26T-6 30Q4 30 26 38T53 55Q65 76 78 143L151 521Q162 585 161 599Q160 607 140 617T110 628Q108 628 108 635Q108 655 115 662Q195 659 246
659Q299 659 396 661T547 664Q545 634 545 573V516Q540 511 523 511Q512 511 511 518Q500 556 468 583T399 610H364Q332 610 318 608T301 597Q289 564 281 519L251 365Q250 362 261 361T290 359H369Q391 359 399 367T427 421Q430 428 443 428Q459 428 462 423L426
234Q422 230 405 230Q394 230 392 238Q390 283 381 292Q369 304 306 304Q239 304 237 295L208 141Q200 101 200 82Q200 64 209 59T261 54H285Q343 54 395 80Q412 89 437 114T479 170Q482 176 493 176Q516 176 520 170Q516 162 498 129T472 79T453 38T436 -2Q383
-2 265 0T107 2Z" />
<glyph unicode="F" glyph-name="F" horiz-adv-x="537" d="M118 3Q92 3 73 2T29 -1T-12 -4Q-14 -2 -14 5Q-14 11 -13 17T-9 26T-6 30Q4 30 26 38T53 55Q65 76 78 143L151 521Q162 585 161 599Q160 607 140 617T110 628Q108 628 108 635Q108 655 115 662Q195 659
246 659Q299 659 395 661T546 664Q544 634 544 573V516Q539 511 522 511Q511 511 510 518Q499 556 467 583T398 610H363Q331 610 317 608T300 597Q288 564 280 519L250 365Q249 362 260 361T289 359H368Q390 359 398 367T426 421Q429 428 442 428Q458 428 461 423L425
234Q421 230 404 230Q393 230 391 238Q389 283 380 292Q368 304 305 304Q238 304 236 295L207 141Q198 96 198 74Q198 59 209 49T237 36T264 31T281 30Q285 30 282 14Q279 -1 277 -4Q147 3 118 3Z" />
<glyph unicode="G" glyph-name="G" horiz-adv-x="616" d="M490 34Q406 -8 299 -8Q172 -8 92 67T11 254Q11 339 45 417T134 549T257 635T391 667Q493 667 598 638Q598 622 594 560T588 490Q585 475 559 475Q555 475 546 478Q545 492 541 507T526 541T498 575T452
600T385 611Q329 611 283 575T210 483T169 366T155 247Q155 161 194 104T311 47Q354 47 397 59L424 188Q430 217 430 239Q430 253 402 260T359 267Q357 267 357 274Q357 296 364 301Q505 295 514 295Q531 295 645 301Q645 267 639 267T612 261T581 251Q564 241
560 223L536 112Q530 88 530 72Q530 65 518 54T490 34Z" />
<glyph unicode="H" glyph-name="H" horiz-adv-x="714" d="M365 369Q476 369 477 375L505 523Q514 577 514 600Q514 628 466 628Q464 628 464 634Q464 654 472 662Q598 656 604 656Q611 656 725 662Q725 662 725 656Q725 646 723 639T719 630T716 628Q709 628 686
620T659 604Q647 582 635 519L561 139Q550 82 550 59Q550 49 570 40T599 30Q601 30 601 25Q601 8 593 -4Q591 -4 543 -1T470 3Q445 3 399 0T341 -4Q340 -3 340 2Q340 10 341 20T345 30Q356 30 378 37T405 53Q414 69 429 135L463 304V305Q463 311 353 311Q241 311
239 303L207 139Q197 87 197 59Q197 49 216 40T245 30Q247 30 247 25Q247 6 240 -4Q228 -3 202 -1T154 2T113 3Q88 3 44 0T-13 -4Q-14 -3 -14 2Q-14 9 -12 19T-8 30Q3 30 24 36T51 52Q67 78 76 135L151 523Q160 571 160 596Q160 611 142 619T112 628Q111 628 111
632Q111 656 117 662Q131 661 155 660T200 657T239 656Q257 656 371 662V657Q371 649 369 639T363 628Q355 628 332 620T304 604Q298 594 290 562T280 519L253 378V376Q253 375 254 374T259 372T270 371T290 370T321 369T365 369Z" />
<glyph unicode="I" glyph-name="I" horiz-adv-x="360" d="M280 519L207 139Q197 87 197 59Q197 49 216 40T245 30Q247 30 247 25Q247 6 240 -4Q236 -4 190 -1T120 3Q95 3 46 0T-13 -4Q-14 -3 -14 2Q-14 9 -12 19T-8 30Q3 30 24 36T51 52Q67 78 76 135L151 523Q160
571 160 596Q160 611 142 619T112 628Q111 628 111 632Q111 656 117 662Q131 661 155 660T200 657T239 656Q257 656 371 662V657Q371 649 369 639T363 628Q355 628 332 620T304 604Q298 594 290 562T280 519Z" />
<glyph unicode="J" glyph-name="J" horiz-adv-x="421" d="M137 135L212 523Q221 571 221 596Q221 611 203 619T173 628Q172 628 172 632Q172 656 178 662Q192 661 216 660T260 657T300 656Q318 656 432 662V657Q432 649 430 639T424 628Q416 628 393 620T365 604Q359
594 351 562T341 519L268 143Q252 61 224 -2T157 -107T82 -173T-2 -218Q-16 -212 -16 -194Q-16 -180 -14 -176Q44 -128 78 -58T137 135Z" />
<glyph unicode="K" glyph-name="K" horiz-adv-x="711" d="M280 519L207 139Q197 87 197 59Q197 49 216 40T245 30Q247 30 247 25Q247 6 240 -4Q228 -3 202 -1T154 2T113 3Q88 3 44 0T-13 -4Q-14 -3 -14 2Q-14 9 -12 19T-8 30Q3 30 24 36T51 52Q67 78 76 135L151
523Q160 571 160 596Q160 611 142 619T112 628Q111 628 111 632Q111 656 117 662Q131 661 155 660T200 657T239 656Q257 656 371 662V657Q371 649 369 639T363 628Q355 628 332 620T304 604Q298 594 290 562T280 519ZM244 333Q286 360 338 408T519 586Q531 598
531 610Q531 619 511 624T479 630Q476 630 476 641Q476 655 480 662Q582 656 604 656Q608 656 722 662Q722 653 720 642T714 630Q639 622 603 585L390 363Q380 353 380 343Q380 338 383 334L538 112Q571 65 597 48T655 30Q658 30 658 22Q658 10 651 0Q635 -4 591
-4Q562 -4 546 -3T508 2T471 14T440 37T408 76L244 333Z" />
<glyph unicode="L" glyph-name="L" horiz-adv-x="522" d="M207 139Q200 97 200 82Q200 65 209 60T261 54H285Q343 54 395 80Q412 89 437 114T479 170Q482 176 493 176Q516 176 520 170Q516 162 498 129T472 79T453 38T436 -2Q383 -2 271 0T119 2Q95 2 63 1T9 -2L-12
-4Q-14 0 -14 5Q-14 11 -13 17T-10 26T-7 30Q3 30 27 39T55 56Q66 79 76 135L151 523Q160 571 160 596Q160 611 142 619T112 628Q111 628 111 632Q111 656 117 662Q131 661 155 660T200 657T239 656Q257 656 371 662V657Q371 649 369 639T363 628Q355 628 332 620T304
604Q298 594 290 562T280 519L207 139Z" />
<glyph unicode="M" glyph-name="M" horiz-adv-x="861" d="M626 546L680 662Q712 658 775 658Q796 658 872 662Q872 628 865 628Q832 628 817 611Q800 591 793 524Q759 215 752 116Q752 116 750 98T748 68Q748 54 760 45T783 33T801 30Q803 30 803 25Q803 5 796
-4Q791 -4 747 -1T678 3Q653 3 602 0T543 -4Q541 0 541 7Q541 12 542 18T545 27T548 30Q558 30 581 39T611 58Q616 67 618 72T624 94T630 145L657 402Q659 420 659 450Q659 461 655 461Q653 461 649 454L419 31Q414 22 401 10T376 -2Q374 -2 368 0L275 480Q274
484 272 484Q270 484 268 479Q178 156 165 93Q162 78 162 70Q162 57 198 44T245 30Q247 30 247 24Q247 5 241 -4Q229 -3 203 -1T154 2T113 3Q88 3 44 0T-12 -4Q-14 0 -14 5T-13 16T-10 26T-7 30Q10 30 50 44T97 80Q99 88 103 101L224 566Q231 598 231 602Q231 615
206 621T165 628Q164 628 164 635Q164 654 172 662Q256 658 278 658Q301 658 377 662Q380 633 391 570T423 397T455 230Q455 229 457 229T459 231L626 546Z" />
<glyph unicode="N" glyph-name="N" horiz-adv-x="675" d="M251 657Q305 657 344 662Q353 628 386 564T473 406T558 251Q560 257 568 292L612 524Q618 557 618 578T587 613T538 628Q536 628 536 635Q536 656 542 662Q647 657 672 657Q703 657 796 662Q796 628 788
628Q781 628 768 626T733 615T697 592Q681 576 670 519L596 139Q588 98 573 -1Q569 -5 549 -5Q538 -5 524 18L247 524L173 141Q165 101 165 86Q165 70 176 58T202 41T229 33T245 30Q247 30 247 25Q247 8 241 -4Q229 -3 203 -1T155 2T114 3Q89 3 45 0T-12 -4Q-14
0 -14 5T-13 16T-10 26T-8 30Q10 30 42 39T91 71Q104 88 114 144L190 537Q196 569 196 596Q196 611 168 619T123 628Q120 628 120 636Q120 657 127 662Q232 657 251 657Z" />
<glyph unicode="O" glyph-name="O" horiz-adv-x="626" d="M359 611Q278 611 218 504T157 238Q157 199 163 166T182 105T220 62T278 46Q320 46 355 74T413 146T451 244T474 346T481 435Q481 611 359 611ZM383 667Q489 667 556 592T624 400Q624 322 592 247T509
115T389 25T252 -10Q146 -10 79 65T12 256Q12 334 44 410T127 542T246 632T383 667Z" />
<glyph unicode="P" glyph-name="P" horiz-adv-x="546" d="M376 662Q400 662 422 659T469 646T513 620T544 576T557 510Q557 470 542 430T498 356T425 302T327 281Q306 281 289 287T263 302Q262 303 262 309Q262 316 265 323T271 331Q275 331 286 330T303 328Q360
328 388 382T416 520Q416 554 400 580T351 607Q297 607 293 588L207 141Q198 88 198 74Q198 59 209 49T238 36T264 31T281 30Q285 30 282 14Q279 -1 277 -4Q148 3 128 3Q103 3 48 0T-13 -4Q-15 2 -14 12Q-11 30 -8 30Q41 30 53 55Q63 74 75 135L151 523Q159 561
159 595Q159 609 140 618T111 628Q109 628 109 633Q109 640 112 650T117 662Q222 657 244 657Q272 657 310 659T376 662Z" />
<glyph unicode="Q" glyph-name="Q" horiz-adv-x="624" d="M359 611Q278 611 218 504T157 238Q157 199 163 166T182 105T220 62T278 46Q320 46 355 74T413 146T451 244T474 346T481 435Q481 611 359 611ZM383 667Q489 667 556 592T624 400Q624 293 567 196T422
43Q392 24 341 2T262 -27Q288 -31 413 -72T606 -114Q643 -114 680 -98T737 -65Q743 -66 752 -72T762 -85Q741 -113 675 -156T544 -200Q478 -200 403 -177T223 -116T32 -56Q32 -52 40 -41T54 -27Q120 -13 215 -7Q124 6 68 79T12 256Q12 334 44 410T127 542T246 632T383
667Z" />
<glyph unicode="R" glyph-name="R" horiz-adv-x="632" d="M376 662Q405 662 435 655T494 632T543 589T562 523Q562 461 518 400T412 317Q407 315 410 307Q457 168 519 90Q567 29 613 29Q613 11 603 -4Q589 -6 567 -6Q544 -6 523 -3T487 3T456 15T431 29T410 48T394
68T379 90T367 113T356 137T345 160Q297 263 282 279Q269 293 250 293Q245 293 244 293T239 289T234 277L207 139Q197 87 197 59Q197 49 216 40T245 30Q247 30 247 25Q247 6 240 -4Q228 -3 202 -1T154 2T113 3Q88 3 44 0T-13 -4Q-14 -3 -14 2Q-14 9 -12 19T-8 30Q3
30 24 36T51 52Q67 78 76 135L152 523Q161 574 161 594Q161 609 143 618T112 628Q110 628 110 633Q110 640 113 650T118 662Q223 657 245 657Q272 657 310 659T376 662ZM355 607Q318 607 307 603T293 582L253 375Q252 372 252 368Q252 355 266 352T315 348Q348
348 372 377T407 445T418 525Q418 566 401 586T355 607Z" />
<glyph unicode="S" glyph-name="S" horiz-adv-x="449" d="M305 670Q330 670 353 666T405 654T456 642Q431 465 427 465H413Q406 465 402 466T395 470T391 482Q391 498 386 519T371 562T340 599T295 614Q269 614 250 602T220 572T206 539T201 511Q201 502 203 494T209
477T218 461T230 446T244 432T260 417T275 404T292 390T309 377Q316 372 336 357T365 333T387 309T406 273T411 228Q411 171 388 124T327 48T249 5T167 -10Q101 -10 2 16Q7 59 7 104Q7 120 7 151T6 182Q6 190 30 190Q34 190 43 188T54 182Q54 136 84 92T160 47Q188
47 210 58T243 85T262 119T272 150T274 169Q274 188 262 208T238 239T201 270T170 295Q167 297 154 308T137 323T122 336T107 352T95 367T83 385T76 404T70 426T68 450Q68 498 91 540T150 610T227 654T305 670Z" />
<glyph unicode="T" glyph-name="T" horiz-adv-x="573" d="M144 135L214 497Q227 564 227 577Q227 597 214 602T152 607Q114 607 85 585T33 509Q30 504 23 504Q17 504 8 506T-2 511L47 674Q85 663 109 663Q148 663 210 660T311 657T414 660T517 663Q540 663 584
674L569 510Q567 508 557 506T541 503Q533 503 533 508Q531 561 510 584T452 607Q418 607 399 604T376 598T370 589Q356 558 345 500L275 139Q265 87 265 59Q265 49 284 40T313 30Q315 30 315 25Q315 6 308 -4Q296 -3 271 -1T223 2T183 3Q158 3 112 0T55 -4Q54
-3 54 2Q54 9 56 19T60 30Q71 30 92 36T119 52Q134 78 144 135Z" />
<glyph unicode="U" glyph-name="U" horiz-adv-x="679" d="M85 522Q96 590 93 600Q90 608 70 616T40 625Q37 625 40 642Q43 660 45 662Q171 656 179 656Q196 656 310 662V644Q307 625 302 625Q294 625 267 617T237 601Q224 572 214 516L168 279Q150 187 178 131T272
75Q304 75 332 85T388 119T437 184T470 286L516 524Q516 525 518 535T521 552T522 567T522 584T518 596Q511 607 487 616T451 625Q448 626 448 633T451 650T456 662Q540 654 577 654Q600 654 641 657T694 662Q696 654 694 644Q693 639 690 632T685 625Q677 625
667 624T636 614T602 592Q586 576 575 519L530 291Q502 145 421 70T234 -5Q179 -5 139 12T70 66T35 164T44 311L85 522Z" />
<glyph unicode="V" glyph-name="V" horiz-adv-x="548" d="M150 656Q190 656 292 662Q293 660 293 656Q293 647 291 636T285 625Q269 625 245 616T217 589Q214 579 225 523L286 193L481 522Q508 568 513 590Q516 605 499 615T454 625Q452 625 452 632Q452 650 458
662Q550 657 564 657Q566 657 674 662Q676 657 675 647Q671 626 669 626Q662 626 653 625T629 618T599 600T572 568L247 27Q236 10 223 0T200 -10Q186 -10 181 3L89 510Q87 522 81 551T74 592Q71 609 49 617T13 625Q10 625 10 634Q10 650 18 662Q129 656 150 656Z"
/>
<glyph unicode="W" glyph-name="W" horiz-adv-x="1015" d="M149 656Q163 656 277 662Q277 661 277 657Q277 648 275 637T270 625Q226 625 220 591Q219 583 225 560Q328 192 329 192Q330 191 353 221T397 280L419 310L359 527Q341 591 334 600Q316 625 285 625Q282
625 285 644Q288 660 290 662Q416 656 418 656Q428 656 542 662Q542 661 542 656Q542 647 540 636T535 625Q520 625 505 618T486 593Q485 585 491 562L523 447L585 542Q612 584 614 594Q616 604 608 611T588 621T567 625T552 626Q550 626 550 637Q550 656 558 662Q645
656 667 656Q671 656 785 662Q786 656 784 641T778 626Q764 626 740 616T704 596Q672 565 635 510L543 372L595 197Q597 198 692 340T829 544Q852 579 855 594Q857 606 843 614T816 624T795 626Q793 626 793 639Q793 656 801 662Q888 656 911 656Q932 656 951 657T993
659T1028 662Q1028 626 1021 626Q1007 626 984 617T950 598Q919 569 879 510L554 19Q544 4 533 -4T516 -13Q509 -13 507 -8L439 233L286 19Q276 5 265 -4T248 -13Q243 -13 241 -8L93 527Q78 580 65 604Q60 614 43 619T13 625Q10 625 13 644Q16 660 18 662Q144 656
149 656Z" />
<glyph unicode="X" glyph-name="X" horiz-adv-x="761" d="M283 656Q304 656 418 662Q418 661 418 659T418 654Q418 645 415 635T409 625Q395 625 377 620T356 604Q354 592 359 582L430 414Q444 429 468 454T511 499T547 538T576 573T588 594Q590 606 570 615T525
625Q524 625 524 636Q524 655 532 662Q634 656 646 656Q657 656 771 662Q772 661 772 655Q772 646 769 636T763 625Q750 625 721 616T672 586L454 356Q566 94 576 76Q589 54 612 44T647 33Q648 31 648 29T647 20T645 11Q644 6 639 -4Q528 2 505 2T458 1T405 -1T357
-4Q356 -3 356 5Q356 13 359 23T366 33Q378 33 399 41T423 61Q425 66 423 72L340 269Q338 267 316 241T272 191T226 139T187 91T170 66Q167 51 188 42T233 33Q236 33 233 12Q232 4 228 -4Q138 2 107 2Q101 2 -13 -4Q-13 -4 -13 1T-14 10Q-10 33 -6 33Q6 33 37 42T82
67L313 332L228 537Q201 602 192 610Q176 625 146 625Q145 625 145 637Q145 655 153 662Q158 662 207 659T283 656Z" />
<glyph unicode="Y" glyph-name="Y" horiz-adv-x="590" d="M151 656Q170 656 284 662Q285 660 285 653Q285 644 282 635T277 625Q263 625 244 620T223 604Q221 594 226 582L289 403Q429 581 434 603Q436 613 422 619T379 625Q377 625 377 634Q377 655 385 662Q469
656 497 656Q522 656 603 662Q603 649 602 644Q599 626 595 626Q578 626 555 617T515 590Q485 556 392 437T297 304L266 145Q255 93 257 58Q257 51 279 42T309 33Q312 33 309 14Q306 -1 304 -4Q297 -4 249 0T176 4Q151 4 102 1T40 -4Q37 2 39 12Q42 33 46 33Q56
33 81 41T112 58Q123 85 135 139L168 309Q169 316 151 373T114 483L96 537Q77 597 60 610Q51 616 37 620T13 625Q11 625 11 634Q11 641 14 650T21 662Q26 662 74 659T151 656Z" />
<glyph unicode="Z" glyph-name="Z" horiz-adv-x="615" d="M303 656H405Q490 656 622 666Q625 665 626 653T625 633Q624 629 513 492T290 218L179 82Q170 71 169 67Q168 62 171 60T180 57H328Q393 57 441 91T515 174Q518 180 528 180Q551 180 556 174Q548 157 526
115T491 47T472 0H-9Q-16 12 -12 26Q-10 38 -5 43L446 599H287Q254 599 230 592T189 567T164 537T140 495Q136 488 134 484Q130 478 121 478Q94 478 91 482Q134 594 154 662Q175 656 303 656Z" />
<glyph unicode="[" glyph-name="bracketleft" horiz-adv-x="391" d="M222 -92Q229 -96 228 -113T218 -133Q96 -110 10 -110Q-4 -110 -4 -87L159 747Q159 749 160 753T167 764T181 770Q283 770 398 793Q402 793 402 784Q402 760 386 752Q362 740 328 730T276 720Q268
720 266 711L118 -52Q116 -60 124 -60Q140 -60 170 -69T222 -92Z" />
<glyph unicode="\" glyph-name="backslash" horiz-adv-x="250" d="M38 761Q83 761 89 739L215 13Q215 13 216 11Q216 9 216 7Q216 -17 203 -28T177 -39L155 -37L18 755Q25 761 38 761Z" />
<glyph unicode="]" glyph-name="bracketright" horiz-adv-x="385" d="M0 -92Q26 -79 60 -70T111 -60Q118 -60 120 -52L269 711Q271 720 262 720Q244 720 214 730T164 752Q158 759 158 768T162 785T168 793Q273 770 377 770Q390 770 390 753V747L228 -87Q228 -89
227 -93T220 -104T206 -110Q119 -110 -12 -133Q-15 -132 -15 -126Q-15 -100 0 -92Z" />
<glyph unicode="^" glyph-name="asciicircum" horiz-adv-x="352" d="M44 499Q46 503 63 517T101 551T152 605T206 677Q207 679 208 681T210 685T212 688T214 689T218 690Q228 690 231 683T243 648T268 588Q275 575 289 554T315 518T327 500Q325 494 319 482T309
469Q297 469 261 505T201 582Q165 542 114 506T50 469Q44 469 44 499Z" />
<glyph unicode="_" glyph-name="underscore" horiz-adv-x="519" d="M22 -35Q31 17 45 17H463Q465 17 465 9Q465 -6 450 -39Q449 -42 447 -43T442 -45H441H27L22 -35Z" />
<glyph unicode="`" glyph-name="grave" horiz-adv-x="210" d="M48 654Q48 665 62 676T97 687Q119 687 126 678Q143 650 164 599T186 540Q186 537 179 530T167 522Q156 522 102 574T48 654Z" />
<glyph unicode="a" glyph-name="a" horiz-adv-x="462" d="M323 449Q355 449 380 442T417 427L359 128Q357 122 357 105Q357 81 367 81Q381 81 406 102T440 134Q442 134 450 124T459 110Q448 83 388 38T285 -8Q262 -8 247 6T232 46Q232 53 232 59Q233 71 234 76Q187
-8 125 -8Q70 -8 39 33T8 140Q8 191 32 245T97 345T198 420T323 449ZM265 385Q235 385 209 355T166 281T140 196T131 124Q131 68 162 68Q194 68 226 137T274 288L292 378Q285 385 265 385Z" />
<glyph unicode="b" glyph-name="b" horiz-adv-x="410" d="M299 449Q401 449 401 303Q401 237 374 177T305 77T215 14T124 -10Q76 -10 44 23T11 107Q11 130 17 162L91 544Q100 590 100 603Q100 625 51 625Q48 625 48 633Q48 647 57 656Q81 656 138 670T222 695Q232
690 232 673Q232 660 215 584L169 346Q170 348 173 352Q184 369 193 381T219 411T257 439T299 449ZM249 363Q217 363 182 301T134 167Q123 125 128 86T159 47Q189 47 217 89T262 189T279 296Q279 363 249 363Z" />
<glyph unicode="c" glyph-name="c" horiz-adv-x="371" d="M252 449Q324 449 364 404Q371 383 371 371Q371 346 358 328T324 310Q307 310 296 323T281 352T266 381T241 394Q214 394 189 358T150 270T135 169Q135 68 199 68Q229 68 259 89T300 126Q302 126 310 116T319
102Q307 74 254 34T154 -6Q80 -6 45 37T9 156Q9 230 43 298T133 408T252 449Z" />
<glyph unicode="d" glyph-name="d" horiz-adv-x="465" d="M297 448Q300 448 302 448L321 541Q330 595 330 603Q330 625 281 625Q278 625 278 633Q278 647 287 656Q312 656 369 670T452 695Q462 690 462 673Q462 667 459 650T451 612T445 586L356 128Q354 122 354
105Q354 81 364 81Q379 81 404 102T437 134Q440 134 448 124T456 110Q446 83 386 38T282 -8Q260 -8 245 6T229 46Q229 54 230 61Q231 71 232 76Q184 -8 122 -8Q68 -8 37 33T5 140Q5 190 27 242T87 339T180 413T297 448ZM286 360Q288 373 280 379T262 385Q233 385
206 355T163 281T138 196T128 124Q128 68 159 68Q192 68 223 135T272 288L286 360Z" />
<glyph unicode="e" glyph-name="e" horiz-adv-x="393" d="M251 449Q303 449 341 424T379 356Q379 319 349 284T278 227T199 192T139 179Q135 179 135 169Q135 110 152 89T199 68Q229 68 259 89T300 126Q302 126 310 116T319 102Q307 74 254 34T154 -6Q82 -6 46
36T9 157Q9 229 42 297T132 407T251 449ZM241 395Q215 395 181 341T146 233Q146 229 150 229Q197 229 231 272T265 356Q265 395 241 395Z" />
<glyph unicode="f" glyph-name="f" horiz-adv-x="417" d="M406 695Q470 695 499 662Q499 562 440 562Q426 562 416 574T401 601T387 628T365 640Q333 640 304 583T256 434V433Q256 429 259 429H374Q384 429 384 414Q384 394 370 370H250Q245 370 243 364L184 60Q169
-18 138 -75T68 -162T-6 -205T-78 -218Q-114 -218 -139 -206T-168 -179Q-168 -92 -112 -92Q-98 -92 -89 -103T-74 -127T-60 -152T-37 -163Q-1 -163 20 -118T55 2L127 363V365Q127 370 123 370H64Q59 370 59 380Q59 391 77 410T116 430H133Q139 430 142 446Q164
560 236 627T406 695Z" />
<glyph unicode="g" glyph-name="g" horiz-adv-x="465" d="M285 -97Q285 -80 234 -65T142 -45Q84 -62 84 -99Q84 -130 106 -149T182 -169Q238 -169 261 -148T285 -97ZM260 388Q236 388 219 359T195 292T187 217Q187 166 225 166Q245 166 260 183T283 228T294 282T298
331Q298 357 288 372T260 388ZM282 449Q307 449 343 436T415 422H468Q477 422 477 409Q477 389 467 371H416Q410 371 410 365Q410 364 412 346T414 312Q414 205 320 144Q300 131 262 117T199 90T175 66Q175 60 209 53T284 38T360 8T394 -48Q394 -74 382 -101T343
-156T266 -200T150 -218Q80 -218 32 -188T-16 -115Q-16 -96 -5 -80T26 -54T63 -37T99 -27Q82 -22 67 -11Q42 7 42 32Q42 50 77 73T159 116Q73 139 73 247Q73 327 135 388T282 449Z" />
<glyph unicode="h" glyph-name="h" horiz-adv-x="469" d="M317 449Q361 449 382 418T403 340Q403 316 387 233L367 128Q365 122 365 105Q365 81 375 81Q389 81 414 102T448 134Q450 134 458 124T467 110Q456 83 396 38T293 -8Q270 -8 255 6T240 49Q240 78 250
123L273 242Q273 246 276 259T281 283T283 300Q283 321 277 331T254 341Q229 341 189 256T135 105L114 0Q94 -6 58 -6Q23 -6 -3 0Q112 594 112 603Q112 625 63 625Q60 625 60 633Q60 647 69 656Q93 656 150 670T234 695Q244 690 244 673Q244 667 241 649T233 611T227
584Q173 307 173 304Q198 356 240 402T317 449Z" />
<glyph unicode="i" glyph-name="i" horiz-adv-x="286" d="M175 449Q198 449 213 435T228 392Q228 381 224 354T218 318L181 128Q179 122 179 105Q179 81 189 81Q203 81 228 102T262 134Q265 134 273 124T281 110Q270 83 210 38T107 -8Q85 -8 70 6T54 49Q54 60
58 87T64 123L101 313Q103 323 103 336Q103 360 93 360Q79 360 54 339T20 307Q18 307 10 317T1 331Q12 358 72 403T175 449ZM207 687Q232 687 248 669T265 625Q265 592 242 566T187 540Q162 540 146 558T129 603Q129 636 152 661T207 687Z" />
<glyph unicode="j" glyph-name="j" horiz-adv-x="341" d="M249 449Q272 449 287 435T302 392Q302 381 298 354T292 318L254 120Q227 -23 168 -102Q140 -140 86 -175T4 -218Q1 -218 -4 -204T-9 -181Q58 -122 85 -68T134 100L175 313Q177 323 177 336Q177 360 167
360Q153 360 128 339T94 307Q92 307 84 317T75 331Q86 358 146 403T249 449ZM294 689Q320 689 336 671T352 626Q352 593 329 567T274 541Q249 541 233 559T216 604Q216 637 239 663T294 689Z" />
<glyph unicode="k" glyph-name="k" horiz-adv-x="462" d="M319 449Q366 449 402 424T439 357Q439 316 410 280T344 224T275 200Q292 156 321 112T371 67Q388 67 412 86T447 119Q449 119 460 109T472 96Q461 68 417 32T323 -4Q302 -4 281 10T243 43T208 91T180
138T157 183Q153 192 151 196L113 0Q95 -8 58 -8Q29 -8 -3 0L102 544Q111 590 111 603Q111 625 62 625Q59 625 59 633Q59 647 68 656Q92 656 149 670T233 695Q243 690 243 673Q243 667 240 649T232 611T226 584L181 346Q187 360 196 374T222 407T264 437T319 449ZM277
376Q238 376 201 327T164 253Q164 241 197 241Q245 241 277 262Q294 274 304 293T314 333Q314 348 304 362T277 376Z" />
<glyph unicode="l" glyph-name="l" horiz-adv-x="241" d="M15 123L97 544Q106 591 106 603Q106 625 57 625Q54 625 54 633Q54 647 63 656Q88 656 145 670T228 695Q238 690 238 673Q238 667 235 650T227 610T221 584L132 128Q130 118 130 105Q130 81 140 81Q155
81 180 102T213 134Q216 134 224 124T232 110Q222 83 162 38T58 -8Q36 -8 21 6T5 49Q5 60 9 87T15 123Z" />
<glyph unicode="m" glyph-name="m" horiz-adv-x="748" d="M360 449Q404 449 425 418T446 340Q446 327 444 308Q471 359 514 404T590 449Q634 449 655 418T676 340Q676 316 660 233L640 128Q638 122 638 105Q638 81 648 81Q662 81 687 102T721 134Q724 134 732
124T740 110Q729 83 669 38T566 -8Q544 -8 529 6T513 49Q513 78 523 123L546 242Q556 292 556 300Q558 341 527 341Q502 341 462 256T408 105L387 0Q367 -6 328 -6Q290 -6 269 0L317 242Q327 285 327 300Q327 341 297 341Q272 341 232 256T178 105L157 0Q137 -6
101 -6Q66 -6 42 0L102 313Q104 323 104 336Q104 360 94 360Q80 360 55 339T21 307Q19 307 11 317T2 331Q13 358 73 403T176 449Q199 449 214 435T229 392Q229 380 221 328L217 302Q243 355 285 402T360 449Z" />
<glyph unicode="n" glyph-name="n" horiz-adv-x="513" d="M176 449Q199 449 214 435T229 392Q229 380 221 328Q221 326 221 324T219 315T218 306T217 302Q243 355 285 402T360 449Q404 449 425 418T446 340Q446 316 430 233L410 128Q408 122 408 105Q408 81 418
81Q432 81 457 102T491 134Q494 134 502 124T510 110Q499 83 439 38T336 -8Q314 -8 299 6T283 49Q283 78 293 123L316 242Q326 292 326 300Q326 321 320 331T297 341Q272 341 232 256T178 105L157 0Q137 -6 101 -6Q66 -6 42 0L102 313Q104 323 104 336Q104 360
94 360Q80 360 55 339T21 307Q19 307 11 317T2 331Q13 358 73 403T176 449Z" />
<glyph unicode="o" glyph-name="o" horiz-adv-x="407" d="M240 396Q211 396 186 350T146 237T133 110Q135 47 166 47Q197 47 223 97T261 212T273 332Q271 396 240 396ZM250 449Q327 449 362 405T397 287Q397 213 365 146T277 36T156 -6Q78 -6 44 38T9 156Q9 224
40 291T128 404T250 449Z" />
<glyph unicode="p" glyph-name="p" horiz-adv-x="473" d="M301 372Q278 372 257 349T221 299L183 102Q178 76 184 65T210 54Q237 54 266 93T316 194T336 316Q336 337 326 354T301 372ZM348 449Q401 449 430 403T459 299Q459 240 434 183T372 85T288 19T201 -6Q177
-6 164 6L140 -116Q138 -130 138 -137Q138 -168 160 -173Q176 -177 195 -177Q202 -177 202 -189Q202 -205 198 -211Q114 -211 85 -212Q25 -214 -40 -221Q-43 -220 -43 -212Q-43 -191 -38 -187Q-2 -185 11 -169Q14 -164 23 -122L87 204L49 173Q38 187 38 202Q38
211 45 218Q79 251 99 269L133 443Q163 449 191 449Q220 449 249 443L235 379Q237 381 245 392T261 410T282 428T312 443T348 449Z" />
<glyph unicode="q" glyph-name="q" horiz-adv-x="416" d="M262 385Q229 385 198 340T149 236T131 128Q131 69 159 69Q180 69 203 102T242 174T265 246L292 377Q287 385 262 385ZM320 449Q375 449 415 427L312 -111Q309 -124 309 -134Q309 -158 319 -167T361 -176Q367
-176 367 -194Q367 -205 363 -211Q355 -211 338 -211T314 -210Q220 -210 119 -221Q115 -215 115 -207Q115 -187 120 -187Q128 -187 136 -185T157 -177T179 -155T194 -116L230 66Q217 40 187 16T127 -8Q71 -8 40 31T8 134Q8 209 49 281T164 401T320 449Z" />
<glyph unicode="r" glyph-name="r" horiz-adv-x="437" d="M176 449Q199 449 214 435T229 392Q229 362 224 338Q217 298 216 294Q245 362 285 405T376 449Q412 449 442 410Q442 371 428 341T381 310Q365 310 346 332T311 354Q286 354 239 264T175 89L157 0Q129
-6 100 -6Q71 -6 42 0L102 313Q104 323 104 336Q104 360 94 360Q80 360 55 339T21 307Q19 307 11 317T2 331Q13 358 73 403T176 449Z" />
<glyph unicode="s" glyph-name="s" horiz-adv-x="325" d="M214 449Q278 449 312 420Q323 406 323 383Q323 355 312 339T283 323Q266 323 254 335T235 361T217 388T189 400Q170 400 162 390T154 357Q154 338 173 307T216 246T258 180T278 118Q278 64 229 28T110
-8Q48 -8 10 24Q1 35 1 58Q1 86 12 102T41 118Q58 118 71 106T92 80T110 53T135 41Q154 41 162 51T170 84Q170 103 151 134T108 195T66 261T46 323Q46 378 95 413T214 449Z" />
<glyph unicode="t" glyph-name="t" horiz-adv-x="289" d="M112 527Q113 533 143 536T200 540Q219 540 231 536L208 429H295Q305 429 305 412Q305 388 293 370H197L150 128Q148 122 148 105Q148 81 158 81Q172 81 197 102T231 134Q233 134 241 124T250 110Q239
83 179 38T76 -8Q53 -8 38 6T23 49Q23 60 27 87T33 123L81 370H25Q21 370 21 382Q21 393 25 408T35 429H93L112 527Z" />
<glyph unicode="u" glyph-name="u" horiz-adv-x="513" d="M175 449Q198 449 213 435T228 392Q228 363 218 318L195 199Q194 195 192 182T187 158T185 141Q185 120 191 110T214 100Q239 100 279 185T333 336L354 441Q374 447 410 447Q445 447 469 441L409 128Q407
118 407 105Q407 81 417 81Q431 81 456 102T490 134Q493 134 501 124T509 110Q498 83 438 38T335 -8Q313 -8 298 6T282 49Q282 65 290 113Q290 115 290 117T292 126T293 135T294 139Q268 86 226 39T151 -8Q107 -8 86 23T65 101Q65 125 81 208L101 313Q103 319 103
336Q103 360 93 360Q79 360 54 339T20 307Q18 307 10 317T1 331Q12 358 72 403T175 449Z" />
<glyph unicode="v" glyph-name="v" horiz-adv-x="443" d="M175 449Q198 449 213 435T228 392Q228 364 220 328L188 165Q185 150 185 128Q185 88 211 88Q238 88 272 119T330 199T355 288Q355 314 337 339T319 390Q319 417 339 433T390 449Q414 449 428 438Q438
421 438 380Q438 314 409 243T337 119T246 31T161 -4Q119 -4 91 20T62 89Q62 115 67 141L101 313Q103 323 103 336Q103 360 93 360Q79 360 54 339T20 307Q18 307 10 317T1 331Q12 358 72 403T175 449Z" />
<glyph unicode="w" glyph-name="w" horiz-adv-x="686" d="M175 449Q198 449 213 435T228 392Q228 364 220 328L188 165Q185 150 185 128Q185 88 211 88Q268 88 312 165Q319 234 326 279T345 367T372 429T411 449Q442 449 454 431T466 379Q466 326 428 182Q426
168 426 148Q426 112 431 100T454 88Q481 88 515 119T573 199T598 288Q598 311 580 340T561 395Q561 421 582 435T630 449Q659 449 671 438Q681 421 681 380Q681 314 652 243T580 119T489 31T404 -4Q362 -4 334 18T304 83Q224 -4 161 -4Q119 -4 91 20T62 89Q62
115 67 141L101 313Q103 323 103 336Q103 360 93 360Q79 360 54 339T20 307Q18 307 10 317T1 331Q12 358 72 403T175 449Z" />
<glyph unicode="x" glyph-name="x" horiz-adv-x="483" d="M205 449Q240 449 261 371L276 318L314 385Q355 449 409 449Q450 449 480 431Q487 419 487 402Q487 379 474 362T434 345Q416 345 401 354T375 363Q354 363 344 346L295 251L334 112Q343 84 358 84Q372
84 397 105T431 137Q434 137 442 127T450 113Q439 86 379 41T276 -5Q242 -5 220 74L201 142L151 58Q109 -6 56 -6Q15 -6 -15 12Q-22 24 -22 41Q-22 64 -9 81T31 98Q49 98 64 89T90 80Q111 80 121 97L183 207L147 332Q138 360 123 360Q109 360 84 339T50 307Q48
307 40 317T31 331Q42 358 102 403T205 449Z" />
<glyph unicode="y" glyph-name="y" horiz-adv-x="509" d="M219 449Q231 449 242 439T262 411T279 370T293 320T305 265T314 209T321 157T326 113T329 81T331 66Q347 86 381 156T416 273Q416 300 404 334T380 389Q380 412 400 430T445 449Q468 449 484 433T501
394Q501 308 469 217T386 50T275 -87T154 -183T44 -218Q18 -218 1 -206T-16 -165Q-16 -140 2 -120Q46 -132 78 -132Q110 -132 134 -124T170 -106T193 -81Q214 -54 214 8Q214 65 200 154T161 332Q153 360 137 360Q123 360 98 339T64 307Q61 307 53 317T45 331Q56
358 116 403T219 449Z" />
<glyph unicode="z" glyph-name="z" horiz-adv-x="431" d="M170 449Q205 449 259 438T348 427Q363 427 385 438T423 449Q442 449 442 415L138 108Q144 109 153 112T169 117T185 119Q209 119 246 108T308 97Q323 97 338 109T364 134T379 147Q391 147 400 119Q392
103 387 93T369 63T342 30T311 7T272 -4Q237 -4 184 8T96 20Q76 20 47 8T8 -4Q-1 -4 -7 5T-14 23L291 337Q271 328 254 328Q233 328 203 339T147 350Q132 350 117 337T91 312T74 299Q68 299 61 307T49 324Q66 365 101 407T170 449Z" />
<glyph unicode="{" glyph-name="braceleft" horiz-adv-x="354" d="M32 31Q32 63 57 138T82 235Q82 244 79 252T73 264T61 273T48 280T31 285T15 291Q14 295 16 308T23 328Q62 338 83 351T111 388T120 433T123 495T132 572Q142 626 183 668T272 730T362 750Q364
750 364 746Q364 739 361 729T353 717Q327 715 296 686T255 613Q248 578 246 528T236 434Q227 387 195 348T137 308Q158 308 174 282T191 217T164 102T137 -6Q137 -41 156 -65T196 -92Q202 -94 200 -109T192 -125Q134 -125 83 -79T32 31Z" />
<glyph unicode="|" glyph-name="bar" horiz-adv-x="242" d="M165 757Q186 776 224 776Q249 776 248 766L78 -106Q70 -113 47 -119T6 -126Q1 -126 -2 -122T-5 -115Q95 419 165 757Z" />
<glyph unicode="}" glyph-name="braceright" horiz-adv-x="346" d="M214 637Q214 671 195 693T155 717Q149 718 151 734T159 750Q219 750 271 709T323 602Q323 568 296 490T268 389Q268 363 285 350T334 328Q335 326 335 321Q335 301 327 291Q324 290 310 286T292
281T277 275T261 266T250 255T240 239T234 219Q229 194 227 141T218 58Q204 -15 129 -70T-11 -125Q-14 -125 -14 -119T-11 -103T-3 -92Q22 -90 55 -59T97 18Q104 53 105 98T114 187Q123 234 154 271T212 308Q191 308 175 336T158 403Q158 441 186 524T214 637Z"
/>
<glyph unicode="~" glyph-name="asciitilde" horiz-adv-x="500" d="M166 359Q210 359 271 333T375 306Q392 306 410 313T436 327T468 350Q472 348 472 335Q472 302 427 274T337 245Q293 245 232 271T126 298Q109 298 91 291T65 277T33 254Q29 256 29 269Q29 303
79 331T166 359Z" />
<glyph unicode="&#xa0;" glyph-name="uni00A0" horiz-adv-x="190" />
<glyph unicode="&#xa1;" glyph-name="exclamdown" horiz-adv-x="241" d="M-4 -211T-4 -187T43 -3T112 220Q119 242 128 242Q138 242 145 234T152 213Q152 190 137 22T117 -170Q111 -201 90 -219T46 -238Q24 -238 10 -225ZM91 351Q91 387 119 415T178 443Q202 443
216 426T231 383Q231 347 205 320T145 293Q122 293 107 309T91 351Z" />
<glyph unicode="&#xa2;" glyph-name="cent" horiz-adv-x="371" d="M292 449Q364 449 404 404Q411 383 411 371Q411 346 398 328T364 310Q347 310 336 323T321 352T306 381T281 394Q241 394 208 320T175 169Q175 68 239 68Q270 68 299 89T340 126Q342 126 350 116T359
102Q348 74 295 34T194 -6Q120 -6 85 37T49 156Q49 270 123 359T292 449Z" />
<glyph unicode="&#xa3;" glyph-name="sterling" horiz-adv-x="489" d="M381 642Q420 642 453 633T494 607Q486 569 469 547T427 524Q408 524 397 539T376 569T350 585Q263 585 237 449Q232 419 234 361Q234 358 237 358H388Q396 358 396 343Q396 316 381 301H238Q234
301 234 298Q234 281 227 248Q212 177 144 96Q169 111 225 111Q253 111 289 97T338 82Q344 82 350 83T361 84T371 88T380 92T389 98T397 104T405 112T413 120T422 129T431 139Q436 139 441 135T446 124Q446 119 445 118Q423 75 385 35T304 -5Q272 -5 214 9T134
24Q114 24 96 21T70 13T47 2T29 -7Q15 -4 8 4T0 20Q0 23 5 26Q58 68 84 112T119 230Q120 237 122 262T126 297Q126 301 122 301H50Q47 308 47 319Q47 330 52 344T65 358H124Q127 358 127 362Q126 398 136 447Q154 537 221 589T381 642Z" />
<glyph unicode="&#xa4;" glyph-name="currency" horiz-adv-x="475" d="M259 452Q226 452 203 412T173 329T165 248Q165 164 221 164Q254 164 277 203T308 285T316 367Q316 452 259 452ZM278 497Q337 497 377 462L434 510Q436 512 438 512Q446 512 455 495T465
462L411 416Q426 381 426 346Q426 260 361 190L394 142Q395 141 395 139Q395 131 376 117T341 98L308 148Q258 119 204 119Q143 119 102 157L44 108Q42 106 40 106Q32 106 23 123T12 156L69 204Q56 236 56 269Q56 353 120 424L85 476Q84 477 84 479Q84 487 103
501T138 520L173 467Q224 497 278 497Z" />
<glyph unicode="&#xa5;" glyph-name="yen" horiz-adv-x="627" d="M50 167H146L156 217H65Q56 217 56 232Q56 250 68 270H166Q172 288 172 300Q172 302 170 314L102 546Q87 597 61 616Q44 628 16 628Q13 628 13 638Q13 656 21 662Q36 661 62 660T111 657T153 656Q193
656 307 662V657Q307 650 304 639T298 628Q285 628 267 621T249 598Q249 594 255 576L307 422Q308 419 310 419Q314 419 317 424Q455 579 455 604Q455 616 434 622T388 628Q386 628 386 634Q386 656 394 662Q496 656 521 656Q542 656 560 657T599 659T633 662Q633
629 626 629Q617 629 585 618T540 594Q509 563 407 442T300 292L296 270H394Q402 270 402 256Q402 231 386 217H286L277 167H374Q382 167 382 153Q382 128 366 114H267Q262 84 262 59Q262 49 281 40T309 30Q311 30 311 25Q311 6 305 -4Q194 2 193 2Q181 2 52 -4Q51
-3 51 2Q51 9 53 19T57 30Q67 30 89 38T117 55Q125 69 136 114H47Q38 114 38 129Q38 152 50 167Z" />
<glyph unicode="&#xa6;" glyph-name="brokenbar" horiz-adv-x="240" d="M163 752Q184 771 222 771Q226 771 232 770T242 766T246 760L175 398Q166 391 143 384T103 377Q98 377 95 381T92 388Q93 414 163 752ZM65 248Q88 268 125 268Q132 268 140 265T148 257L77
-106Q69 -113 46 -119T5 -126Q0 -126 -3 -122T-6 -115Q-5 -90 65 248Z" />
<glyph unicode="&#xa7;" glyph-name="section" horiz-adv-x="396" d="M292 651Q323 651 345 639T373 613L372 604Q372 596 371 587T365 567T352 550T329 543Q318 543 308 555T285 580T254 593Q184 593 184 537Q184 513 203 493T249 458T302 425T348 380T367 318Q367
271 337 220T275 148Q277 138 277 125Q277 43 226 1T107 -41Q75 -41 52 -29T24 -4Q24 12 35 38T68 65Q85 65 105 41T148 17Q173 17 194 30T215 73Q215 98 197 118T152 156T99 191T54 238T35 301Q35 318 39 340T65 400T124 463Q122 468 122 482Q122 561 173 606T292
651ZM111 359Q111 330 130 308T175 274T226 238T264 185Q290 209 290 244Q290 272 270 296T225 334T172 373T135 424Q111 406 111 359Z" />
<glyph unicode="&#xa8;" glyph-name="dieresis" horiz-adv-x="386" d="M418 590Q443 590 459 572T476 528Q476 495 453 469T398 443Q373 443 357 461T340 506Q340 539 363 564T418 590ZM198 592Q223 592 239 574T256 529Q256 496 233 471T178 445Q153 445 137
463T120 507Q120 540 143 566T198 592Z" />
<glyph unicode="&#xa9;" glyph-name="copyright" horiz-adv-x="574" d="M321 481Q365 481 408 469Q409 469 409 462Q409 416 404 401Q403 397 396 397Q390 397 384 399Q383 417 368 434T317 451Q278 451 253 405T228 305Q228 229 286 229Q321 229 339 244Q343
247 347 251T354 258T359 265T364 270L365 272Q366 272 367 272T369 273Q378 273 381 268Q380 261 371 242T354 219Q317 199 262 199Q218 199 190 230T162 309Q162 372 209 426T321 481ZM337 569Q237 569 157 486T76 295Q76 216 124 165T248 113Q348 113 428 197T509
388Q509 467 461 518T337 569ZM346 615Q437 615 494 554T552 398Q552 269 456 169T239 69Q148 69 91 130T34 286Q34 415 130 515T346 615Z" />
<glyph unicode="&#xaa;" glyph-name="ordfeminine" horiz-adv-x="369" d="M239 554Q261 554 287 549T320 539L282 339Q280 331 280 325Q280 307 294 307Q299 307 307 316T321 336T328 346Q332 346 339 340T349 326Q339 301 313 274T251 247Q217 247 204 285Q201
300 201 301T200 302L199 301Q150 247 106 247Q36 247 36 318Q36 385 105 469T239 554ZM213 512Q190 512 157 448T123 338Q123 298 139 298Q161 298 186 338T219 428L229 485Q231 499 231 501Q231 512 213 512Z" />
<glyph unicode="&#xab;" glyph-name="guillemotleft" horiz-adv-x="475" d="M443 423Q449 422 460 415T471 399Q471 392 387 319L305 248L358 177Q412 107 412 99Q412 90 398 83T374 73Q373 75 357 91T298 146T202 227Q198 228 198 238Q198 255 211 268Q348 347
443 423ZM258 423Q264 422 275 415T286 399Q286 392 202 319L120 248L173 177Q227 107 227 99Q227 90 213 83T189 73Q188 75 172 91T113 146T17 227Q13 231 13 238Q13 255 26 268Q163 347 258 423Z" />
<glyph unicode="&#xac;" glyph-name="logicalnot" horiz-adv-x="510" d="M53 427H471Q482 427 480 416L433 163Q414 153 381 153Q375 153 370 155T365 163L401 346V348Q401 356 393 356H31Q31 356 28 366Q44 427 53 427Z" />
<glyph unicode="&#xae;" glyph-name="registered" horiz-adv-x="568" d="M308 532Q300 532 296 529T290 518L275 439Q274 437 274 433Q274 425 290 425Q312 425 323 447T334 495Q334 532 308 532ZM321 554Q350 554 374 541T399 497Q399 469 380 442T338 405L336
403Q336 402 336 402T337 401Q348 373 363 342Q392 288 417 288Q417 280 414 274Q411 272 402 272Q370 272 349 284T321 307T302 341Q296 354 291 366T284 384T279 394Q276 399 271 399Q267 399 266 393L251 318Q250 314 250 305Q250 299 252 297Q255 293 259 291T267
288H270Q271 288 271 286Q271 279 267 273L244 275Q222 277 211 277T179 275T151 273V280Q151 288 153 288Q157 288 167 292T179 299Q187 317 189 332L220 496Q224 524 224 529Q224 532 216 536T203 540Q202 540 202 544Q202 552 205 555Q241 553 266 553Q278 553
294 553T321 554ZM342 636Q242 636 162 553T81 362Q81 283 129 232T253 180Q353 180 433 264T514 455Q514 534 466 585T342 636ZM351 682Q442 682 499 621T557 465Q557 336 461 236T244 136Q153 136 96 197T39 353Q39 482 135 582T351 682Z" />
<glyph unicode="&#xaf;" glyph-name="overscore" horiz-adv-x="354" d="M175 599H408Q413 599 413 585Q413 583 411 573T402 549T387 530H160Q153 530 153 549Q153 559 159 575T175 599Z" />
<glyph unicode="&#xb0;" glyph-name="degree" horiz-adv-x="215" d="M223 590Q197 590 180 569T162 523Q162 505 172 494T202 482Q228 482 245 503T263 549Q263 567 253 578T223 590ZM232 634Q265 634 285 612T306 555Q306 509 271 473T193 437Q160 437 140 459T119
516Q119 563 154 598T232 634Z" />
<glyph unicode="&#xb1;" glyph-name="plusminus" horiz-adv-x="488" d="M61 111Q61 111 486 111Q490 111 490 93Q490 65 464 39H39Q35 39 35 57Q35 85 61 111ZM120 420Q120 420 285 420Q289 420 289 424Q295 453 305 510T322 604Q324 613 352 617T394 622Q400
622 402 620T404 613L369 425Q367 420 372 420H545Q549 420 549 402Q549 374 523 348H357Q353 348 353 344Q353 344 318 164Q317 157 293 152T252 146Q244 146 240 149T237 155L273 343Q273 348 269 348H98Q94 348 94 366Q94 394 120 420Z" />
<glyph unicode="&#xb2;" glyph-name="uni00B2" horiz-adv-x="312" d="M208 644Q246 644 268 622T291 561Q291 522 268 481T207 406T145 354T99 322Q97 320 97 318T99 316H205Q227 316 240 329T259 355T272 368Q287 368 290 363L242 253L147 254Q33 253 28 253Q20
264 20 275Q20 280 23 288Q113 368 160 434T207 539Q207 558 198 572T169 586T131 575T100 552T87 540Q84 540 80 548T76 562Q76 570 79 574Q91 594 129 619T208 644Z" />
<glyph unicode="&#xb3;" glyph-name="uni00B3" horiz-adv-x="290" d="M109 282Q150 282 169 319T188 390Q188 440 127 440H106Q103 450 104 456Q104 464 108 470Q145 478 166 499T192 536T196 564Q196 579 189 587T170 596Q152 596 128 578T102 559Q96 559 90
567T88 580Q108 605 144 625T213 645Q235 645 255 631T276 588Q276 556 249 523T188 472Q212 472 241 454T270 399Q270 341 216 294T82 246Q63 246 40 252T17 273T28 301T57 315Q68 315 81 299T109 282Z" />
<glyph unicode="&#xb4;" glyph-name="acute" horiz-adv-x="216" d="M260 687Q279 687 292 674T305 652Q305 628 238 575T158 522Q155 522 151 528T146 539Q146 546 177 602T228 681Q233 687 260 687Z" />
<glyph unicode="&#xb5;" glyph-name="uni00B5" horiz-adv-x="467" d="M175 446T184 446T214 432T234 409Q221 345 191 266L177 223Q166 164 174 127T205 90Q267 90 301 204L349 433Q371 448 395 446Q424 444 441 432T455 409Q447 361 403 246L394 223Q379 162
380 120T409 78Q424 78 442 89T469 109Q472 109 477 96Q479 86 476 76Q461 43 433 20T379 -4Q349 -3 335 36T324 128Q299 85 282 60T238 13T181 -9Q175 -9 170 -8T162 -2T155 5T150 15T147 26T144 39T142 51T140 64T139 76Q139 72 130 34T113 -41T105 -123T121
-191Q115 -199 97 -213T67 -227Q13 -227 13 -127Q13 -71 95 204Q98 218 103 254T110 298Q111 301 135 426Q139 432 157 439Z" />
<glyph unicode="&#xb6;" glyph-name="paragraph" horiz-adv-x="434" d="M310 261L272 57Q271 51 275 48T286 44Q300 44 302 58Q314 103 347 270Q348 274 344 274Q335 274 319 270Q312 269 310 261ZM318 652Q346 652 369 650T420 648L534 654Q537 650 533 636T525
622Q513 622 494 617T470 604Q465 593 447 500Q441 468 431 413T418 348Q417 343 422 343L463 352Q465 344 462 333Q458 315 439 304Q428 298 413 294Q407 291 407 290Q399 251 383 160T368 52Q369 44 386 37T414 30Q417 30 415 18Q412 1 407 -4Q390 -3 342 -1T259
2Q240 2 222 1T182 -1T147 -4Q146 1 149 14T155 28Q163 28 183 35T207 50Q214 68 237 183L251 256Q252 261 248 262T234 263Q156 263 122 319T104 460Q123 558 186 605T318 652ZM377 594L324 332Q323 330 324 329T330 327Q343 327 353 332Q359 335 360 340Q405
575 408 596Q409 599 405 602T395 606Q379 606 377 594Z" />
<glyph unicode="&#xb7;" glyph-name="middot" horiz-adv-x="189" d="M78 250Q78 285 104 311T163 338Q187 338 202 322T218 280Q218 247 192 218T135 188Q110 188 94 206T78 250Z" />
<glyph unicode="&#xb8;" glyph-name="cedilla" horiz-adv-x="30821" d="M201 -1H237L215 -32Q228 -31 237 -31Q258 -31 271 -45T285 -81Q285 -93 279 -108T260 -141T221 -171T159 -183Q118 -183 105 -175Q100 -164 100 -150Q100 -140 107 -132T122 -124Q131 -124
146 -134T174 -145Q198 -145 211 -132T225 -103Q225 -78 204 -78Q187 -78 170 -85Q168 -85 162 -78T158 -67Q164 -58 179 -34T201 -1Z" />
<glyph unicode="&#xb9;" glyph-name="uni00B9" horiz-adv-x="267" d="M60 567Q231 648 237 648Q241 648 245 640T250 628Q229 582 221 543L180 331Q178 323 178 311Q178 302 182 295Q186 289 202 285T226 281Q228 281 228 277Q228 259 221 252Q215 252 178 254T127
257T69 255T21 252L20 254Q20 255 20 256Q20 262 22 271T26 281Q34 281 53 286T77 297Q90 312 93 330L132 529Q134 545 134 547Q134 560 126 560Q117 560 69 538Q66 539 63 545T59 557Q59 566 60 567Z" />
<glyph unicode="&#xba;" glyph-name="ordmasculine" horiz-adv-x="342" d="M166 284Q240 284 240 450Q240 517 198 517Q125 517 125 348Q125 284 166 284ZM39 367Q39 440 93 497T213 554Q263 554 295 520T327 433Q327 364 275 306T153 247Q103 247 71 281T39 367Z" />
<glyph unicode="&#xbb;" glyph-name="guillemotright" horiz-adv-x="489" d="M99 423Q185 337 272 269Q275 263 275 256Q275 234 262 228Q192 185 136 147T56 92T32 73Q26 74 15 81T4 97Q4 102 15 113T88 177L169 248L115 319Q62 387 62 396T76 413T99 423ZM284
423Q370 337 457 269Q461 261 461 256Q461 234 447 228Q377 185 321 147T241 92T217 73Q211 74 200 81T189 97Q189 102 200 113T273 177L354 248L300 319Q247 387 247 396T261 413T284 423Z" />
<glyph unicode="&#xbc;" glyph-name="onequarter" horiz-adv-x="632" d="M49 567Q220 648 226 648Q230 648 234 640T239 628Q218 582 210 543L169 331Q167 323 167 311Q167 302 171 295Q175 289 191 285T215 281Q217 281 217 277Q217 259 210 252Q204 252 167
254T116 257T58 255T10 252V254Q9 255 9 256Q9 262 11 271T15 281Q23 281 42 286T66 297Q79 312 82 330L121 529Q123 545 123 547Q123 560 115 560Q106 560 58 538Q55 539 52 545T48 557Q48 566 49 567ZM587 616L142 -13Q134 -14 120 -8T106 6Q106 10 108 12L551
644Q558 646 573 638T588 622Q588 617 587 616ZM569 388Q578 397 588 397Q593 397 596 397T601 395T604 391L559 160V159Q559 156 563 156H582Q588 156 588 140Q588 116 575 100H551Q549 100 547 95L528 2Q506 -3 484 -3Q478 -3 472 -3T461 -2T453 -1T447 1T445
3L464 96V97Q464 100 459 100H314Q307 104 311 123L569 388ZM396 156H470Q475 156 476 160L496 261Q496 267 495 267L493 266L394 164Q393 163 393 162Q393 156 396 156Z" />
<glyph unicode="&#xbd;" glyph-name="onehalf" horiz-adv-x="667" d="M569 616Q569 616 124 -13Q116 -14 102 -8T88 6Q88 10 90 12L533 644Q540 646 555 638T570 622Q570 617 569 616ZM506 332Q487 332 468 321T437 298T424 286Q419 286 416 295T413 310Q414 313
415 317L416 320Q431 341 467 365T545 390Q590 390 612 360T625 280Q614 223 557 166T436 68Q430 62 436 62H542Q552 62 560 64T574 72T584 82T593 96T602 110Q605 114 609 114Q624 114 627 109L579 -1L484 0Q370 -1 365 -1Q352 15 360 34Q525 181 543 274Q547
295 538 313T506 332ZM70 543Q67 544 63 550T60 563Q60 570 62 572Q222 648 225 648H226Q229 648 233 640T238 628Q217 582 209 543L168 331Q163 306 170 295Q174 289 190 285T214 281Q215 281 215 275T215 266Q211 254 209 252Q203 252 166 254T114 257T56 255T8
252Q6 254 9 267T14 281Q22 281 40 286T64 297Q78 314 81 330L120 529Q126 560 114 560Q107 560 70 543Z" />
<glyph unicode="&#xbe;" glyph-name="threequarters" horiz-adv-x="628" d="M584 616Q584 616 139 -13Q131 -14 117 -8T103 6Q103 10 105 12L548 644Q555 646 570 638T585 622Q585 617 584 616ZM204 645Q230 645 252 627T267 574Q260 541 233 513T180 472Q208
472 238 450T259 382Q246 317 191 282T74 246Q28 246 10 266Q8 272 10 284Q12 297 24 306T48 315T72 299T100 282Q128 282 148 303T177 365T170 423T118 440H97Q94 450 95 456Q95 462 100 470Q174 487 187 554Q190 574 182 585T161 596Q143 596 120 578T95 559Q89
559 83 567T80 580Q100 605 136 625T204 645ZM481 -3Q475 -3 469 -3T458 -2T450 -1T444 1T442 3L460 97Q460 100 455 100H310Q303 104 307 123L565 388Q575 398 586 398Q593 398 597 397T600 391L555 158Q554 156 555 156T560 154H578Q583 151 582 140T577 104L570
98H547Q544 98 542 93L525 2Q503 -3 481 -3ZM493 267L490 266L391 164Q390 163 390 162Q390 156 393 156H466Q473 159 473 160L492 261Q492 267 493 267Z" />
<glyph unicode="&#xbf;" glyph-name="questiondown" horiz-adv-x="346" d="M332 388Q332 353 306 327T249 300Q224 300 208 316T192 358Q192 393 217 421T274 450Q297 450 314 433T332 388ZM159 224Q159 236 172 244Q196 244 242 210T288 139Q288 98 267 73T220
35L119 -10Q67 -33 67 -76Q67 -128 116 -128Q131 -128 153 -106T191 -83Q224 -83 235 -112T234 -170Q204 -207 151 -207Q86 -207 38 -166T-10 -61Q-10 -20 12 19T66 76Q111 101 169 127Q208 143 208 168Q208 185 184 203T159 224Z" />
<glyph unicode="&#xc0;" glyph-name="Agrave" horiz-adv-x="634" d="M466 971Q446 971 357 1002T267 1051Q267 1071 290 1080T337 1089Q355 1089 369 1081Q390 1069 417 1048T462 1010T480 990Q480 985 476 978T466 971ZM303 213Q251 213 218 212Q215 212 209
210T201 207L156 131Q123 82 123 65T148 39T188 30Q190 30 190 26Q190 6 185 -4Q173 -3 141 0T85 3Q60 3 21 0T-33 -4Q-34 -2 -34 4Q-34 30 -29 30Q-19 30 14 44T56 71Q65 84 95 134L367 586Q368 588 377 603T391 625T404 644T420 661T433 667Q442 667 445 659L550
141Q554 115 564 66Q567 50 590 40T624 30Q626 30 626 25Q626 5 619 -4Q616 -4 569 -1T497 3Q478 3 359 -4Q358 -3 358 3Q358 30 366 30T392 38T417 55Q422 62 422 69Q422 78 400 207Q400 211 394 211Q358 213 303 213ZM315 273Q353 273 382 275Q386 275 386 280L354
458L246 280Q245 279 245 278T247 276Q274 273 315 273Z" />
<glyph unicode="&#xc1;" glyph-name="Aacute" horiz-adv-x="634" d="M427 715Q422 715 418 722T413 734Q413 737 431 754T476 792T524 825Q538 833 556 833Q580 833 603 824T626 795Q626 777 537 746T427 715ZM303 213Q251 213 218 212Q215 212 209 210T201 207L156
131Q123 82 123 65T148 39T188 30Q190 30 190 26Q190 6 185 -4Q173 -3 141 0T85 3Q60 3 21 0T-33 -4Q-34 -2 -34 4Q-34 30 -29 30Q-19 30 14 44T56 71Q65 84 95 134L367 586Q368 588 377 603T391 625T404 644T420 661T433 667Q442 667 445 659L550 141Q554 115
564 66Q567 50 590 40T624 30Q626 30 626 25Q626 5 619 -4Q616 -4 569 -1T497 3Q478 3 359 -4Q358 -3 358 3Q358 30 366 30T392 38T417 55Q422 62 422 69Q422 78 400 207Q400 211 394 211Q358 213 303 213ZM315 273Q353 273 382 275Q386 275 386 280L354 458L246
280Q245 279 245 278T247 276Q274 273 315 273Z" />
<glyph unicode="&#xc2;" glyph-name="Acircumflex" horiz-adv-x="634" d="M585 728Q577 728 537 750T473 790Q442 773 392 751T334 728Q322 728 327 747Q359 766 419 812Q454 840 474 860Q484 869 490 869Q494 869 503 860Q506 856 516 842T536 816Q576 768 600
747Q595 728 585 728ZM303 213Q251 213 218 212Q215 212 209 210T201 207L156 131Q123 82 123 65T148 39T188 30Q190 30 190 26Q190 6 185 -4Q173 -3 141 0T85 3Q60 3 21 0T-33 -4Q-34 -2 -34 4Q-34 30 -29 30Q-19 30 14 44T56 71Q65 84 95 134L367 586Q368 588
377 603T391 625T404 644T420 661T433 667Q442 667 445 659L550 141Q554 115 564 66Q567 50 590 40T624 30Q626 30 626 25Q626 5 619 -4Q616 -4 569 -1T497 3Q478 3 359 -4Q358 -3 358 3Q358 30 366 30T392 38T417 55Q422 62 422 69Q422 78 400 207Q400 211 394
211Q358 213 303 213ZM315 273Q353 273 382 275Q386 275 386 280L354 458L246 280Q245 279 245 278T247 276Q274 273 315 273Z" />
<glyph unicode="&#xc3;" glyph-name="Atilde" horiz-adv-x="634" d="M535 739Q528 739 532 761Q537 787 558 811Q603 862 650 862Q686 862 733 828T815 794Q833 794 860 822T893 851Q901 851 897 829Q892 804 870 778Q828 728 780 728Q744 728 698 762T615 796Q598
796 569 768T535 739ZM303 213Q251 213 218 212Q215 212 209 210T201 207L156 131Q123 82 123 65T148 39T188 30Q190 30 190 26Q190 6 185 -4Q173 -3 141 0T85 3Q60 3 21 0T-33 -4Q-34 -2 -34 4Q-34 30 -29 30Q-19 30 14 44T56 71Q65 84 95 134L367 586Q368 588
377 603T391 625T404 644T420 661T433 667Q442 667 445 659L550 141Q554 115 564 66Q567 50 590 40T624 30Q626 30 626 25Q626 5 619 -4Q616 -4 569 -1T497 3Q478 3 359 -4Q358 -3 358 3Q358 30 366 30T392 38T417 55Q422 62 422 69Q422 78 400 207Q400 211 394
211Q358 213 303 213ZM315 273Q353 273 382 275Q386 275 386 280L354 458L246 280Q245 279 245 278T247 276Q274 273 315 273Z" />
<glyph unicode="&#xc4;" glyph-name="Adieresis" horiz-adv-x="634" d="M491 771T497 802T527 854T580 876Q609 876 625 855T635 802T605 750T552 728Q523 728 507 749ZM277 771T283 802T313 854T366 876Q395 876 411 855T421 802T391 750T338 728Q309 728 293
749ZM303 213Q251 213 218 212Q215 212 209 210T201 207L156 131Q123 82 123 65T148 39T188 30Q190 30 190 26Q190 6 185 -4Q173 -3 141 0T85 3Q60 3 21 0T-33 -4Q-34 -2 -34 4Q-34 30 -29 30Q-19 30 14 44T56 71Q65 84 95 134L367 586Q368 588 377 603T391 625T404
644T420 661T433 667Q442 667 445 659L550 141Q554 115 564 66Q567 50 590 40T624 30Q626 30 626 25Q626 5 619 -4Q616 -4 569 -1T497 3Q478 3 359 -4Q358 -3 358 3Q358 30 366 30T392 38T417 55Q422 62 422 69Q422 78 400 207Q400 211 394 211Q358 213 303 213ZM315
273Q353 273 382 275Q386 275 386 280L354 458L246 280Q245 279 245 278T247 276Q274 273 315 273Z" />
<glyph unicode="&#xc5;" glyph-name="Aring" horiz-adv-x="634" d="M408 782T403 759T409 721T442 705T480 720T502 759T496 797T463 813T425 798ZM360 759Q367 799 400 828T471 857T530 828T544 759T504 690T433 660Q396 660 374 689T360 759ZM303 213Q251 213
218 212Q215 212 209 210T201 207L156 131Q123 82 123 65T148 39T188 30Q190 30 190 26Q190 6 185 -4Q173 -3 141 0T85 3Q60 3 21 0T-33 -4Q-34 -2 -34 4Q-34 30 -29 30Q-19 30 14 44T56 71Q65 84 95 134L367 586Q368 588 377 603T391 625T404 644T420 661T433
667Q442 667 445 659L550 141Q554 115 564 66Q567 50 590 40T624 30Q626 30 626 25Q626 5 619 -4Q616 -4 569 -1T497 3Q478 3 359 -4Q358 -3 358 3Q358 30 366 30T392 38T417 55Q422 62 422 69Q422 78 400 207Q400 211 394 211Q358 213 303 213ZM315 273Q353 273
382 275Q386 275 386 280L354 458L246 280Q245 279 245 278T247 276Q274 273 315 273Z" />
<glyph unicode="&#xc6;" glyph-name="AE" horiz-adv-x="931" d="M591 657Q632 657 747 660T915 664Q911 576 911 516Q906 511 889 511Q878 511 877 518Q871 560 838 585T765 610H714Q655 610 652 597Q643 570 639 519L623 368V367Q623 359 663 359H712Q756 359
765 365Q778 374 794 421Q797 428 810 428Q826 428 829 423L810 234Q806 230 790 230Q778 230 776 238Q774 252 772 262T769 277T766 286T763 291T760 294T756 296Q745 304 684 304Q617 304 616 295L600 141Q595 94 600 70Q603 54 662 54H687Q748 54 802 82Q818
90 839 114T875 170Q878 176 889 176Q912 176 916 170Q849 20 842 -2Q790 -2 678 0T525 2L394 -4Q391 3 392 13Q394 32 398 32Q408 32 428 39T451 55Q455 68 463 134Q466 157 469 207Q470 211 463 211Q429 213 378 213Q317 213 284 212Q280 212 275 207L207 131Q203
126 194 116T179 99T168 85T159 71T156 60Q156 47 169 42Q200 30 221 30Q223 30 223 26Q223 16 215 -4Q207 -4 173 -1T115 2Q96 2 76 1T30 -1T-10 -4Q-11 -2 -11 8Q-11 13 -9 21T-5 29Q8 29 34 39T78 67L137 134L451 494Q522 574 527 598Q529 610 523 616T513 623T501
624T494 634Q494 640 496 650T500 660L510 659Q521 658 542 658T591 657ZM503 469L338 280Q337 279 337 278T337 276Q362 273 407 273Q446 273 476 275Q479 275 481 280L503 469Z" />
<glyph unicode="&#xc7;" glyph-name="Ccedilla" horiz-adv-x="587" d="M471 -32Q484 -31 491 -31Q515 -31 529 -49T539 -91Q531 -133 498 -158T415 -183Q380 -183 366 -164Q366 -154 368 -144Q372 -128 378 -128Q379 -128 397 -136T430 -145Q473 -145 479 -111Q485
-78 459 -78Q442 -78 425 -85Q423 -85 418 -77T414 -66Q422 -56 437 -32T457 -1H491L471 -32ZM391 667Q493 667 598 638Q598 626 594 562T588 490Q586 483 578 479T560 475Q558 475 546 478Q545 492 541 507T526 541T498 575T452 600T385 611Q321 611 268 561T186
428T156 247Q156 157 193 102T305 47Q347 47 388 57T452 83Q469 95 484 116T506 153T515 168Q541 168 544 155Q541 141 527 96T504 44Q447 -7 298 -7Q167 -7 89 68T11 259Q11 341 45 418T134 548T257 634T391 667Z" />
<glyph unicode="&#xc8;" glyph-name="Egrave" horiz-adv-x="542" d="M450 971Q430 971 341 1002T251 1051Q251 1071 274 1080T321 1089Q339 1089 353 1081Q374 1069 401 1048T446 1010T464 990Q464 985 460 978T450 971ZM107 2Q73 2 36 -1T-12 -4Q-14 -2 -14 5Q-14
11 -13 17T-9 26T-6 30Q4 30 26 38T53 55Q65 76 78 143L151 521Q162 585 161 599Q160 607 140 617T110 628Q108 628 108 635Q108 655 115 662Q195 659 246 659Q299 659 396 661T547 664Q545 634 545 573V516Q540 511 523 511Q512 511 511 518Q500 556 468 583T399
610H364Q332 610 318 608T301 597Q289 564 281 519L251 365Q250 362 261 361T290 359H369Q391 359 399 367T427 421Q430 428 443 428Q459 428 462 423L426 234Q422 230 405 230Q394 230 392 238Q390 283 381 292Q369 304 306 304Q239 304 237 295L208 141Q200 101
200 82Q200 64 209 59T261 54H285Q343 54 395 80Q412 89 437 114T479 170Q482 176 493 176Q516 176 520 170Q516 162 498 129T472 79T453 38T436 -2Q383 -2 265 0T107 2Z" />
<glyph unicode="&#xc9;" glyph-name="Eacute" horiz-adv-x="542" d="M314 715Q309 715 305 722T300 734Q300 737 318 754T363 792T411 825Q425 833 443 833Q467 833 490 824T513 795Q513 777 424 746T314 715ZM107 2Q73 2 36 -1T-12 -4Q-14 -2 -14 5Q-14 11 -13
17T-9 26T-6 30Q4 30 26 38T53 55Q65 76 78 143L151 521Q162 585 161 599Q160 607 140 617T110 628Q108 628 108 635Q108 655 115 662Q195 659 246 659Q299 659 396 661T547 664Q545 634 545 573V516Q540 511 523 511Q512 511 511 518Q500 556 468 583T399 610H364Q332
610 318 608T301 597Q289 564 281 519L251 365Q250 362 261 361T290 359H369Q391 359 399 367T427 421Q430 428 443 428Q459 428 462 423L426 234Q422 230 405 230Q394 230 392 238Q390 283 381 292Q369 304 306 304Q239 304 237 295L208 141Q200 101 200 82Q200
64 209 59T261 54H285Q343 54 395 80Q412 89 437 114T479 170Q482 176 493 176Q516 176 520 170Q516 162 498 129T472 79T453 38T436 -2Q383 -2 265 0T107 2Z" />
<glyph unicode="&#xca;" glyph-name="Ecircumflex" horiz-adv-x="542" d="M483 728Q475 728 435 750T371 790Q340 773 290 751T232 728Q220 728 225 747Q257 766 317 812Q352 840 372 860Q382 869 388 869Q392 869 401 860Q404 856 414 842T434 816Q474 768 498
747Q493 728 483 728ZM107 2Q73 2 36 -1T-12 -4Q-14 -2 -14 5Q-14 11 -13 17T-9 26T-6 30Q4 30 26 38T53 55Q65 76 78 143L151 521Q162 585 161 599Q160 607 140 617T110 628Q108 628 108 635Q108 655 115 662Q195 659 246 659Q299 659 396 661T547 664Q545 634
545 573V516Q540 511 523 511Q512 511 511 518Q500 556 468 583T399 610H364Q332 610 318 608T301 597Q289 564 281 519L251 365Q250 362 261 361T290 359H369Q391 359 399 367T427 421Q430 428 443 428Q459 428 462 423L426 234Q422 230 405 230Q394 230 392 238Q390
283 381 292Q369 304 306 304Q239 304 237 295L208 141Q200 101 200 82Q200 64 209 59T261 54H285Q343 54 395 80Q412 89 437 114T479 170Q482 176 493 176Q516 176 520 170Q516 162 498 129T472 79T453 38T436 -2Q383 -2 265 0T107 2Z" />
<glyph unicode="&#xcb;" glyph-name="Edieresis" horiz-adv-x="542" d="M660 771T666 802T696 854T749 876Q778 876 794 855T804 802T774 750T721 728Q692 728 676 749ZM446 771T452 802T482 854T535 876Q564 876 580 855T590 802T560 750T507 728Q478 728 462
749ZM107 2Q73 2 36 -1T-12 -4Q-14 -2 -14 5Q-14 11 -13 17T-9 26T-6 30Q4 30 26 38T53 55Q65 76 78 143L151 521Q162 585 161 599Q160 607 140 617T110 628Q108 628 108 635Q108 655 115 662Q195 659 246 659Q299 659 396 661T547 664Q545 634 545 573V516Q540
511 523 511Q512 511 511 518Q500 556 468 583T399 610H364Q332 610 318 608T301 597Q289 564 281 519L251 365Q250 362 261 361T290 359H369Q391 359 399 367T427 421Q430 428 443 428Q459 428 462 423L426 234Q422 230 405 230Q394 230 392 238Q390 283 381 292Q369
304 306 304Q239 304 237 295L208 141Q200 101 200 82Q200 64 209 59T261 54H285Q343 54 395 80Q412 89 437 114T479 170Q482 176 493 176Q516 176 520 170Q516 162 498 129T472 79T453 38T436 -2Q383 -2 265 0T107 2Z" />
<glyph unicode="&#xcc;" glyph-name="Igrave" horiz-adv-x="360" d="M574 971Q554 971 465 1002T375 1051Q375 1071 398 1080T445 1089Q463 1089 477 1081Q498 1069 525 1048T570 1010T588 990Q588 985 584 978T574 971ZM280 519L207 139Q197 87 197 59Q197 49
216 40T245 30Q247 30 247 25Q247 6 240 -4Q236 -4 190 -1T120 3Q95 3 46 0T-13 -4Q-14 -3 -14 2Q-14 9 -12 19T-8 30Q3 30 24 36T51 52Q67 78 76 135L151 523Q160 571 160 596Q160 611 142 619T112 628Q111 628 111 632Q111 656 117 662Q131 661 155 660T200 657T239
656Q257 656 371 662V657Q371 649 369 639T363 628Q355 628 332 620T304 604Q298 594 290 562T280 519Z" />
<glyph unicode="&#xcd;" glyph-name="Iacute" horiz-adv-x="360" d="M191 971Q186 971 182 978T177 990Q177 993 195 1010T240 1048T288 1081Q302 1089 320 1089Q344 1089 367 1080T390 1051Q390 1033 301 1002T191 971ZM280 519L207 139Q197 87 197 59Q197 49
216 40T245 30Q247 30 247 25Q247 6 240 -4Q236 -4 190 -1T120 3Q95 3 46 0T-13 -4Q-14 -3 -14 2Q-14 9 -12 19T-8 30Q3 30 24 36T51 52Q67 78 76 135L151 523Q160 571 160 596Q160 611 142 619T112 628Q111 628 111 632Q111 656 117 662Q131 661 155 660T200 657T239
656Q257 656 371 662V657Q371 649 369 639T363 628Q355 628 332 620T304 604Q298 594 290 562T280 519Z" />
<glyph unicode="&#xce;" glyph-name="Icircumflex" horiz-adv-x="360" d="M632 728Q624 728 584 750T520 790Q489 773 439 751T381 728Q369 728 374 747Q406 766 466 812Q501 840 521 860Q531 869 537 869Q541 869 550 860Q553 856 563 842T583 816Q623 768 647
747Q642 728 632 728ZM280 519L207 139Q197 87 197 59Q197 49 216 40T245 30Q247 30 247 25Q247 6 240 -4Q236 -4 190 -1T120 3Q95 3 46 0T-13 -4Q-14 -3 -14 2Q-14 9 -12 19T-8 30Q3 30 24 36T51 52Q67 78 76 135L151 523Q160 571 160 596Q160 611 142 619T112
628Q111 628 111 632Q111 656 117 662Q131 661 155 660T200 657T239 656Q257 656 371 662V657Q371 649 369 639T363 628Q355 628 332 620T304 604Q298 594 290 562T280 519Z" />
<glyph unicode="&#xcf;" glyph-name="Idieresis" horiz-adv-x="360" d="M559 771T565 802T595 854T648 876Q677 876 693 855T703 802T673 750T620 728Q591 728 575 749ZM345 771T351 802T381 854T434 876Q463 876 479 855T489 802T459 750T406 728Q377 728 361
749ZM280 519L207 139Q197 87 197 59Q197 49 216 40T245 30Q247 30 247 25Q247 6 240 -4Q236 -4 190 -1T120 3Q95 3 46 0T-13 -4Q-14 -3 -14 2Q-14 9 -12 19T-8 30Q3 30 24 36T51 52Q67 78 76 135L151 523Q160 571 160 596Q160 611 142 619T112 628Q111 628 111
632Q111 656 117 662Q131 661 155 660T200 657T239 656Q257 656 371 662V657Q371 649 369 639T363 628Q355 628 332 620T304 604Q298 594 290 562T280 519Z" />
<glyph unicode="&#xd0;" glyph-name="Eth" horiz-adv-x="689" d="M384 351Q391 351 390 344Q384 319 369 285Q368 282 366 281T362 279H361H239L212 136Q199 71 206 66Q223 53 309 53Q387 53 444 125T530 340Q551 450 520 526T409 603H405Q325 603 311 587Q294
568 287 524L253 351H384ZM123 351L156 521Q167 582 166 599Q165 607 146 617T117 628Q115 628 117 643Q119 659 124 664Q189 659 251 659H413Q476 659 525 641T605 592T655 519T676 431T671 336Q643 191 538 94T283 -3Q265 -3 212 -1T125 2L-7 -4Q-10 3 -8 13Q-3
32 0 32Q11 32 33 39T60 54Q71 80 81 135L109 279H52L49 289Q59 328 67 346Q68 349 70 350T74 351H75H123Z" />
<glyph unicode="&#xd1;" glyph-name="Ntilde" horiz-adv-x="675" d="M318 739Q311 739 315 761Q320 787 341 811Q386 862 433 862Q469 862 516 828T598 794Q616 794 643 822T676 851Q684 851 680 829Q675 804 653 778Q611 728 563 728Q527 728 481 762T398 796Q381
796 352 768T318 739ZM251 657Q305 657 344 662Q353 628 386 564T473 406T558 251Q560 257 568 292L612 524Q618 557 618 578T587 613T538 628Q536 628 536 635Q536 656 542 662Q647 657 672 657Q703 657 796 662Q796 628 788 628Q781 628 768 626T733 615T697
592Q681 576 670 519L596 139Q588 98 573 -1Q569 -5 549 -5Q538 -5 524 18L247 524L173 141Q165 101 165 86Q165 70 176 58T202 41T229 33T245 30Q247 30 247 25Q247 8 241 -4Q229 -3 203 -1T155 2T114 3Q89 3 45 0T-12 -4Q-14 0 -14 5T-13 16T-10 26T-8 30Q10
30 42 39T91 71Q104 88 114 144L190 537Q196 569 196 596Q196 611 168 619T123 628Q120 628 120 636Q120 657 127 662Q232 657 251 657Z" />
<glyph unicode="&#xd2;" glyph-name="Ograve" horiz-adv-x="626" d="M456 971Q436 971 347 1002T257 1051Q257 1071 280 1080T327 1089Q345 1089 359 1081Q380 1069 407 1048T452 1010T470 990Q470 985 466 978T456 971ZM359 611Q278 611 218 504T157 238Q157
199 163 166T182 105T220 62T278 46Q320 46 355 74T413 146T451 244T474 346T481 435Q481 611 359 611ZM383 667Q489 667 556 592T624 400Q624 322 592 247T509 115T389 25T252 -10Q146 -10 79 65T12 256Q12 334 44 410T127 542T246 632T383 667Z" />
<glyph unicode="&#xd3;" glyph-name="Oacute" horiz-adv-x="626" d="M377 715Q372 715 368 722T363 734Q363 737 381 754T426 792T474 825Q488 833 506 833Q530 833 553 824T576 795Q576 777 487 746T377 715ZM359 611Q278 611 218 504T157 238Q157 199 163 166T182
105T220 62T278 46Q320 46 355 74T413 146T451 244T474 346T481 435Q481 611 359 611ZM383 667Q489 667 556 592T624 400Q624 322 592 247T509 115T389 25T252 -10Q146 -10 79 65T12 256Q12 334 44 410T127 542T246 632T383 667Z" />
<glyph unicode="&#xd4;" glyph-name="Ocircumflex" horiz-adv-x="626" d="M520 728Q512 728 472 750T408 790Q377 773 327 751T269 728Q257 728 262 747Q294 766 354 812Q389 840 409 860Q419 869 425 869Q429 869 438 860Q441 856 451 842T471 816Q511 768 535
747Q530 728 520 728ZM359 611Q278 611 218 504T157 238Q157 199 163 166T182 105T220 62T278 46Q320 46 355 74T413 146T451 244T474 346T481 435Q481 611 359 611ZM383 667Q489 667 556 592T624 400Q624 322 592 247T509 115T389 25T252 -10Q146 -10 79 65T12
256Q12 334 44 410T127 542T246 632T383 667Z" />
<glyph unicode="&#xd5;" glyph-name="Otilde" horiz-adv-x="626" d="M485 739Q478 739 482 761Q487 787 508 811Q553 862 600 862Q636 862 683 828T765 794Q783 794 810 822T843 851Q851 851 847 829Q842 804 820 778Q778 728 730 728Q694 728 648 762T565 796Q548
796 519 768T485 739ZM359 611Q278 611 218 504T157 238Q157 199 163 166T182 105T220 62T278 46Q320 46 355 74T413 146T451 244T474 346T481 435Q481 611 359 611ZM383 667Q489 667 556 592T624 400Q624 322 592 247T509 115T389 25T252 -10Q146 -10 79 65T12
256Q12 334 44 410T127 542T246 632T383 667Z" />
<glyph unicode="&#xd6;" glyph-name="Odieresis" horiz-adv-x="626" d="M517 875Q542 875 558 857T575 813Q575 780 552 754T497 728Q472 728 456 746T439 791Q439 824 462 849T517 875ZM297 877Q322 877 338 859T355 814Q355 781 332 756T277 730Q252 730 236
748T219 792Q219 825 242 851T297 877ZM359 611Q278 611 218 504T157 238Q157 199 163 166T182 105T220 62T278 46Q320 46 355 74T413 146T451 244T474 346T481 435Q481 611 359 611ZM383 667Q489 667 556 592T624 400Q624 322 592 247T509 115T389 25T252 -10Q146
-10 79 65T12 256Q12 334 44 410T127 542T246 632T383 667Z" />
<glyph unicode="&#xd7;" glyph-name="multiply" horiz-adv-x="421" d="M44 54Q37 54 27 75T17 109L168 243Q170 245 170 246Q170 250 169 251L73 380Q73 390 93 414T120 438Q125 438 129 434L226 302Q228 300 230 300Q231 300 232 301L383 435Q386 438 389 438Q395
438 406 417T417 382L270 250Q268 248 268 247T269 245L364 112Q364 102 343 80T316 57T309 60L212 192Q210 194 209 194Q207 194 205 192L52 57Q49 54 44 54Z" />
<glyph unicode="&#xd8;" glyph-name="Oslash" horiz-adv-x="650" d="M374 611Q294 611 233 504T172 238Q172 188 182 149L469 560Q438 611 374 611ZM398 667Q466 667 521 634L545 669Q552 671 567 663T582 646Q582 642 581 640L557 606Q639 530 639 400Q639 296
586 201T446 48T267 -10Q200 -10 145 23L129 0Q121 -1 107 5T93 19Q93 24 95 26L111 49Q27 125 27 256Q27 360 80 456T220 609T398 667ZM293 46Q345 46 386 88T450 194T484 320T496 435Q496 478 489 510L200 101Q232 46 293 46Z" />
<glyph unicode="&#xd9;" glyph-name="Ugrave" horiz-adv-x="679" d="M603 971Q583 971 494 1002T404 1051Q404 1071 427 1080T474 1089Q492 1089 506 1081Q527 1069 554 1048T599 1010T617 990Q617 985 613 978T603 971ZM85 522Q96 590 93 600Q90 608 70 616T40
625Q37 625 40 642Q43 660 45 662Q171 656 179 656Q196 656 310 662V644Q307 625 302 625Q294 625 267 617T237 601Q224 572 214 516L168 279Q150 187 178 131T272 75Q304 75 332 85T388 119T437 184T470 286L516 524Q516 525 518 535T521 552T522 567T522 584T518
596Q511 607 487 616T451 625Q448 626 448 633T451 650T456 662Q540 654 577 654Q600 654 641 657T694 662Q696 654 694 644Q693 639 690 632T685 625Q677 625 667 624T636 614T602 592Q586 576 575 519L530 291Q502 145 421 70T234 -5Q179 -5 139 12T70 66T35
164T44 311L85 522Z" />
<glyph unicode="&#xda;" glyph-name="Uacute" horiz-adv-x="679" d="M268 971Q263 971 259 978T254 990Q254 993 272 1010T317 1048T365 1081Q379 1089 397 1089Q421 1089 444 1080T467 1051Q467 1033 378 1002T268 971ZM85 522Q96 590 93 600Q90 608 70 616T40
625Q37 625 40 642Q43 660 45 662Q171 656 179 656Q196 656 310 662V644Q307 625 302 625Q294 625 267 617T237 601Q224 572 214 516L168 279Q150 187 178 131T272 75Q304 75 332 85T388 119T437 184T470 286L516 524Q516 525 518 535T521 552T522 567T522 584T518
596Q511 607 487 616T451 625Q448 626 448 633T451 650T456 662Q540 654 577 654Q600 654 641 657T694 662Q696 654 694 644Q693 639 690 632T685 625Q677 625 667 624T636 614T602 592Q586 576 575 519L530 291Q502 145 421 70T234 -5Q179 -5 139 12T70 66T35
164T44 311L85 522Z" />
<glyph unicode="&#xdb;" glyph-name="Ucircumflex" horiz-adv-x="679" d="M682 728Q674 728 634 750T570 790Q539 773 489 751T431 728Q419 728 424 747Q456 766 516 812Q551 840 571 860Q581 869 587 869Q591 869 600 860Q603 856 613 842T633 816Q673 768 697
747Q692 728 682 728ZM85 522Q96 590 93 600Q90 608 70 616T40 625Q37 625 40 642Q43 660 45 662Q171 656 179 656Q196 656 310 662V644Q307 625 302 625Q294 625 267 617T237 601Q224 572 214 516L168 279Q150 187 178 131T272 75Q304 75 332 85T388 119T437 184T470
286L516 524Q516 525 518 535T521 552T522 567T522 584T518 596Q511 607 487 616T451 625Q448 626 448 633T451 650T456 662Q540 654 577 654Q600 654 641 657T694 662Q696 654 694 644Q693 639 690 632T685 625Q677 625 667 624T636 614T602 592Q586 576 575 519L530
291Q502 145 421 70T234 -5Q179 -5 139 12T70 66T35 164T44 311L85 522Z" />
<glyph unicode="&#xdc;" glyph-name="Udieresis" horiz-adv-x="679" d="M588 771T594 802T624 854T677 876Q706 876 722 855T732 802T702 750T649 728Q620 728 604 749ZM374 771T380 802T410 854T463 876Q492 876 508 855T518 802T488 750T435 728Q406 728 390
749ZM85 522Q96 590 93 600Q90 608 70 616T40 625Q37 625 40 642Q43 660 45 662Q171 656 179 656Q196 656 310 662V644Q307 625 302 625Q294 625 267 617T237 601Q224 572 214 516L168 279Q150 187 178 131T272 75Q304 75 332 85T388 119T437 184T470 286L516 524Q516
525 518 535T521 552T522 567T522 584T518 596Q511 607 487 616T451 625Q448 626 448 633T451 650T456 662Q540 654 577 654Q600 654 641 657T694 662Q696 654 694 644Q693 639 690 632T685 625Q677 625 667 624T636 614T602 592Q586 576 575 519L530 291Q502 145
421 70T234 -5Q179 -5 139 12T70 66T35 164T44 311L85 522Z" />
<glyph unicode="&#xdd;" glyph-name="Yacute" horiz-adv-x="590" d="M183 971Q178 971 174 978T169 990Q169 993 187 1010T232 1048T280 1081Q294 1089 312 1089Q336 1089 359 1080T382 1051Q382 1033 293 1002T183 971ZM151 656Q170 656 284 662Q285 660 285
653Q285 644 282 635T277 625Q263 625 244 620T223 604Q221 594 226 582L289 403Q429 581 434 603Q436 613 422 619T379 625Q377 625 377 634Q377 655 385 662Q469 656 497 656Q522 656 603 662Q603 649 602 644Q599 626 595 626Q578 626 555 617T515 590Q485 556
392 437T297 304L266 145Q255 93 257 58Q257 51 279 42T309 33Q312 33 309 14Q306 -1 304 -4Q297 -4 249 0T176 4Q151 4 102 1T40 -4Q37 2 39 12Q42 33 46 33Q56 33 81 41T112 58Q123 85 135 139L168 309Q169 316 151 373T114 483L96 537Q77 597 60 610Q51 616
37 620T13 625Q11 625 11 634Q11 641 14 650T21 662Q26 662 74 659T151 656Z" />
<glyph unicode="&#xde;" glyph-name="Thorn" horiz-adv-x="537" d="M280 141Q262 141 241 143T214 145Q211 145 211 143Q209 139 209 138Q200 93 200 62V55Q201 48 220 39T247 30Q250 28 248 14T243 -4Q234 -4 190 0T121 4Q96 4 50 1T-10 -4Q-11 -3 -11 6Q-11
30 -5 30Q44 30 56 55Q69 83 78 135L154 525Q163 592 163 594Q163 601 162 603Q159 611 142 619T114 628Q111 629 112 636T116 653L119 662Q245 656 247 656Q259 656 373 662Q373 628 366 628Q358 628 334 620T306 604Q298 586 291 556T283 519Q283 514 285 514Q286
514 295 515T320 518T354 520Q429 520 477 475T525 363Q525 308 503 264T445 194T367 155T280 141ZM283 192Q324 192 353 249T383 371Q383 469 332 469Q273 469 265 430L226 228Q226 227 226 224T225 217Q225 192 283 192Z" />
<glyph unicode="&#xdf;" glyph-name="germandbls" horiz-adv-x="537" d="M428 696Q491 696 533 660T564 565Q559 537 549 517T522 482T496 461T465 442Q446 431 436 423T417 399T408 361Q408 313 467 271Q495 253 518 219T541 149Q541 95 496 44T388 -7Q335 -7
294 7T248 36Q248 46 249 57T254 87T269 118T298 130Q318 130 330 118T348 92T363 65T391 53Q403 53 412 61T424 81T429 102T430 118Q430 133 423 146T408 168T384 189T361 210Q345 226 336 236T319 265T310 305Q310 327 314 344T329 377T347 400T371 424T395 445Q441
489 453 549Q470 642 387 642Q370 642 356 632T332 608T315 569T303 525T292 475L204 21Q182 -92 122 -155T-33 -218Q-69 -218 -94 -206T-123 -179Q-124 -144 -111 -113T-64 -82Q-50 -82 -41 -94T-27 -122T-14 -150T8 -163Q23 -163 35 -150T57 -108T71 -59T84 1L154
362V365Q155 368 155 369Q155 372 151 372H92Q86 372 86 382Q86 393 105 411T144 430H161Q167 430 170 446Q190 547 269 621T428 696Z" />
<glyph unicode="&#xe0;" glyph-name="agrave" horiz-adv-x="462" d="M346 738Q329 738 258 778T187 844Q187 858 203 873T243 888Q251 888 256 885Q277 865 318 816T360 760Q360 755 355 747T346 738ZM323 449Q355 449 380 442T417 427L359 128Q357 122 357 105Q357
81 367 81Q381 81 406 102T440 134Q442 134 450 124T459 110Q448 83 388 38T285 -8Q262 -8 247 6T232 46Q232 53 232 59Q233 71 234 76Q187 -8 125 -8Q70 -8 39 33T8 140Q8 191 32 245T97 345T198 420T323 449ZM265 385Q235 385 209 355T166 281T140 196T131 124Q131
68 162 68Q194 68 226 137T274 288L292 378Q285 385 265 385Z" />
<glyph unicode="&#xe1;" glyph-name="aacute" horiz-adv-x="462" d="M265 738Q261 738 256 746T251 760Q251 767 292 816T355 885Q359 888 368 888Q391 888 407 873T424 844Q424 819 353 779T265 738ZM323 449Q355 449 380 442T417 427L359 128Q357 122 357 105Q357
81 367 81Q381 81 406 102T440 134Q442 134 450 124T459 110Q448 83 388 38T285 -8Q262 -8 247 6T232 46Q232 53 232 59Q233 71 234 76Q187 -8 125 -8Q70 -8 39 33T8 140Q8 191 32 245T97 345T198 420T323 449ZM265 385Q235 385 209 355T166 281T140 196T131 124Q131
68 162 68Q194 68 226 137T274 288L292 378Q285 385 265 385Z" />
<glyph unicode="&#xe2;" glyph-name="acircumflex" horiz-adv-x="462" d="M394 510Q387 510 356 537T307 584Q281 564 240 537T191 510Q183 510 188 533Q208 550 264 611Q286 636 311 668Q318 678 326 678Q330 678 335 668Q335 667 343 649T359 616Q389 558 407
533Q402 510 394 510ZM323 449Q355 449 380 442T417 427L359 128Q357 122 357 105Q357 81 367 81Q381 81 406 102T440 134Q442 134 450 124T459 110Q448 83 388 38T285 -8Q262 -8 247 6T232 46Q232 53 232 59Q233 71 234 76Q187 -8 125 -8Q70 -8 39 33T8 140Q8
191 32 245T97 345T198 420T323 449ZM265 385Q235 385 209 355T166 281T140 196T131 124Q131 68 162 68Q194 68 226 137T274 288L292 378Q285 385 265 385Z" />
<glyph unicode="&#xe3;" glyph-name="atilde" horiz-adv-x="462" d="M473 885T502 885T569 855T637 824Q652 824 676 848T701 873Q707 870 707 857Q707 840 673 803T608 766T540 796T472 826Q459 826 434 801T406 775Q401 775 401 794Q401 819 437 852ZM323 449Q355
449 380 442T417 427L359 128Q357 122 357 105Q357 81 367 81Q381 81 406 102T440 134Q442 134 450 124T459 110Q448 83 388 38T285 -8Q262 -8 247 6T232 46Q232 53 232 59Q233 71 234 76Q187 -8 125 -8Q70 -8 39 33T8 140Q8 191 32 245T97 345T198 420T323 449ZM265
385Q235 385 209 355T166 281T140 196T131 124Q131 68 162 68Q194 68 226 137T274 288L292 378Q285 385 265 385Z" />
<glyph unicode="&#xe4;" glyph-name="adieresis" horiz-adv-x="462" d="M672 657Q697 657 713 639T730 595Q730 562 707 536T652 510Q627 510 611 528T594 573Q594 606 617 631T672 657ZM452 659Q477 659 493 641T510 596Q510 563 487 538T432 512Q407 512 391
530T374 574Q374 607 397 633T452 659ZM323 449Q355 449 380 442T417 427L359 128Q357 122 357 105Q357 81 367 81Q381 81 406 102T440 134Q442 134 450 124T459 110Q448 83 388 38T285 -8Q262 -8 247 6T232 46Q232 53 232 59Q233 71 234 76Q187 -8 125 -8Q70 -8
39 33T8 140Q8 191 32 245T97 345T198 420T323 449ZM265 385Q235 385 209 355T166 281T140 196T131 124Q131 68 162 68Q194 68 226 137T274 288L292 378Q285 385 265 385Z" />
<glyph unicode="&#xe5;" glyph-name="aring" horiz-adv-x="462" d="M331 663Q305 663 288 642T270 596Q270 578 280 567T310 555Q336 555 353 576T371 622Q371 640 361 651T331 663ZM340 707Q373 707 393 685T414 628Q414 582 379 546T301 510Q268 510 248 532T227
589Q227 636 262 671T340 707ZM323 449Q355 449 380 442T417 427L359 128Q357 122 357 105Q357 81 367 81Q381 81 406 102T440 134Q442 134 450 124T459 110Q448 83 388 38T285 -8Q262 -8 247 6T232 46Q232 53 232 59Q233 71 234 76Q187 -8 125 -8Q70 -8 39 33T8
140Q8 191 32 245T97 345T198 420T323 449ZM265 385Q235 385 209 355T166 281T140 196T131 124Q131 68 162 68Q194 68 226 137T274 288L292 378Q285 385 265 385Z" />
<glyph unicode="&#xe6;" glyph-name="ae" horiz-adv-x="621" d="M495 449Q543 449 576 423T610 354Q610 305 562 268T462 215T378 200Q374 200 374 190Q374 120 398 89T453 58Q471 58 492 75T528 109T545 127Q548 126 554 114T561 98Q552 74 506 34T405 -7Q320
-7 278 61Q235 -8 146 -8Q88 -8 54 23T20 101Q20 134 36 158T80 195T136 217T198 232T249 245Q257 248 259 259L268 307Q271 325 271 342Q271 389 245 389Q223 389 201 366T172 306Q170 296 153 287T116 278Q73 278 73 317Q73 362 139 405T274 449Q338 449 366
406Q427 449 495 449ZM232 110L246 187Q242 186 226 183T204 178T185 172T166 162T153 150T142 132T139 108Q139 88 150 78T177 67Q196 67 212 79T232 110ZM472 394Q454 394 432 378T397 334Q379 296 379 257Q379 253 383 253Q432 253 464 285T496 356T472 394Z"
/>
<glyph unicode="&#xe7;" glyph-name="ccedilla" horiz-adv-x="371" d="M386 -1H422L400 -32Q413 -31 422 -31Q443 -31 456 -45T470 -81Q470 -93 464 -108T445 -141T406 -171T344 -183Q303 -183 290 -175Q285 -164 285 -150Q285 -140 292 -132T307 -124Q316 -124
331 -134T359 -145Q383 -145 396 -132T410 -103Q410 -78 389 -78Q372 -78 355 -85Q353 -85 347 -78T343 -67Q349 -58 364 -34T386 -1ZM252 449Q324 449 364 404Q371 383 371 371Q371 346 358 328T324 310Q307 310 296 323T281 352T266 381T241 394Q214 394 189
358T150 270T135 169Q135 68 199 68Q229 68 259 89T300 126Q302 126 310 116T319 102Q307 74 254 34T154 -6Q80 -6 45 37T9 156Q9 230 43 298T133 408T252 449Z" />
<glyph unicode="&#xe8;" glyph-name="egrave" horiz-adv-x="393" d="M549 738Q532 738 461 778T390 844Q390 858 406 873T446 888Q454 888 459 885Q480 865 521 816T563 760Q563 755 558 747T549 738ZM251 449Q303 449 341 424T379 356Q379 319 349 284T278 227T199
192T139 179Q135 179 135 169Q135 110 152 89T199 68Q229 68 259 89T300 126Q302 126 310 116T319 102Q307 74 254 34T154 -6Q82 -6 46 36T9 157Q9 229 42 297T132 407T251 449ZM241 395Q215 395 181 341T146 233Q146 229 150 229Q197 229 231 272T265 356Q265
395 241 395Z" />
<glyph unicode="&#xe9;" glyph-name="eacute" horiz-adv-x="393" d="M272 738Q268 738 263 746T258 760Q258 767 299 816T362 885Q366 888 375 888Q398 888 414 873T431 844Q431 819 360 779T272 738ZM251 449Q303 449 341 424T379 356Q379 319 349 284T278 227T199
192T139 179Q135 179 135 169Q135 110 152 89T199 68Q229 68 259 89T300 126Q302 126 310 116T319 102Q307 74 254 34T154 -6Q82 -6 46 36T9 157Q9 229 42 297T132 407T251 449ZM241 395Q215 395 181 341T146 233Q146 229 150 229Q197 229 231 272T265 356Q265
395 241 395Z" />
<glyph unicode="&#xea;" glyph-name="ecircumflex" horiz-adv-x="393" d="M352 510Q345 510 314 537T265 584Q239 564 198 537T149 510Q141 510 146 533Q166 550 222 611Q244 636 269 668Q276 678 284 678Q288 678 293 668Q293 667 301 649T317 616Q347 558 365
533Q360 510 352 510ZM251 449Q303 449 341 424T379 356Q379 319 349 284T278 227T199 192T139 179Q135 179 135 169Q135 110 152 89T199 68Q229 68 259 89T300 126Q302 126 310 116T319 102Q307 74 254 34T154 -6Q82 -6 46 36T9 157Q9 229 42 297T132 407T251
449ZM241 395Q215 395 181 341T146 233Q146 229 150 229Q197 229 231 272T265 356Q265 395 241 395Z" />
<glyph unicode="&#xeb;" glyph-name="edieresis" horiz-adv-x="393" d="M658 657Q683 657 699 639T716 595Q716 562 693 536T638 510Q613 510 597 528T580 573Q580 606 603 631T658 657ZM438 659Q463 659 479 641T496 596Q496 563 473 538T418 512Q393 512 377
530T360 574Q360 607 383 633T438 659ZM251 449Q303 449 341 424T379 356Q379 319 349 284T278 227T199 192T139 179Q135 179 135 169Q135 110 152 89T199 68Q229 68 259 89T300 126Q302 126 310 116T319 102Q307 74 254 34T154 -6Q82 -6 46 36T9 157Q9 229 42
297T132 407T251 449ZM241 395Q215 395 181 341T146 233Q146 229 150 229Q197 229 231 272T265 356Q265 395 241 395Z" />
<glyph unicode="&#xec;" glyph-name="igrave" horiz-adv-x="314" d="M475 738Q458 738 387 778T316 844Q316 858 332 873T372 888Q380 888 385 885Q406 865 447 816T489 760Q489 755 484 747T475 738ZM163 449Q193 449 215 427T238 353Q238 328 198 128Q196 122
196 112Q196 82 216 82Q223 82 235 96T257 124T267 139Q273 139 284 130T298 110Q283 73 244 32T152 -9Q119 -9 98 15T77 87Q77 94 82 124L117 312Q119 318 119 328Q119 358 99 358Q92 358 80 344T58 316T48 301Q42 301 31 310T17 330Q32 367 71 408T163 449Z"
/>
<glyph unicode="&#xed;" glyph-name="iacute" horiz-adv-x="314" d="M415 738Q411 738 406 746T401 760Q401 767 442 816T505 885Q509 888 518 888Q541 888 557 873T574 844Q574 819 503 779T415 738ZM163 449Q193 449 215 427T238 353Q238 328 198 128Q196 122
196 112Q196 82 216 82Q223 82 235 96T257 124T267 139Q273 139 284 130T298 110Q283 73 244 32T152 -9Q119 -9 98 15T77 87Q77 94 82 124L117 312Q119 318 119 328Q119 358 99 358Q92 358 80 344T58 316T48 301Q42 301 31 310T17 330Q32 367 71 408T163 449Z"
/>
<glyph unicode="&#xee;" glyph-name="icircumflex" horiz-adv-x="314" d="M535 510Q528 510 497 537T448 584Q422 564 381 537T332 510Q324 510 329 533Q349 550 405 611Q427 636 452 668Q459 678 467 678Q471 678 476 668Q476 667 484 649T500 616Q530 558 548
533Q543 510 535 510ZM163 449Q193 449 215 427T238 353Q238 328 198 128Q196 122 196 112Q196 82 216 82Q223 82 235 96T257 124T267 139Q273 139 284 130T298 110Q283 73 244 32T152 -9Q119 -9 98 15T77 87Q77 94 82 124L117 312Q119 318 119 328Q119 358 99
358Q92 358 80 344T58 316T48 301Q42 301 31 310T17 330Q32 367 71 408T163 449Z" />
<glyph unicode="&#xef;" glyph-name="idieresis" horiz-adv-x="314" d="M561 657Q586 657 602 639T619 595Q619 562 596 536T541 510Q516 510 500 528T483 573Q483 606 506 631T561 657ZM369 659Q394 659 410 641T427 596Q427 563 404 538T349 512Q324 512 308
530T291 574Q291 607 314 633T369 659ZM163 449Q193 449 215 427T238 353Q238 328 198 128Q196 122 196 112Q196 82 216 82Q223 82 235 96T257 124T267 139Q273 139 284 130T298 110Q283 73 244 32T152 -9Q119 -9 98 15T77 87Q77 94 82 124L117 312Q119 318 119
328Q119 358 99 358Q92 358 80 344T58 316T48 301Q42 301 31 310T17 330Q32 367 71 408T163 449Z" />
<glyph unicode="&#xf0;" glyph-name="eth" horiz-adv-x="431" d="M257 342Q210 342 174 274T138 106Q138 50 177 50Q246 50 276 207Q291 288 291 312Q291 327 281 334T257 342ZM235 399Q266 399 289 387L291 386Q296 386 296 409Q296 490 238 569L146 466Q137
466 125 477T112 495Q112 499 114 501L207 605Q174 638 137 658Q137 669 144 681T161 695Q207 670 241 644L334 750Q335 751 343 746T359 734T367 722Q367 718 364 713L277 613Q414 485 414 309Q414 233 391 171T330 71T250 14T166 -6Q103 -6 62 42T20 161Q20 253
88 326T235 399Z" />
<glyph unicode="&#xf1;" glyph-name="ntilde" horiz-adv-x="513" d="M462 885T491 885T558 855T626 824Q641 824 665 848T690 873Q696 870 696 857Q696 840 662 803T597 766T529 796T461 826Q448 826 423 801T395 775Q390 775 390 794Q390 819 426 852ZM176 449Q199
449 214 435T229 392Q229 380 221 328Q221 326 221 324T219 315T218 306T217 302Q243 355 285 402T360 449Q404 449 425 418T446 340Q446 316 430 233L410 128Q408 122 408 105Q408 81 418 81Q432 81 457 102T491 134Q494 134 502 124T510 110Q499 83 439 38T336
-8Q314 -8 299 6T283 49Q283 78 293 123L316 242Q326 292 326 300Q326 321 320 331T297 341Q272 341 232 256T178 105L157 0Q137 -6 101 -6Q66 -6 42 0L102 313Q104 323 104 336Q104 360 94 360Q80 360 55 339T21 307Q19 307 11 317T2 331Q13 358 73 403T176 449Z"
/>
<glyph unicode="&#xf2;" glyph-name="ograve" horiz-adv-x="407" d="M553 738Q536 738 465 778T394 844Q394 858 410 873T450 888Q458 888 463 885Q484 865 525 816T567 760Q567 755 562 747T553 738ZM240 396Q211 396 186 350T146 237T133 110Q135 47 166 47Q197
47 223 97T261 212T273 332Q271 396 240 396ZM250 449Q327 449 362 405T397 287Q397 213 365 146T277 36T156 -6Q78 -6 44 38T9 156Q9 224 40 291T128 404T250 449Z" />
<glyph unicode="&#xf3;" glyph-name="oacute" horiz-adv-x="407" d="M231 738Q227 738 222 746T217 760Q217 767 258 816T321 885Q325 888 334 888Q357 888 373 873T390 844Q390 819 319 779T231 738ZM240 396Q211 396 186 350T146 237T133 110Q135 47 166 47Q197
47 223 97T261 212T273 332Q271 396 240 396ZM250 449Q327 449 362 405T397 287Q397 213 365 146T277 36T156 -6Q78 -6 44 38T9 156Q9 224 40 291T128 404T250 449Z" />
<glyph unicode="&#xf4;" glyph-name="ocircumflex" horiz-adv-x="407" d="M372 510Q365 510 334 537T285 584Q259 564 218 537T169 510Q161 510 166 533Q186 550 242 611Q264 636 289 668Q296 678 304 678Q308 678 313 668Q313 667 321 649T337 616Q367 558 385
533Q380 510 372 510ZM240 396Q211 396 186 350T146 237T133 110Q135 47 166 47Q197 47 223 97T261 212T273 332Q271 396 240 396ZM250 449Q327 449 362 405T397 287Q397 213 365 146T277 36T156 -6Q78 -6 44 38T9 156Q9 224 40 291T128 404T250 449Z" />
<glyph unicode="&#xf5;" glyph-name="otilde" horiz-adv-x="407" d="M457 885T486 885T553 855T621 824Q636 824 660 848T685 873Q691 870 691 857Q691 840 657 803T592 766T524 796T456 826Q443 826 418 801T390 775Q385 775 385 794Q385 819 421 852ZM240 396Q211
396 186 350T146 237T133 110Q135 47 166 47Q197 47 223 97T261 212T273 332Q271 396 240 396ZM250 449Q327 449 362 405T397 287Q397 213 365 146T277 36T156 -6Q78 -6 44 38T9 156Q9 224 40 291T128 404T250 449Z" />
<glyph unicode="&#xf6;" glyph-name="odieresis" horiz-adv-x="407" d="M654 657Q679 657 695 639T712 595Q712 562 689 536T634 510Q609 510 593 528T576 573Q576 606 599 631T654 657ZM434 659Q459 659 475 641T492 596Q492 563 469 538T414 512Q389 512 373
530T356 574Q356 607 379 633T434 659ZM240 396Q211 396 186 350T146 237T133 110Q135 47 166 47Q197 47 223 97T261 212T273 332Q271 396 240 396ZM250 449Q327 449 362 405T397 287Q397 213 365 146T277 36T156 -6Q78 -6 44 38T9 156Q9 224 40 291T128 404T250
449Z" />
<glyph unicode="&#xf7;" glyph-name="divide" horiz-adv-x="464" d="M273 498Q295 498 309 483T323 445Q323 417 303 395T256 372Q234 372 220 387T206 426Q206 454 226 476T273 498ZM201 126Q223 126 237 111T251 73Q251 45 231 23T184 0Q162 0 148 15T134 54Q134
82 154 104T201 126ZM30 285H455Q459 285 459 267Q459 239 433 213H8Q4 213 4 231Q4 259 30 285Z" />
<glyph unicode="&#xf8;" glyph-name="oslash" horiz-adv-x="439" d="M194 53Q236 53 269 126T302 287V297L156 90Q170 53 194 53ZM255 389Q216 389 181 315T146 155V152L290 358Q278 389 255 389ZM276 449Q311 449 342 431L354 449Q361 451 376 443T391 426Q391
422 390 421L377 402Q422 351 422 280Q422 164 351 79T173 -7Q132 -7 102 14L86 -8Q78 -9 64 -3T50 11Q50 16 52 18L70 43Q27 96 27 167Q27 281 98 365T276 449Z" />
<glyph unicode="&#xf9;" glyph-name="ugrave" horiz-adv-x="513" d="M540 738Q523 738 452 778T381 844Q381 858 397 873T437 888Q445 888 450 885Q471 865 512 816T554 760Q554 755 549 747T540 738ZM175 449Q198 449 213 435T228 392Q228 363 218 318L195 199Q194
195 192 182T187 158T185 141Q185 120 191 110T214 100Q239 100 279 185T333 336L354 441Q374 447 410 447Q445 447 469 441L409 128Q407 118 407 105Q407 81 417 81Q431 81 456 102T490 134Q493 134 501 124T509 110Q498 83 438 38T335 -8Q313 -8 298 6T282 49Q282
65 290 113Q290 115 290 117T292 126T293 135T294 139Q268 86 226 39T151 -8Q107 -8 86 23T65 101Q65 125 81 208L101 313Q103 319 103 336Q103 360 93 360Q79 360 54 339T20 307Q18 307 10 317T1 331Q12 358 72 403T175 449Z" />
<glyph unicode="&#xfa;" glyph-name="uacute" horiz-adv-x="513" d="M257 738Q253 738 248 746T243 760Q243 767 284 816T347 885Q351 888 360 888Q383 888 399 873T416 844Q416 819 345 779T257 738ZM175 449Q198 449 213 435T228 392Q228 363 218 318L195 199Q194
195 192 182T187 158T185 141Q185 120 191 110T214 100Q239 100 279 185T333 336L354 441Q374 447 410 447Q445 447 469 441L409 128Q407 118 407 105Q407 81 417 81Q431 81 456 102T490 134Q493 134 501 124T509 110Q498 83 438 38T335 -8Q313 -8 298 6T282 49Q282
65 290 113Q290 115 290 117T292 126T293 135T294 139Q268 86 226 39T151 -8Q107 -8 86 23T65 101Q65 125 81 208L101 313Q103 319 103 336Q103 360 93 360Q79 360 54 339T20 307Q18 307 10 317T1 331Q12 358 72 403T175 449Z" />
<glyph unicode="&#xfb;" glyph-name="ucircumflex" horiz-adv-x="513" d="M386 510Q379 510 348 537T299 584Q273 564 232 537T183 510Q175 510 180 533Q200 550 256 611Q278 636 303 668Q310 678 318 678Q322 678 327 668Q327 667 335 649T351 616Q381 558 399
533Q394 510 386 510ZM175 449Q198 449 213 435T228 392Q228 363 218 318L195 199Q194 195 192 182T187 158T185 141Q185 120 191 110T214 100Q239 100 279 185T333 336L354 441Q374 447 410 447Q445 447 469 441L409 128Q407 118 407 105Q407 81 417 81Q431 81
456 102T490 134Q493 134 501 124T509 110Q498 83 438 38T335 -8Q313 -8 298 6T282 49Q282 65 290 113Q290 115 290 117T292 126T293 135T294 139Q268 86 226 39T151 -8Q107 -8 86 23T65 101Q65 125 81 208L101 313Q103 319 103 336Q103 360 93 360Q79 360 54 339T20
307Q18 307 10 317T1 331Q12 358 72 403T175 449Z" />
<glyph unicode="&#xfc;" glyph-name="udieresis" horiz-adv-x="513" d="M667 657Q692 657 708 639T725 595Q725 562 702 536T647 510Q622 510 606 528T589 573Q589 606 612 631T667 657ZM447 659Q472 659 488 641T505 596Q505 563 482 538T427 512Q402 512 386
530T369 574Q369 607 392 633T447 659ZM175 449Q198 449 213 435T228 392Q228 363 218 318L195 199Q194 195 192 182T187 158T185 141Q185 120 191 110T214 100Q239 100 279 185T333 336L354 441Q374 447 410 447Q445 447 469 441L409 128Q407 118 407 105Q407
81 417 81Q431 81 456 102T490 134Q493 134 501 124T509 110Q498 83 438 38T335 -8Q313 -8 298 6T282 49Q282 65 290 113Q290 115 290 117T292 126T293 135T294 139Q268 86 226 39T151 -8Q107 -8 86 23T65 101Q65 125 81 208L101 313Q103 319 103 336Q103 360 93
360Q79 360 54 339T20 307Q18 307 10 317T1 331Q12 358 72 403T175 449Z" />
<glyph unicode="&#xfd;" glyph-name="yacute" horiz-adv-x="509" d="M299 738Q295 738 290 746T285 760Q285 767 326 816T389 885Q393 888 402 888Q425 888 441 873T458 844Q458 819 387 779T299 738ZM219 449Q231 449 242 439T262 411T279 370T293 320T305 265T314
209T321 157T326 113T329 81T331 66Q347 86 381 156T416 273Q416 300 404 334T380 389Q380 412 400 430T445 449Q468 449 484 433T501 394Q501 308 469 217T386 50T275 -87T154 -183T44 -218Q18 -218 1 -206T-16 -165Q-16 -140 2 -120Q46 -132 78 -132Q110 -132
134 -124T170 -106T193 -81Q214 -54 214 8Q214 65 200 154T161 332Q153 360 137 360Q123 360 98 339T64 307Q61 307 53 317T45 331Q56 358 116 403T219 449Z" />
<glyph unicode="&#xfe;" glyph-name="thorn" horiz-adv-x="450" d="M31 -85L151 532Q160 583 160 603Q160 621 119 621H111Q107 621 109 635Q109 638 111 645T117 652Q145 655 173 660T222 672T259 683T286 692L295 695H297Q304 695 304 676Q285 628 274 568Q240
395 238 386Q237 383 239 382T244 383Q258 396 287 411T339 427Q413 427 452 368T475 229Q455 123 382 60T217 -3Q206 -3 195 -1T176 4T168 7Q165 7 162 -9L150 -69Q138 -128 139 -160Q139 -167 157 -176T182 -185Q185 -186 183 -200T177 -219Q167 -218 126 -215T65
-211Q44 -211 2 -214T-51 -219L-45 -185Q-36 -185 -14 -176T11 -160Q26 -122 31 -85ZM218 282L185 113Q180 87 188 72Q197 52 233 52Q244 52 257 58T287 79T319 125T343 200Q374 355 292 355Q261 355 244 339T218 282Z" />
<glyph unicode="&#xff;" glyph-name="ydieresis" horiz-adv-x="509" d="M455 657Q480 657 496 639T513 595Q513 562 490 536T435 510Q410 510 394 528T377 573Q377 606 400 631T455 657ZM235 659Q260 659 276 641T293 596Q293 563 270 538T215 512Q190 512 174
530T157 574Q157 607 180 633T235 659ZM219 449Q231 449 242 439T262 411T279 370T293 320T305 265T314 209T321 157T326 113T329 81T331 66Q347 86 381 156T416 273Q416 300 404 334T380 389Q380 412 400 430T445 449Q468 449 484 433T501 394Q501 308 469 217T386
50T275 -87T154 -183T44 -218Q18 -218 1 -206T-16 -165Q-16 -140 2 -120Q46 -132 78 -132Q110 -132 134 -124T170 -106T193 -81Q214 -54 214 8Q214 65 200 154T161 332Q153 360 137 360Q123 360 98 339T64 307Q61 307 53 317T45 331Q56 358 116 403T219 449Z" />
<glyph unicode="&#x2013;" glyph-name="endash" horiz-adv-x="462" d="M470 268Q477 268 477 252Q477 237 469 218T455 194H69Q62 194 62 210Q62 225 70 244T84 268H470Z" />
<glyph unicode="&#x2014;" glyph-name="emdash" horiz-adv-x="824" d="M823 268Q830 268 830 252Q830 237 822 218T808 194H69Q62 194 62 210Q62 225 70 244T84 268H823Z" />
<glyph unicode="&#x2018;" glyph-name="quoteleft" horiz-adv-x="148" d="M122 555Q130 597 162 634T220 689T254 706Q260 706 271 697T283 680Q255 664 235 643T208 609T200 590Q198 577 213 555T225 518Q221 500 200 487T155 474Q134 474 123 485Q113 508 122 555Z" />
<glyph unicode="&#x2019;" glyph-name="quoteright" horiz-adv-x="153" d="M265 625Q257 583 225 546T167 491T134 474Q128 474 117 483T105 500Q133 516 153 537T180 571T188 590Q190 603 175 625T163 662Q167 680 188 693T233 706Q254 706 265 695Q275 674 265 625Z" />
<glyph unicode="&#x201a;" glyph-name="quotesinglbase" horiz-adv-x="148" d="M148 43Q140 1 108 -36T50 -91T16 -108Q10 -108 0 -99T-12 -82Q16 -66 36 -45T62 -12T70 8Q72 21 57 43T45 80Q49 98 70 111T115 124Q136 124 147 113Q157 90 148 43Z" />
<glyph unicode="&#x201c;" glyph-name="quotedblleft" horiz-adv-x="307" d="M260 555Q268 597 300 634T358 689T392 706Q398 706 408 697T420 680Q392 664 372 643T346 610T338 590Q336 577 351 555T363 518Q359 500 338 487T293 474Q271 474 260 485Q250 506
260 555ZM122 555Q130 597 162 634T220 689T254 706Q260 706 271 697T283 680Q255 664 235 643T208 609T200 590Q198 577 213 555T225 518Q221 500 200 487T155 474Q134 474 123 485Q113 508 122 555Z" />
<glyph unicode="&#x201d;" glyph-name="quotedblright" horiz-adv-x="307" d="M272 625Q264 583 232 546T174 491T140 474Q134 474 124 483T112 500Q140 516 160 537T186 570T194 590Q196 603 181 625T169 662Q173 680 194 693T239 706Q260 706 271 695Q281 672
272 625ZM409 625Q401 583 369 546T311 491T278 474Q272 474 261 483T249 500Q277 516 297 537T324 571T332 590Q334 603 319 625T307 662Q311 680 332 693T377 706Q398 706 409 695Q419 674 409 625Z" />
<glyph unicode="&#x201e;" glyph-name="quotedblbase" horiz-adv-x="297" d="M155 43Q147 1 115 -36T57 -91T23 -108Q17 -108 7 -99T-5 -82Q23 -66 43 -45T70 -11T78 8Q80 21 65 43T53 80Q57 98 78 111T122 124Q144 124 155 113Q165 92 155 43ZM293 43Q285 1 253
-36T195 -91T161 -108Q155 -108 145 -99T133 -82Q161 -66 181 -45T207 -12T215 8Q217 21 202 43T190 80Q194 98 215 111T260 124Q281 124 292 113Q302 90 293 43Z" />
<glyph unicode="&#x2022;" glyph-name="bullet" horiz-adv-x="377" d="M97 205T108 263T165 362T266 404T349 363T368 263T311 164T211 123T127 164Z" />
<glyph unicode="&#x2039;" glyph-name="guilsinglleft" horiz-adv-x="299" d="M183 248Q183 248 236 177Q292 105 290 98Q289 90 274 82T252 73Q250 76 237 91T184 146T91 227Q85 230 87 241Q90 258 100 268Q122 281 143 294T182 319T217 342T247 364T271 382T292
398T307 411T317 420L321 423Q327 422 338 414T349 398Q347 390 265 319L183 248Z" />
<glyph unicode="&#x203a;" glyph-name="guilsinglright" horiz-adv-x="299" d="M225 248Q225 248 171 319Q115 391 117 398Q118 406 133 414T155 423L162 414Q170 404 183 390T214 356T259 314T316 268Q322 259 318 241Q316 230 309 227Q240 184 185 146T110 92T88
73Q82 74 71 82T60 98Q62 106 144 177L225 248Z" />
</font>
</defs>
</svg>
