<?xml version="1.0" standalone="no"?>
<!DOCTYPE svg PUBLIC "-//W3C//DTD SVG 1.1//EN" "http://www.w3.org/Graphics/SVG/1.1/DTD/svg11.dtd">
<svg xmlns="http://www.w3.org/2000/svg">
<defs >
<font id="CrimsonText" horiz-adv-x="562" ><font-face
    font-family="Crimson Text"
    units-per-em="1024"
    panose-1="2 0 8 3 0 0 0 0 0 0"
    ascent="1106"
    descent="-739"
    alphabetic="0" />
<glyph unicode=" " glyph-name="space" horiz-adv-x="209" />
<glyph unicode="!" glyph-name="exclam" horiz-adv-x="193" d="M100 642Q125 642 143 624T162 574Q162 554 146 423T120 221Q115 190 87 190Q79 190 75 212Q66 270 50 405T34 575Q34 606 53 624T100 642ZM23 66Q23 97 44 118T95 139Q127 139 148 118T170 66T150
12T99 -11Q70 -11 47 11T23 66Z" />
<glyph unicode="&quot;" glyph-name="quotedbl" horiz-adv-x="323" d="M83 698H101Q116 698 123 686T131 633Q131 603 117 541T100 449Q98 434 80 434Q64 434 62 447Q57 494 43 555T28 635Q28 650 46 674T83 698ZM246 698H265Q279 698 286 686T294 633Q294 603
279 542T261 449Q260 442 254 438T241 434Q228 434 226 447Q221 494 207 555T192 635Q192 651 210 674T246 698Z" />
<glyph unicode="#" glyph-name="numbersign" horiz-adv-x="473" d="M307 24Q307 24 304 20Q298 15 277 15H254Q248 15 245 17T241 22V24L263 171H181L159 24Q159 22 159 21T151 18T128 15H105Q99 15 96 17T92 22L91 24L114 171H32Q26 171 26 181Q26 205 34 232Q35
235 36 236T40 237H41H123L135 311H32Q26 312 26 322Q26 346 34 373Q35 376 36 377T40 378H41H144L168 530Q168 539 225 539Q231 539 233 537T236 532L235 530L212 378H294L318 530Q318 539 375 539Q381 539 383 537T386 532L385 530L361 378H439Q440 378 441 378T444
377T446 371Q446 347 437 318L431 311H352L339 237H439Q440 237 441 237T444 236T446 230Q446 206 437 177Q436 174 435 173T432 171H431H331L307 24ZM273 237L285 311H203L190 237H273Z" />
<glyph unicode="$" glyph-name="dollar" horiz-adv-x="464" d="M267 668Q306 668 306 660L192 -40Q153 -40 153 -31L267 668ZM235 643Q268 643 299 638T357 626T388 618Q410 532 410 458Q403 448 380 448Q362 448 362 455Q362 465 350 494T307 556T236 589Q199
589 179 567T158 507Q158 450 277 374Q360 322 383 300Q438 247 438 171Q438 94 370 43T216 -9Q156 -9 47 16Q30 81 25 175Q24 185 42 185Q64 185 72 181Q76 164 87 143T115 99T160 61T220 46Q255 46 280 73T305 145Q305 176 277 204T197 266Q191 270 162 288T122
313T89 340T58 375T40 415T31 467Q31 542 95 592T235 643Z" />
<glyph unicode="%" glyph-name="percent" horiz-adv-x="660" d="M170 605Q118 605 118 510Q118 375 187 375Q215 375 228 402T241 466Q241 605 170 605ZM114 642T180 642T292 597T338 489T292 382T180 337T69 381T23 489T68 597ZM468 268Q439 268 427 240T415
174Q415 38 484 38Q512 38 525 65T538 130Q538 268 468 268ZM411 306T477 306T589 261T635 153T589 46T477 1T366 45T320 153T365 261ZM605 629L124 7Q115 -4 91 -4Q55 -4 52 10L533 632Q545 646 552 646Q584 646 605 629Z" />
<glyph unicode="&amp;" glyph-name="ampersand" horiz-adv-x="701" d="M339 101Q326 116 294 163T236 249L211 288Q165 255 165 163Q165 110 192 83T258 56Q305 56 339 101ZM289 603Q259 603 246 580T233 524Q233 512 236 498T246 470T258 447T272 424T282 407Q319
433 336 458T353 524Q353 552 337 577T289 603ZM216 655T292 656T414 623T460 533Q460 472 424 430T320 346Q360 282 431 191Q484 253 484 262Q484 272 475 276T452 280T438 280Q436 288 436 299T439 312L542 311Q586 311 653 314Q658 312 658 297Q658 278 650
276Q600 269 583 257Q577 253 556 228T510 173T474 131L479 125Q484 119 488 115T499 104T512 93T526 85T543 82Q563 82 581 99T609 134Q616 134 626 126T637 110Q629 87 589 42T503 -3Q470 -3 441 10T398 38L385 52Q321 -4 223 -4Q143 -4 84 37T25 162Q25 198
38 228T79 284T124 322T171 354Q168 358 159 373T146 396T135 419T123 446T116 471T113 500Q113 576 164 615Z" />
<glyph unicode="&apos;" glyph-name="quotesingle" horiz-adv-x="200" d="M104 698H123Q137 698 144 686T152 633Q152 603 137 542T119 449Q118 442 112 438T99 434Q86 434 84 447Q79 494 65 555T50 635Q50 651 68 674T104 698Z" />
<glyph unicode="(" glyph-name="parenleft" horiz-adv-x="309" d="M152 305Q152 152 200 33T285 -106Q287 -107 287 -111Q287 -118 284 -127T275 -137Q262 -137 234 -118T171 -59T103 32T49 156T27 305Q27 379 48 451T102 575T169 667T232 728T275 748Q280 748
283 738T287 721Q287 719 286 718Q239 685 196 566T152 305Z" />
<glyph unicode=")" glyph-name="parenright" horiz-adv-x="309" d="M157 305Q157 446 114 566T23 718Q22 719 22 721Q22 728 25 738T34 748Q54 748 93 714T176 623T250 481T282 305T251 130T177 -12T94 -102T34 -137Q29 -137 26 -128T22 -112Q22 -107 24 -106Q62
-88 109 34T157 305Z" />
<glyph unicode="*" glyph-name="asterisk" horiz-adv-x="416" d="M297 623Q310 635 328 635T356 623Q367 611 366 594T351 564Q337 551 302 532T253 499Q250 497 250 492L256 486Q273 478 312 471T369 454Q385 445 390 428T387 398Q379 384 363 380T330 384Q313
393 284 420T238 457Q233 460 229 458L224 451Q222 433 227 394T228 334Q224 317 210 307T181 300T157 318T150 349Q153 368 170 404T191 460Q192 464 190 467L181 468Q163 465 128 448T72 428Q54 426 40 436T24 463T33 492T62 507T119 504T179 502Q186 502 188
506L186 514Q177 530 150 559T114 606Q107 623 113 639T133 662Q148 668 163 662T186 640Q194 623 202 584T219 526Q221 520 225 520L232 526Q245 539 263 574T297 623Z" />
<glyph unicode="+" glyph-name="plus" horiz-adv-x="532" d="M301 207V23Q286 13 241 7Q239 7 238 7T235 6Q229 6 229 14V205Q229 210 223 210H32Q26 210 26 220Q26 250 34 277Q35 280 36 281T40 282H41H224Q229 282 229 288V470Q228 475 234 477Q261 485 291
485L301 479V287Q301 282 305 282H497Q505 282 505 275Q505 253 495 216Q494 213 493 212T490 210H488H305Q301 210 301 207Z" />
<glyph unicode="," glyph-name="comma" horiz-adv-x="219" d="M94 -31Q94 -18 75 4T56 62Q56 82 76 108T136 134Q161 134 176 123Q190 92 190 50Q190 29 176 -20Q158 -69 122 -110T48 -168H46Q40 -168 32 -155T24 -134Q24 -133 41 -123T76 -89T94 -31Z" />
<glyph unicode="-" glyph-name="hyphen" horiz-adv-x="325" d="M31 204Q31 226 33 241T38 262T43 267H44L285 279H286Q292 279 292 270Q292 248 289 232T282 210L279 204L38 193Q37 193 36 193T33 196T31 204Z" />
<glyph unicode="." glyph-name="period" horiz-adv-x="204" d="M176 66Q176 35 156 12T105 -11Q74 -11 52 12T29 66T50 117T103 139Q133 139 154 118T176 66Z" />
<glyph unicode="/" glyph-name="slash" horiz-adv-x="425" d="M404 755L108 -12Q106 -18 85 -26T40 -35Q33 -35 29 -34T23 -30L22 -28L318 739Q328 761 367 761Q392 761 404 755Z" />
<glyph unicode="0" glyph-name="zero" horiz-adv-x="515" d="M167 312Q167 197 194 123T261 49Q305 49 326 121T348 317Q348 436 325 505T261 575Q217 575 192 503T167 312ZM27 183T27 311T97 532T260 625Q351 625 419 533T488 311T420 90T260 -3Q168 -3 98 90Z" />
<glyph unicode="1" glyph-name="one" horiz-adv-x="346" d="M36 469Q30 472 26 480T21 493Q21 503 23 505Q74 538 129 572T216 624T251 643H253Q261 643 265 624Q256 595 256 530V129Q256 88 264 57Q266 50 289 42T321 33Q324 33 324 12Q324 0 322 -4Q311 -3 263
0T191 4T119 1T59 -4Q55 0 55 16T59 33Q70 33 94 42T120 59Q126 83 126 116V452Q126 502 106 502Q91 502 36 469Z" />
<glyph unicode="2" glyph-name="two" horiz-adv-x="475" d="M232 642Q306 642 355 596T405 470Q405 438 397 407T367 342T329 286T274 224T220 171T155 111Q153 109 154 106T159 102H330Q351 102 366 109T390 133T403 160T412 191Q414 198 429 198T452 192Q432
107 413 14Q411 0 401 0H35Q24 12 23 33Q119 139 192 258T265 451Q265 494 242 526T180 559Q155 559 134 549T102 527T82 502L72 488Q64 488 54 495T43 513Q51 531 64 549T99 591T156 628T232 642Z" />
<glyph unicode="3" glyph-name="three" horiz-adv-x="456" d="M254 642Q295 642 332 613T370 527Q370 479 342 438T285 378Q324 378 377 331T430 214Q430 115 344 56T153 -4Q89 -4 36 30Q30 46 30 59Q30 82 39 100T72 119Q101 119 128 83Q154 48 198 48Q245 48
270 84T295 188Q295 246 267 282T190 319Q167 319 135 314Q128 323 128 344Q128 352 131 359Q188 368 220 403T253 493Q253 534 235 553T192 572Q135 572 98 530Q91 530 83 540T75 557Q104 595 151 618T254 642Z" />
<glyph unicode="4" glyph-name="four" horiz-adv-x="492" d="M394 644Q412 644 412 634V244H453Q468 244 468 184Q468 181 466 179T462 175L459 174H412V4Q388 -5 346 -5Q288 -5 288 8V174H39Q24 189 24 222L367 630Q379 644 394 644ZM288 244V445Q288 454 285
454Q283 453 282 452L118 256Q117 255 117 253Q117 244 124 244H288Z" />
<glyph unicode="5" glyph-name="five" horiz-adv-x="448" d="M112 638Q344 638 366 643Q374 631 374 609Q374 555 363 535Q305 533 259 533T190 532T159 532Q147 531 146 523L127 412Q169 422 208 422Q285 422 353 367T421 235Q421 133 341 65T144 -3Q80 -3 27
31Q21 47 21 60Q21 83 30 101T63 120Q92 120 119 84Q145 49 189 49Q240 49 263 90T286 183Q286 248 253 288T174 328Q152 328 133 326T104 322T84 317L73 314Q62 320 56 328Q57 330 69 396T94 538T112 638Z" />
<glyph unicode="6" glyph-name="six" horiz-adv-x="460" d="M162 190Q162 46 238 46Q272 46 286 77T300 177Q300 245 280 280T213 315Q176 315 169 287Q163 264 162 190ZM237 -6Q154 -6 91 51T27 202Q27 282 59 354T147 482T264 577T394 645Q399 644 402 640T407
631T410 620T412 611Q328 575 267 512T183 376Q180 362 185 355Q214 367 242 367Q321 367 377 314T434 186Q434 110 375 52T237 -6Z" />
<glyph unicode="7" glyph-name="seven" horiz-adv-x="470" d="M145 536Q136 536 128 534T115 528T104 518T95 507T87 493T82 479T77 464T72 449Q70 444 52 443T27 447Q51 538 71 626Q74 638 90 638H385Q400 638 426 640L452 641Q459 641 459 632Q459 616 432 565L158
-10Q155 -11 151 -11Q137 -11 126 -1T115 23L369 536H145Z" />
<glyph unicode="8" glyph-name="eight" horiz-adv-x="464" d="M234 46Q266 46 286 71T306 134Q306 156 296 177T266 219T235 247T205 270Q198 276 191 276Q188 276 186 275Q158 260 158 159Q158 114 177 80T234 46ZM231 580Q173 580 173 494Q173 467 186 445T208
415T243 388Q248 384 256 384Q260 384 262 386Q294 417 294 483Q294 580 231 580ZM228 633Q306 633 365 595T424 489Q424 408 314 341Q312 340 312 338T314 334Q315 333 328 324T350 307T374 287T399 262T419 235T434 204T440 170Q440 92 376 43T226 -6T83 34T24
159Q24 253 141 315Q147 318 140 323Q137 325 124 336T105 352T88 370T70 392T57 417T46 449T43 486Q43 550 99 591T228 633Z" />
<glyph unicode="9" glyph-name="nine" horiz-adv-x="453" d="M295 449Q295 593 219 593Q185 593 171 562T157 462Q157 394 177 359T244 324Q281 324 288 352Q294 375 295 449ZM220 645Q303 645 366 588T430 437Q430 357 398 285T310 157T193 62T63 -6Q45 -2 45
28Q129 64 190 127T274 263Q277 277 272 284Q243 272 215 272Q136 272 80 325T23 453Q23 529 82 587T220 645Z" />
<glyph unicode=":" glyph-name="colon" horiz-adv-x="202" d="M175 359Q175 328 155 305T104 281Q73 281 51 304T28 359Q28 389 50 410T104 432Q134 432 154 411T175 359ZM175 67Q175 36 155 13T104 -11Q73 -11 51 12T28 67Q28 97 50 118T104 140Q134 140 154
119T175 67Z" />
<glyph unicode=";" glyph-name="semicolon" horiz-adv-x="215" d="M40 359Q40 389 62 410T116 432Q146 432 166 411T187 359Q187 328 167 305T116 281Q85 281 63 304T40 359ZM85 -18Q85 -3 70 16T54 62Q54 82 74 108T134 134Q163 134 174 126Q188 89 188 52Q188
37 183 9T175 -25Q158 -68 115 -113T46 -168H44Q38 -168 30 -155T22 -134Q22 -133 37 -120T69 -79T85 -18Z" />
<glyph unicode="&lt;" glyph-name="less" horiz-adv-x="464" d="M439 45Q439 37 433 11T423 -15Q422 -15 418 -13L43 177Q25 187 25 217Q25 232 43 241L416 428Q420 430 421 430Q427 430 438 373L435 364L117 209L436 51Q439 50 439 45Z" />
<glyph unicode="=" glyph-name="equal" horiz-adv-x="530" d="M499 176Q499 152 489 115Q488 112 487 111T484 109H483H38Q31 109 31 119Q31 145 40 176Q41 179 42 180T46 181H47H491Q499 181 499 176ZM31 261Q36 323 46 323H495Q499 323 499 318Q499 294 489
257Q488 254 487 253T484 251H483H38Q31 251 31 261Z" />
<glyph unicode="&gt;" glyph-name="greater" horiz-adv-x="467" d="M27 45Q27 45 30 51L349 209L31 364Q31 364 28 373Q39 430 45 430Q46 430 50 428L423 241Q441 232 441 217Q441 187 423 177L48 -13Q44 -15 43 -15Q39 -15 33 11T27 45Z" />
<glyph unicode="?" glyph-name="question" horiz-adv-x="350" d="M31 66Q31 97 52 118T103 139Q135 139 156 118T178 66T158 12T107 -11Q78 -11 55 11T31 66ZM96 522Q64 522 44 543T23 590Q23 620 32 633Q58 646 91 646Q179 642 253 597T327 469Q327 397 297 359T206
293Q194 288 178 282T154 271T141 263Q128 253 128 221Q128 208 118 199T95 190Q91 190 88 197T83 212Q82 227 79 268Q77 316 86 340T126 380Q194 414 217 434T241 486Q241 536 184 536Q167 536 143 529T96 522Z" />
<glyph unicode="@" glyph-name="at" horiz-adv-x="781" d="M691 214Q691 344 618 431T421 519Q284 519 193 437T102 223Q102 64 184 -31T444 -126Q479 -126 514 -113Q516 -121 516 -122Q516 -141 483 -156T389 -171Q311 -171 242 -138T127 -54T54 61T27 185Q27
365 143 471T432 577Q504 577 566 546T668 464T731 354T754 233Q754 164 737 114T692 37T634 -1T572 -13Q521 -13 487 12T452 69Q452 70 450 69T447 67Q435 41 396 17T310 -7Q257 -7 225 39T192 141Q192 247 270 328T476 410Q494 410 519 408T560 404L577 401Q572
368 570 348L549 143Q547 123 547 115Q545 34 584 34Q691 34 691 214ZM462 334Q462 346 456 352T430 359Q386 359 344 300T302 143Q302 92 310 73T338 53Q371 53 407 105T446 182L461 322Q462 328 462 334Z" />
<glyph unicode="A" glyph-name="A" horiz-adv-x="720" d="M423 33Q445 33 468 42T491 68Q491 70 466 135L436 208Q432 212 429 212Q410 213 333 213Q267 213 232 212Q228 212 225 207Q225 207 192 131Q172 86 172 70T190 45T221 35T245 33Q248 32 248 17T246 -4Q233
-3 194 0T129 4T69 1T15 -4Q11 0 11 11Q11 32 13 32Q25 32 53 42T88 64Q96 76 104 93T118 122L123 134L344 642Q355 668 381 668Q396 668 405 655L610 148Q629 102 643 66Q649 50 676 42T717 33Q721 33 721 16T719 -4Q715 -4 658 0T574 4Q567 4 423 -4Q419 0 419
16T423 33ZM259 276Q289 273 333 273Q373 273 404 275L407 280L335 459L257 280Q257 276 259 276Z" />
<glyph unicode="B" glyph-name="B" horiz-adv-x="605" d="M428 176Q428 315 305 315Q272 315 254 310Q243 306 243 301V76Q243 67 250 62Q260 55 325 55Q428 55 428 176ZM103 143V521Q103 576 97 599Q94 607 68 617T30 627Q26 627 26 645Q26 661 29 664Q109 659
176 659Q209 659 327 661Q364 661 402 652T475 622T533 566T555 483Q555 431 525 397T472 354Q464 351 467 348Q502 342 540 299T578 187Q578 101 508 50T324 0L177 2Q147 2 111 1T52 -2L31 -4Q27 0 27 13Q27 33 31 33Q43 33 68 40T97 55Q103 78 103 143ZM352 380Q367
388 375 395T392 424T402 482Q402 606 310 606Q266 606 252 602Q243 600 243 590V499V385Q243 371 295 371Q334 371 352 380Z" />
<glyph unicode="C" glyph-name="C" horiz-adv-x="638" d="M611 180Q611 166 596 102T570 34Q458 -7 345 -7Q213 -7 119 90T25 322Q25 464 119 565T355 667Q464 667 584 638Q589 637 596 571T604 490T577 475Q576 475 561 478Q556 496 545 516T511 559T449 596T360
611Q181 611 181 343Q181 218 236 133T392 47Q466 47 520 101Q533 114 543 136T559 174T566 190Q607 190 611 180Z" />
<glyph unicode="D" glyph-name="D" horiz-adv-x="724" d="M176 659Q176 659 350 659Q513 659 605 563T697 336Q697 192 604 95T349 -3Q330 -3 271 -1T177 2L31 -4Q27 0 27 13Q27 33 31 33Q43 33 68 40T97 55Q103 78 103 143V521Q103 576 97 599Q94 607 68 617T30
627Q26 627 26 645Q26 661 29 664Q109 659 176 659ZM243 524V136Q243 71 252 66Q274 53 365 53Q449 53 495 125T541 340Q541 450 493 526T358 603H353Q268 603 256 587Q243 569 243 524Z" />
<glyph unicode="E" glyph-name="E" horiz-adv-x="598" d="M176 659Q220 659 331 661T499 664Q500 654 528 516Q523 511 505 511Q494 511 491 518Q472 556 431 583T351 610H313Q250 610 248 597Q243 573 243 519V365Q243 359 286 359H339Q401 359 407 363Q412 367
415 392Q417 407 421 421Q422 428 436 428Q453 428 458 423V234Q454 230 437 230Q424 230 421 238Q417 252 414 262T409 277T405 286T401 291T397 293T393 296Q380 304 315 304Q243 304 243 295V141Q243 93 251 70Q256 54 319 54H345Q407 54 457 80Q474 89 495
114T529 170Q530 176 543 176Q567 176 573 170Q524 32 519 -2Q468 -2 357 0T177 2L31 -4Q27 0 27 13Q27 33 31 33Q43 33 68 40T97 55Q103 78 103 143V521Q103 576 97 599Q94 607 68 617T30 627Q26 627 26 645Q26 661 29 664Q109 659 176 659Z" />
<glyph unicode="F" glyph-name="F" horiz-adv-x="553" d="M176 659Q241 659 344 661T499 664Q500 654 528 516Q523 511 505 511Q494 511 491 518Q472 556 431 583T351 610H313Q250 610 248 597Q243 573 243 519V365Q243 359 286 359H339Q401 359 407 363Q412 367
415 392Q417 407 421 421Q422 428 436 428Q453 428 458 423V234Q454 230 437 230Q424 230 421 238Q417 252 414 262T409 277T405 286T401 291T397 293T393 296Q380 304 315 304Q243 304 243 295V141Q243 90 250 59Q253 47 283 40T328 33Q332 33 332 14Q332 2 330
-4Q210 2 177 2L31 -4Q27 0 27 13Q27 33 31 33Q43 33 68 40T97 55Q103 78 103 143V521Q103 576 97 599Q94 607 68 617T30 627Q26 627 26 645Q26 661 29 664Q119 659 176 659Z" />
<glyph unicode="G" glyph-name="G" horiz-adv-x="705" d="M25 322Q25 463 121 565T354 667Q463 667 583 638Q588 637 597 563T606 474Q606 466 588 466Q567 466 557 471Q552 490 541 510T508 555T447 595T359 611Q179 611 179 345Q179 270 198 206T267 94T391
47Q435 47 455 63Q466 72 466 93V156V163Q466 214 459 240Q451 267 393 267Q389 267 389 283T392 304Q410 303 439 302T493 299T541 298Q556 298 676 304Q679 295 679 284Q679 266 675 266Q652 266 622 251Q606 243 606 172V114Q606 96 609 87T612 76Q612 59 591
48Q554 29 534 21T461 2T343 -9Q211 -9 118 89T25 322Z" />
<glyph unicode="H" glyph-name="H" horiz-adv-x="727" d="M483 138V305Q483 305 481 309Q387 311 364 311Q240 310 240 308L242 306V142Q242 89 250 58Q252 51 277 42T312 33Q316 33 316 18T314 -4Q309 -4 253 0T170 4T95 1T30 -4Q26 0 26 13Q26 33 28 33Q40 33
66 41T95 57Q102 84 102 138V520Q102 581 95 598Q90 609 67 617T32 625Q28 625 28 645Q28 660 30 662Q168 656 169 656Q195 656 315 662Q318 657 318 641T314 625Q305 625 279 617T250 601Q242 580 242 516V374L244 371Q342 369 364 369Q391 369 481 371Q483 373
483 375V520Q483 572 476 599Q473 607 449 616T413 625Q409 625 409 641T412 662Q550 656 561 656Q576 656 696 662Q699 653 699 644Q699 625 694 625Q685 625 659 617T631 601Q623 571 623 516V142Q623 88 631 57Q633 50 658 42T693 34Q697 34 697 13Q697 5 694
-4Q685 -4 635 0T559 4Q532 4 478 1T410 -4Q406 0 406 16T411 33Q422 33 448 42T477 59Q483 82 483 138Z" />
<glyph unicode="I" glyph-name="I" horiz-adv-x="346" d="M102 522Q102 586 94 600Q89 608 66 616T32 625Q28 625 28 642Q28 660 30 662Q45 661 78 659T127 656T175 656Q195 656 315 662Q318 653 318 644Q318 625 314 625Q305 625 278 617T249 601Q246 589 244
568T242 531V516V146Q242 89 250 58Q252 51 277 42T312 33Q316 33 316 14Q316 2 314 -4Q307 -4 254 0T175 4Q148 4 96 1T30 -4Q26 0 26 12Q26 33 29 33Q40 33 66 41T95 58Q102 85 102 138V522Z" />
<glyph unicode="J" glyph-name="J" horiz-adv-x="493" d="M324 656Q344 656 464 662Q467 653 467 644Q467 625 463 625Q454 625 427 617T398 601Q391 574 391 516V143Q391 -27 312 -122T95 -218Q61 -218 38 -200Q23 -176 23 -148Q23 -123 42 -105T86 -87Q110 -87
137 -117T179 -148Q223 -148 237 -78T251 135V522Q251 586 243 600Q238 608 215 616T181 625Q177 625 177 642Q177 660 179 662Q317 656 324 656Z" />
<glyph unicode="K" glyph-name="K" horiz-adv-x="741" d="M175 656Q195 656 315 662Q318 653 318 644Q318 625 314 625Q305 625 278 617T249 601Q242 574 242 516V358Q242 354 244 352T248 350H249H256Q263 350 300 388Q386 476 482 586Q490 596 490 609Q490 619
468 623T430 627Q426 627 424 641T424 662Q535 656 558 656Q570 656 690 662Q692 658 692 643T688 627L682 626Q676 626 671 626T656 624T639 621T621 616T603 608T587 599T572 586L400 396Q387 381 399 367L636 58Q647 45 670 39T706 33Q710 33 710 14Q710 4 706
-4Q705 -4 643 0T555 4Q501 4 413 -4Q409 0 409 16T413 33Q424 33 442 39T460 53Q460 85 282 286Q279 289 268 289Q242 289 242 272V146Q242 89 250 58Q252 51 277 42T312 33Q316 33 316 14Q316 2 314 -4Q307 -4 254 0T175 4Q148 4 96 1T30 -4Q26 0 26 12Q26 33
29 33Q40 33 66 41T95 58Q102 85 102 138V522Q102 586 94 600Q89 608 66 616T32 625Q28 625 28 642Q28 660 30 662Q168 656 175 656Z" />
<glyph unicode="L" glyph-name="L" horiz-adv-x="598" d="M175 656Q195 656 315 662Q318 653 318 644Q318 625 314 625Q305 625 278 617T249 601Q242 574 242 521V142Q242 93 250 70Q255 54 318 54H344Q406 54 456 80Q473 89 494 114T528 170Q530 176 542 176Q566
176 572 170Q523 32 518 -2Q461 -2 340 0T176 2L30 -4Q26 0 26 13Q26 33 30 33Q42 33 67 40T96 55Q102 78 102 143V525Q102 586 94 600Q89 608 66 616T32 625Q28 625 28 642Q28 660 30 662Q168 656 175 656Z" />
<glyph unicode="M" glyph-name="M" horiz-adv-x="918" d="M190 656Q210 656 246 658T295 662Q305 630 377 474T484 230H486Q488 230 488 231Q565 422 610 546L643 658Q661 656 724 656Q730 656 850 662Q854 656 854 646Q854 625 849 625H848Q823 625 806 613Q791
602 792 572Q794 532 802 365T812 152Q815 91 827 60Q831 51 853 42T885 33Q889 33 889 13Q889 2 887 -4Q876 -3 831 0T760 4Q733 4 681 1T615 -4Q610 1 610 12Q610 33 613 33Q624 33 647 42T675 61Q683 76 683 89Q683 112 681 148L673 402Q669 469 665 469Q663
469 660 462L487 31Q483 21 471 10T447 -2Q444 -2 438 0L218 494L201 109Q201 80 202 73Q205 60 246 47T300 33Q304 33 304 13Q304 2 302 -4Q294 -4 242 0T164 4T92 1T30 -4Q26 0 26 13Q26 32 29 32Q47 32 87 47T130 83Q132 106 134 131Q137 183 141 284T148 480T152
587Q152 598 149 605Q146 613 117 619T75 626Q71 626 71 647Q71 658 75 662Q89 661 126 659T190 656Z" />
<glyph unicode="N" glyph-name="N" horiz-adv-x="777" d="M585 524Q585 581 572 596Q563 607 535 616T494 625Q490 625 489 641T491 662Q583 654 623 654Q648 654 691 657T747 662Q751 654 751 644Q751 625 746 625Q691 625 663 592Q649 575 649 519V139Q649 103
653 -1Q649 -5 628 -5Q616 -5 597 18L190 524V141Q190 86 198 70Q207 53 240 44T288 34Q291 34 291 17T290 -4Q281 -4 231 0T155 4T89 1T31 -4Q28 -1 28 14Q28 33 31 33Q41 33 54 35T87 46T116 71Q126 87 126 144V537Q126 589 111 608Q106 615 76 620T32 625Q28
625 27 641T30 662Q46 661 93 658T167 654Q201 654 265 662Q282 628 331 564T459 404T583 248Q585 255 585 289V524Z" />
<glyph unicode="O" glyph-name="O" horiz-adv-x="695" d="M331 611Q278 611 243 573T195 478T181 350Q181 299 190 250T219 153T276 76T362 46Q437 46 474 122T512 309Q512 364 504 413T476 509T420 583T331 611ZM25 188T25 328T119 567T346 667T573 568T668 328T573
89T346 -10T120 89Z" />
<glyph unicode="P" glyph-name="P" horiz-adv-x="572" d="M176 659Q205 659 239 660T304 662Q363 662 415 646T506 587T545 479Q545 398 483 339T331 280Q315 280 299 285T275 294T265 302Q261 308 260 324T264 340Q277 332 309 332Q393 332 393 468Q393 605 301
605Q266 605 255 597Q243 588 243 499V141Q243 90 250 59Q253 47 283 40T328 33Q332 33 332 14Q332 2 330 -4Q210 2 177 2L31 -4Q27 0 27 13Q27 33 31 33Q43 33 68 40T97 55Q103 78 103 143V521Q103 576 97 599Q94 607 68 617T30 627Q26 627 26 645Q26 661 29 664Q119
659 176 659Z" />
<glyph unicode="Q" glyph-name="Q" horiz-adv-x="775" d="M329 603Q251 603 215 532T179 350Q179 300 188 251T217 155T274 80T360 51Q435 51 472 124T510 309Q510 364 502 412T474 505T418 576T329 603ZM662 -74Q680 -74 697 -72T725 -67T738 -64Q750 -64 750
-84V-89Q707 -112 652 -127T553 -143Q505 -143 456 -115T354 -50T258 0Q222 11 184 37T109 103T49 202T25 328Q25 468 118 567T344 667T570 568T664 328Q664 200 591 110T440 5Q466 -7 499 -26T549 -53T595 -67T662 -74Z" />
<glyph unicode="R" glyph-name="R" horiz-adv-x="709" d="M301 605Q266 605 255 597T243 499V391Q243 376 246 367T257 354T270 349T285 348H312Q351 348 372 382T394 472Q394 605 301 605ZM316 660Q350 660 387 652T461 625T522 573T546 492Q546 425 507 375T423
310Q415 307 420 299Q442 262 457 238T494 184T529 135Q554 98 594 66T673 33Q677 28 677 15Q677 4 673 -5Q659 -7 638 -7Q589 -7 549 2T484 24T435 60T398 100T366 147Q356 163 340 188T315 227T294 258T276 282T263 292Q260 293 252 293Q243 293 243 277V141Q243
90 250 59Q253 47 283 40T328 33Q332 33 332 14Q332 2 330 -4Q210 2 177 2L31 -4Q27 0 27 13Q27 33 31 33Q43 33 68 40T97 55Q103 78 103 143V521Q103 576 97 599Q94 607 68 617T30 627Q26 627 26 645Q26 661 29 664Q121 659 176 659Q203 659 244 659T316 660Z"
/>
<glyph unicode="S" glyph-name="S" horiz-adv-x="483" d="M31 489Q31 564 97 617T244 670Q265 670 287 667T325 661T368 652T412 642Q423 545 423 476Q419 466 408 466Q379 466 377 473Q370 523 334 568T245 614Q211 614 188 593T164 526Q164 506 174 487T207
448T246 418T295 386Q304 380 309 377Q317 372 342 357T377 335T406 310T433 277T449 234T456 175Q456 95 390 43T238 -10Q159 -10 48 16Q40 48 33 103T25 182Q28 192 43 192Q74 192 75 186Q83 140 125 94T218 47Q317 47 317 156Q317 173 308 189T281 222T249 248T210
274T177 295Q172 298 162 305Q129 327 112 340T73 376T41 426T31 489Z" />
<glyph unicode="T" glyph-name="T" horiz-adv-x="665" d="M289 657T331 657T441 660T551 663Q576 663 620 674L639 510Q632 503 610 503Q601 503 600 508Q575 607 493 607Q412 607 408 589Q400 561 400 500V139Q400 89 408 58Q410 51 435 42T470 33Q474 33 474
14Q474 2 472 -4Q465 -4 412 0T333 4Q306 4 254 1T188 -4Q184 0 184 12Q184 33 187 33Q198 33 224 41T253 58Q260 85 260 135V497Q260 575 252 589Q249 595 247 597T225 603T170 607Q129 607 103 585T63 509Q62 504 53 504Q31 504 24 511L43 674Q87 663 112 663Q154
663 221 660Z" />
<glyph unicode="U" glyph-name="U" horiz-adv-x="753" d="M171 656Q191 656 311 662Q314 653 314 644Q314 625 310 625Q301 625 274 617T245 601Q238 574 238 516V279Q238 187 279 131T392 75Q466 75 513 123T561 286V524Q561 581 548 596Q539 607 511 616T470
625Q466 625 465 641T467 662Q559 654 599 654Q624 654 667 657T723 662Q727 654 727 644Q727 625 722 625Q667 625 639 592Q625 575 625 519V291Q625 145 554 70T368 -5Q246 -5 172 71T98 311V522Q98 586 90 600Q85 608 62 616T28 625Q24 625 24 642Q24 660 26
662Q164 656 171 656Z" />
<glyph unicode="V" glyph-name="V" horiz-adv-x="729" d="M162 654Q169 654 313 662Q317 658 317 642T313 625Q296 625 272 616T247 589Q247 580 270 523L404 193L545 522Q565 567 565 590Q565 605 545 615T494 625Q491 626 491 641T493 662Q507 661 544 658T607
654T668 657T723 662Q727 658 727 647Q727 626 725 626Q714 626 690 618T651 597Q643 590 613 524L397 27Q389 10 377 0T354 -10Q340 -10 331 3L126 510Q96 585 93 592Q87 608 61 616T20 625Q16 625 16 642T18 662Q23 662 79 658T162 654Z" />
<glyph unicode="W" glyph-name="W" horiz-adv-x="1094" d="M146 656Q162 656 282 662Q284 656 284 641T282 625Q236 625 236 591L248 560L432 195Q437 184 447 200L509 310L399 527Q368 588 356 600Q331 625 298 625Q294 625 294 644Q294 660 296 662Q434 656
435 656Q447 656 567 662Q569 656 569 641T567 625Q551 625 536 618T521 593L533 562L591 447L639 542Q659 583 659 594Q659 607 642 614T610 624T585 626Q581 626 581 642T584 662Q680 656 703 656Q708 656 828 662Q830 656 830 642T828 626Q813 626 789 617T755
596Q728 567 699 510L629 372L716 201Q721 191 729 205L900 544Q918 580 918 594Q918 611 892 618T847 626Q843 626 843 642T846 662Q942 656 965 656Q970 656 1090 662Q1093 654 1093 637Q1093 626 1090 626Q1075 626 1052 617T1019 598Q991 568 961 510L714 19Q698
-13 680 -13Q672 -13 669 -8L546 233L426 19Q408 -13 392 -13Q386 -13 383 -8L112 527Q85 580 66 604Q58 614 39 619T6 625Q2 625 2 644Q2 660 4 662Q142 656 146 656Z" />
<glyph unicode="X" glyph-name="X" horiz-adv-x="768" d="M212 656Q236 656 356 662Q358 658 358 642T354 625Q339 625 321 620T301 604Q301 594 309 582L420 414Q432 429 453 454T489 499T520 538T544 573T553 594Q553 606 530 615T479 625Q475 625 475 641T478
662Q589 656 602 656T735 662Q738 657 738 641T734 625Q720 625 691 616T645 586L458 356Q630 97 648 76Q667 54 693 44T733 33Q736 33 736 11Q736 2 733 -4Q613 2 587 2Q554 2 496 -1T429 -4Q425 0 426 16T431 33Q444 33 465 41T487 61Q487 67 484 72L354 269Q214
83 214 66Q214 51 238 42T288 33Q293 33 293 12Q293 0 291 -4Q192 2 159 2Q151 2 31 -4Q27 8 27 10Q27 33 31 33Q44 33 76 42T119 67L312 332L178 537Q136 602 124 610Q103 625 71 625Q67 625 67 641T71 662Q77 662 130 659T212 656Z" />
<glyph unicode="Y" glyph-name="Y" horiz-adv-x="669" d="M177 656Q200 656 320 662Q322 658 322 642T318 625Q303 625 285 620T265 604Q265 596 273 582L373 405Q378 400 383 407Q412 449 452 518T492 603Q492 625 428 625Q424 625 424 641T427 662Q517 656 548
656Q574 656 661 662Q664 653 664 644Q664 626 660 626Q642 626 619 617T582 590Q556 555 482 436T407 304V145Q407 89 415 58Q417 51 442 42T477 33Q481 33 481 14Q481 2 479 -4Q472 -4 419 0T340 4Q313 4 261 1T195 -4Q191 0 191 12Q191 33 194 33Q205 33 231
41T260 58Q267 85 267 139V309Q267 316 236 373T173 484L142 537Q109 598 88 610Q63 625 35 625Q31 625 31 641T35 662Q52 661 80 660T131 657T177 656Z" />
<glyph unicode="Z" glyph-name="Z" horiz-adv-x="635" d="M237 656H346Q438 656 578 666Q581 665 584 653T588 633L223 82Q216 72 216 67Q216 57 230 57H389Q459 57 503 90T565 174Q568 180 578 180Q602 180 609 174Q603 157 593 127T576 79T564 39T555 0H38Q30
9 30 26Q30 38 34 43L402 599H231Q195 599 172 592T133 567T113 538T96 497Q93 488 91 484Q89 478 78 478Q49 478 45 482Q69 609 75 662Q99 656 237 656Z" />
<glyph unicode="[" glyph-name="bracketleft" horiz-adv-x="310" d="M53 770Q164 770 282 793Q288 793 288 778Q288 757 278 752Q255 740 220 730T166 720Q157 720 157 711V-52Q157 -60 165 -60Q182 -60 217 -69T278 -92Q288 -97 288 -117Q288 -131 282 -133Q146
-110 53 -110Q34 -110 34 -87V747Q34 770 53 770Z" />
<glyph unicode="\" glyph-name="backslash" horiz-adv-x="413" d="M391 -6Q391 -24 380 -31T358 -39L334 -37L21 755Q28 761 42 761Q91 761 101 739L388 13Q391 7 391 -6Z" />
<glyph unicode="]" glyph-name="bracketright" horiz-adv-x="310" d="M21 -117Q21 -97 31 -92Q57 -79 92 -70T144 -60Q152 -60 152 -52V711Q152 720 143 720Q124 720 89 730T31 752Q21 757 21 778Q21 793 27 793Q145 770 256 770Q275 770 275 747V-87Q275 -110
256 -110Q163 -110 27 -133Q21 -131 21 -117Z" />
<glyph unicode="^" glyph-name="asciicircum" horiz-adv-x="388" d="M347 469Q334 469 288 505T207 582Q176 542 130 506T69 469Q65 469 62 476T57 492L56 499Q57 502 81 524T138 588T193 677Q194 679 195 682T196 687T198 689T203 690Q212 690 217 685T227 670T245
637T278 588Q288 575 308 554T343 518T360 500Q360 494 356 482T347 469Z" />
<glyph unicode="_" glyph-name="underscore" horiz-adv-x="529" d="M30 -33Q35 13 45 13H494Q498 13 498 8Q498 0 488 -37Q487 -40 486 -41T483 -43H482H37Q30 -43 30 -33Z" />
<glyph unicode="`" glyph-name="grave" horiz-adv-x="247" d="M42 658Q42 667 53 677T88 687Q113 687 122 678Q139 658 162 625T200 568T215 540Q215 535 209 529T198 522Q185 522 114 577T42 658Z" />
<glyph unicode="a" glyph-name="a" horiz-adv-x="486" d="M211 65Q237 65 251 77T266 108V209Q264 208 247 203T224 195T205 188T186 178T172 166T161 151T158 133Q158 97 173 81T211 65ZM251 449Q321 449 358 411T396 271V109Q396 75 420 75Q437 75 454 88Q461
84 461 73Q461 48 454 36Q440 23 409 9T349 -6Q325 -6 303 8T274 42Q273 42 266 37T248 24T223 10T188 -2T148 -7Q93 -7 61 23T28 100Q28 127 40 149T69 186T114 213T162 232T213 247T257 260Q266 263 266 275V311Q266 393 216 393Q158 393 158 326Q158 304 140
294T100 283Q54 283 37 313Q37 364 104 406T251 449Z" />
<glyph unicode="b" glyph-name="b" horiz-adv-x="564" d="M320 447Q410 447 475 383T540 226Q540 126 472 59T305 -8Q258 -8 230 1T176 10Q166 10 145 1T121 -9T104 0T89 15Q89 18 91 33T95 73T97 128V531Q97 573 91 603Q86 619 39 619H30Q24 619 24 639Q24 656
30 656Q61 659 92 664T146 674T185 684T213 692L223 695H225Q229 695 233 689T238 678Q227 633 227 577V431Q227 428 227 426T227 421T229 417T233 418Q269 447 320 447ZM309 386Q270 386 249 364T227 318V129Q227 89 250 68T308 46Q353 46 374 86T396 193Q396
386 309 386Z" />
<glyph unicode="c" glyph-name="c" horiz-adv-x="462" d="M265 447Q308 447 345 434T398 410T421 388Q421 296 367 296Q328 296 308 346Q299 369 286 380T248 392Q168 392 168 242Q168 73 281 73Q314 73 344 82T386 99T418 122Q427 118 427 103Q427 91 423 83Q413
58 364 26T252 -7Q156 -7 91 60T26 226Q26 318 95 382T265 447Z" />
<glyph unicode="d" glyph-name="d" horiz-adv-x="554" d="M252 393Q205 393 184 356T162 236Q162 55 252 55Q286 55 308 74T331 122V304Q331 316 329 327T320 355T296 382T252 393ZM258 447Q299 447 328 438Q331 438 331 452V531Q331 573 325 603Q320 619 273
619H264Q258 619 258 639Q258 656 264 656Q295 659 326 664T380 674T419 684T447 692L457 695H459Q463 695 467 689T472 678Q461 633 461 577V147Q461 104 467 75Q469 68 478 64T497 59T516 58L526 57Q529 56 529 45Q529 20 523 20Q508 19 484 16T435 10T388 3T352
-4L337 -6Q331 -6 331 11V32Q331 36 330 37T327 36Q285 -6 226 -6Q145 -6 82 54T18 212Q18 312 86 379T258 447Z" />
<glyph unicode="e" glyph-name="e" horiz-adv-x="462" d="M238 392Q199 392 181 355T163 281Q163 275 170 275H297Q311 275 311 294Q311 332 291 362T238 392ZM243 447Q333 447 387 385T442 257Q442 234 433 227T395 220H169Q163 220 163 213Q163 159 193 116T281
73Q314 73 344 82T386 99T418 122Q427 118 427 103Q427 91 423 83Q413 59 363 26T251 -7Q159 -7 93 60T26 221Q26 317 86 382T243 447Z" />
<glyph unicode="f" glyph-name="f" horiz-adv-x="380" d="M336 696Q380 696 412 686T453 662Q456 643 456 622T443 583T406 565Q385 565 370 582T340 617T306 634Q274 634 259 588T244 475V434Q244 429 249 429H360Q365 429 365 422Q365 394 353 370H250Q244 370
244 364V149Q244 85 251 58Q253 51 279 42T314 33Q317 33 317 17T316 -4Q305 -3 254 0T179 4Q155 4 104 1T42 -4Q38 0 38 16T42 33Q53 33 79 42T107 58Q114 88 114 134V363Q114 370 109 370H42Q39 370 39 376Q39 389 51 409T81 430H109Q114 430 114 436V443Q114
547 177 621T336 696Z" />
<glyph unicode="g" glyph-name="g" horiz-adv-x="485" d="M337 -81Q337 -36 169 -36Q166 -37 165 -37Q132 -48 125 -59Q118 -68 118 -86Q118 -116 149 -136T220 -157Q272 -157 304 -138T337 -81ZM165 294Q165 268 167 250T174 212T191 182T222 172T252 179T268
203T274 232T276 268Q276 332 264 364T216 396Q198 396 187 387T171 360T166 331T165 299Q165 296 165 294ZM223 449Q259 449 307 436T385 423H440Q443 422 451 405T459 381Q459 367 453 367H394Q390 366 390 364Q390 363 397 337T405 287Q405 224 354 172T226
120Q186 120 158 125Q146 121 140 112T134 95T144 84T174 77T210 73T255 70T292 69Q452 61 453 -36Q454 -109 374 -163T203 -218Q127 -218 75 -188T23 -108Q23 -86 46 -61T105 -25Q79 -14 58 10T37 64Q37 77 44 89T66 112T88 128T113 142Q84 158 60 198T36 282Q36
364 90 406T223 449Z" />
<glyph unicode="h" glyph-name="h" horiz-adv-x="622" d="M386 446Q444 446 480 397T517 248V149Q517 85 524 58Q526 51 552 42T587 33Q590 33 590 17T589 -4Q578 -3 527 0T452 4Q428 4 380 1T319 -4Q315 0 315 16T319 33Q330 33 354 42T380 58Q387 88 387 134V224Q387
298 367 329T302 361Q232 361 232 317V149Q232 85 239 58Q241 51 265 42T298 33Q301 33 301 17T300 -4Q288 -3 239 0T167 4Q143 4 92 1T30 -4Q26 0 26 16T30 33Q41 33 67 42T95 58Q102 88 102 134V531Q102 578 97 603Q92 619 45 619H36Q30 619 30 639Q30 656 36
656Q67 659 98 664T152 674T191 684T219 692L229 695H231Q235 695 239 689T244 678Q232 633 232 577V391Q232 384 236 384Q237 384 241 388Q263 413 303 429T386 446Z" />
<glyph unicode="i" glyph-name="i" horiz-adv-x="326" d="M84 585T84 616T106 668T158 690T210 669T232 616T211 564T159 542T106 563ZM232 149Q232 85 239 58Q241 51 267 42T302 33Q306 33 306 17T304 -4Q294 -3 242 0T167 4Q143 4 93 1T30 -4Q27 0 27 16T30
33Q42 33 67 42T95 58Q102 88 102 134V271Q102 327 84 346Q77 354 64 359T40 366T29 369Q29 404 34 404Q54 404 121 417T217 440Q218 440 223 441T228 443Q234 443 238 437T243 426Q242 418 239 396T234 358T232 326V149Z" />
<glyph unicode="j" glyph-name="j" horiz-adv-x="294" d="M126 271Q126 327 108 346Q101 354 88 359T64 366T54 369Q54 404 58 404Q77 404 145 417T242 440L247 442L252 443Q258 443 263 437T268 426Q267 416 264 396T258 358T256 326V120Q256 -27 208 -102Q184
-140 124 -179T39 -218Q23 -209 23 -194Q23 -185 24 -184Q32 -180 37 -178T61 -154T92 -106T115 -24T126 100V271ZM109 585T109 616T130 668T183 690T235 669T257 616T236 564T183 542T131 563Z" />
<glyph unicode="k" glyph-name="k" horiz-adv-x="646" d="M489 382Q418 341 352 273Q381 242 427 189T503 102T546 59Q559 48 580 41T610 33Q615 33 615 14Q615 1 613 -3Q493 3 487 3Q463 3 411 0T354 -4Q350 0 350 16T354 33Q364 33 377 37T390 46Q390 48 389
49L243 216L232 213V149Q232 85 239 58Q241 51 267 42T302 33Q305 33 305 17T304 -4Q293 -3 242 0T167 4Q143 4 92 1T30 -4Q26 0 26 16T30 33Q41 33 67 42T95 58Q102 88 102 134V531Q102 578 97 603Q92 619 45 619H36Q30 619 30 639Q30 656 36 656Q67 659 98 664T152
674T191 684T219 692L229 695H231Q235 695 239 689T244 678Q232 633 232 577V259Q259 266 266 272Q282 286 300 301T328 325T349 343T366 358T376 369T382 379T384 388Q384 397 374 400T352 403T338 405Q336 412 336 426T340 441Q412 440 454 440Q513 440 558 442Q562
440 562 431T562 413T559 405Q528 405 489 382Z" />
<glyph unicode="l" glyph-name="l" horiz-adv-x="334" d="M102 531Q102 578 97 603Q92 619 45 619H36Q30 619 30 639Q30 656 36 656Q67 659 98 664T152 674T191 684T219 692L229 695H231Q235 695 239 689T244 678Q233 633 233 577L232 149Q232 85 239 58Q241 51
267 42T302 33Q305 33 305 17T304 -4Q293 -3 242 0T167 4Q143 4 92 1T30 -4Q26 0 26 16T30 33Q41 33 67 42T95 58Q102 88 102 134V531Z" />
<glyph unicode="m" glyph-name="m" horiz-adv-x="888" d="M387 446Q459 446 493 377Q555 445 673 446Q731 446 767 397T804 248V149Q804 85 811 58Q813 51 838 42T872 33Q875 33 875 17T874 -4Q863 -3 813 0T739 4Q715 4 666 1T604 -4Q600 0 600 16T604 33Q615
33 640 42T667 58Q674 88 674 134V224Q674 293 654 327T588 361Q532 361 518 323Q515 315 516 302Q518 284 518 248V149Q518 85 525 58Q527 51 552 42T586 33Q589 33 589 17T588 -4Q577 -3 527 0T453 4Q429 4 380 1T318 -4Q314 0 314 16T318 33Q329 33 354 42T381
58Q388 88 388 134V224Q388 298 368 329T302 361Q271 361 252 350T233 317V149Q233 85 240 58Q242 51 266 42T299 33Q302 33 302 17T301 -4Q289 -3 240 0T168 4Q144 4 93 1T31 -4Q27 0 27 16T31 33Q42 33 68 42T96 58Q103 88 103 134V271Q103 327 85 346Q78 354
64 359T40 366T30 369Q30 404 35 404Q47 404 75 409T148 425T218 440Q220 440 222 441T227 442L229 443Q234 443 239 437T244 426Q240 398 240 395Q240 390 241 389Q243 389 248 394Q304 446 387 446Z" />
<glyph unicode="n" glyph-name="n" horiz-adv-x="622" d="M387 446Q445 446 481 397T518 248V149Q518 85 525 58Q527 51 553 42T588 33Q591 33 591 17T590 -4Q579 -3 528 0T453 4Q429 4 381 1T320 -4Q316 0 316 16T320 33Q331 33 355 42T381 58Q388 88 388 134V224Q388
298 368 329T302 361Q271 361 252 350T233 317V149Q233 85 240 58Q242 51 266 42T299 33Q302 33 302 17T301 -4Q289 -3 240 0T168 4Q144 4 93 1T31 -4Q27 0 27 16T31 33Q42 33 68 42T96 58Q103 88 103 134V271Q103 327 85 346Q78 354 64 359T40 366T30 369Q30 404
35 404Q47 404 75 409T148 425T218 440Q220 440 222 441T227 442L229 443Q234 443 239 437T244 426Q240 398 240 395Q240 390 241 389Q243 389 248 394Q304 446 387 446Z" />
<glyph unicode="o" glyph-name="o" horiz-adv-x="523" d="M247 392Q218 392 199 369T174 317T168 251Q168 48 271 48Q313 48 332 89T352 185Q352 392 247 392ZM163 447T261 447T427 381T496 220T428 59T261 -7Q163 -7 95 59T26 220T94 381Z" />
<glyph unicode="p" glyph-name="p" horiz-adv-x="567" d="M322 446Q417 446 479 380T542 227Q542 116 471 54T292 -8Q280 -8 267 -6T244 -2T234 1Q230 1 230 -15V-65Q230 -129 237 -156Q239 -163 265 -172T300 -181Q303 -181 303 -197T302 -218Q291 -217 240 -214T165
-210Q141 -210 90 -213T28 -218Q24 -214 24 -198T28 -181Q39 -181 65 -172T93 -156Q100 -126 100 -80V271Q100 327 82 346Q75 354 61 359T37 366T27 369Q27 404 32 404Q93 404 193 433Q224 443 226 443Q232 443 232 430Q232 424 230 412Q274 446 322 446ZM307 388Q272
388 251 367T230 314V125Q230 87 255 67T308 46Q398 46 398 194Q398 388 307 388Z" />
<glyph unicode="q" glyph-name="q" horiz-adv-x="516" d="M266 447Q309 447 340 438T395 429Q403 429 423 438T446 448Q450 448 465 439T480 424Q480 423 479 418T477 402T475 379T472 347T471 307V-65Q471 -129 478 -156Q480 -163 506 -172T541 -181Q544 -181
544 -197T543 -218Q532 -217 481 -214T406 -210Q382 -210 331 -213T269 -218Q265 -214 265 -198T269 -181Q280 -181 306 -172T334 -156Q341 -126 341 -80V8Q341 22 337 22Q336 22 335 21Q295 -8 244 -8Q161 -8 95 55T28 213Q28 315 97 381T266 447ZM259 393Q172
393 172 244Q172 206 175 178T186 120T214 72T264 55T317 72T341 116V302Q341 393 259 393Z" />
<glyph unicode="r" glyph-name="r" horiz-adv-x="465" d="M352 447Q396 447 438 410Q438 358 426 333T380 308Q360 308 334 331T288 354Q258 354 246 321T233 249V148Q233 85 240 58Q242 51 266 42T299 33Q302 33 302 17T301 -4Q289 -3 240 0T168 4Q144 4 93 1T31
-4Q27 0 27 16T31 33Q42 33 68 42T96 58Q103 88 103 134V271Q103 327 85 346Q78 354 64 359T40 366T30 369Q30 404 35 404Q47 404 75 409T148 425T218 440Q228 443 229 443Q234 443 239 437T244 426Q242 414 241 400T239 382Q288 447 352 447Z" />
<glyph unicode="s" glyph-name="s" horiz-adv-x="384" d="M200 449Q288 449 330 429Q340 383 340 305Q340 296 327 296Q296 296 294 304Q285 346 264 370T195 394Q173 394 159 384T145 353Q145 330 165 314T224 278Q251 265 266 256T307 228T345 182T358 124Q358
58 308 24T179 -10Q144 -10 101 1T39 28Q27 97 27 150Q31 153 42 153Q74 153 75 144Q92 45 183 45Q207 45 223 56T239 87Q239 112 218 129T140 174Q82 202 54 235T26 318Q26 386 78 417T200 449Z" />
<glyph unicode="t" glyph-name="t" horiz-adv-x="374" d="M97 370H32Q24 370 24 401Q24 409 26 412Q82 440 116 466Q131 477 151 494T185 524T201 538Q209 538 218 535T227 527V429H335Q343 429 343 419Q343 390 333 370H227V133Q227 57 281 57Q296 57 308 60T328
68T336 72Q340 72 344 62T349 47Q349 35 308 14T231 -7Q176 -7 137 27T97 139V370Z" />
<glyph unicode="u" glyph-name="u" horiz-adv-x="599" d="M512 327V131Q512 79 522 68Q527 63 538 61T560 58H570Q574 56 574 50Q574 21 568 21Q553 20 529 17T481 11T436 4T400 -2L386 -5Q380 -5 380 13V50Q380 54 379 55T376 54Q355 32 315 14T227 -4Q168 -4
133 48T97 174V271Q97 327 79 346Q72 354 58 359T34 366T24 369Q24 404 29 404Q48 404 116 417T212 440L217 442Q222 443 223 443Q228 443 233 437T238 426Q227 338 227 326V219Q227 141 247 110T314 78Q348 78 365 93T382 128V271Q382 327 364 346Q357 354 343
359T319 366T309 369Q309 404 314 404Q333 404 401 417T497 440Q498 440 503 442L508 443Q513 443 518 437T523 426Q512 338 512 327Z" />
<glyph unicode="v" glyph-name="v" horiz-adv-x="597" d="M402 385Q381 406 336 406Q333 407 333 422T335 443Q350 442 389 439T451 435Q475 435 512 438T566 443Q570 439 570 426Q570 406 566 406Q551 406 524 396T487 366L311 18Q296 -11 281 -11Q269 -11 265
-3L99 371Q91 390 68 398T29 406Q25 406 25 426Q25 438 29 443Q40 442 91 439T166 435Q191 435 245 439T309 443Q313 439 313 423T309 406Q294 406 268 398T241 379L243 364L322 176L401 342Q416 371 402 385Z" />
<glyph unicode="w" glyph-name="w" horiz-adv-x="880" d="M689 363Q689 385 663 395T611 405H607Q603 405 602 422T605 443Q619 442 666 438T737 434Q758 434 796 438T850 443Q853 434 853 423Q853 406 849 406Q838 406 805 391T764 357L599 10Q596 3 585 -4T562
-11Q552 -11 547 0L428 258L314 11Q311 4 301 -3T276 -11Q266 -11 260 0L91 372Q84 386 62 395T28 405Q24 405 24 424Q24 440 27 443Q39 442 86 439T158 435Q180 435 234 439T297 443Q299 437 299 423T297 407Q285 407 260 398T235 375T316 177Q327 201 342 233T365
280T379 311T389 336T392 348Q392 372 385 383Q378 393 361 401Q348 406 320 406Q316 406 316 422T319 443Q332 442 377 439T447 435Q469 435 520 439T582 443Q584 438 583 422T578 405Q561 405 543 398T524 375Q524 360 602 176Q620 215 643 263T678 334T689 363Z"
/>
<glyph unicode="x" glyph-name="x" horiz-adv-x="605" d="M27 425Q27 437 30 443Q154 436 167 436Q178 436 302 443Q305 438 305 425Q305 406 300 406Q286 406 271 399T255 382Q255 376 260 370L322 293Q330 304 348 327T376 365T386 385Q386 406 324 406Q320
406 320 424Q320 438 324 443Q441 436 451 436Q462 436 569 443Q572 437 572 425Q572 406 569 406Q498 398 480 378L366 253Q363 248 363 245Q363 239 367 235L487 84Q521 40 568 31Q572 31 572 10Q572 1 568 -4Q550 -3 525 -1T480 2T436 4Q412 4 391 3T343 -1T298
-4Q296 6 296 8Q296 33 300 33Q313 34 329 43T346 65Q346 67 344 71L276 150L219 78Q212 70 212 59Q212 54 216 50T229 43T244 39T261 36T276 33Q278 33 278 15Q278 0 274 -4Q266 -3 225 0T156 4Q135 4 116 3T73 -1T32 -4Q30 4 30 15Q30 33 34 33Q59 37 84 47T119
68L230 190Q232 193 232 198T228 207L100 368Q87 385 68 395T32 405Q27 405 27 425Z" />
<glyph unicode="y" glyph-name="y" horiz-adv-x="544" d="M148 435Q170 435 219 438T279 443Q282 434 282 422Q282 406 278 406Q265 406 241 398T216 380L217 371Q219 355 295 176Q363 323 369 338Q375 352 375 368Q375 374 370 382T347 398T304 406Q300 406 300
424Q300 437 302 443Q314 442 361 439T433 435Q454 435 489 438T540 443Q544 435 544 426Q544 406 540 406Q525 406 496 396T456 366L270 -37Q187 -218 76 -218Q46 -218 28 -202T9 -165Q9 -134 32 -118Q159 -118 197 -40Q220 9 228 26L79 356L74 368Q64 389 44
397T8 406Q4 406 4 421Q4 441 6 443Q14 443 69 439T148 435Z" />
<glyph unicode="z" glyph-name="z" horiz-adv-x="430" d="M184 61Q184 54 196 54H258Q337 54 366 130Q369 139 393 139Q400 139 404 135L387 0H45Q25 12 25 23Q25 26 26 27L230 369L169 370Q132 371 107 347T71 300Q68 294 46 294Q34 294 34 296Q34 301 41 350T50
430Q109 424 145 424H267Q330 424 396 432Q399 427 399 408L191 75Q184 65 184 61Z" />
<glyph unicode="{" glyph-name="braceleft" horiz-adv-x="328" d="M25 291Q22 297 22 310Q22 321 26 328Q67 338 88 354T110 406Q110 431 101 485T92 572Q92 651 160 700T302 750Q306 750 306 738Q306 718 300 717Q272 715 244 686T216 613Q216 578 224 528T233
434Q233 387 207 348T153 308Q181 308 207 271T233 187Q233 144 225 99T216 18Q216 -27 244 -58T300 -92Q306 -93 306 -114Q306 -125 302 -125Q232 -125 163 -70T94 58Q94 88 102 141T110 219Q110 230 108 239T100 254T90 265T76 274T61 280T43 286T25 291Z" />
<glyph unicode="|" glyph-name="bar" horiz-adv-x="156" d="M122 -106Q122 -110 85 -115T42 -121Q35 -121 35 -115V757Q34 763 40 765Q64 772 114 772Q118 772 120 771T122 768V766V-106Z" />
<glyph unicode="}" glyph-name="braceright" horiz-adv-x="328" d="M303 291Q299 290 288 287T272 282T258 277T245 270T234 262T225 251T220 237T218 219Q218 194 226 141T234 58Q234 -15 165 -70T26 -125Q22 -125 22 -114Q22 -93 28 -92Q55 -90 83 -59T112 18Q112
53 104 98T95 187Q95 234 121 271T175 308Q147 308 121 347T95 434Q95 477 103 527T112 613Q112 657 84 686T28 717Q22 718 22 738Q22 750 26 750Q99 750 167 701T236 572Q236 540 227 486T218 406Q218 370 239 354T302 328Q306 321 306 310Q306 297 303 291Z"
/>
<glyph unicode="~" glyph-name="asciitilde" horiz-adv-x="570" d="M59 254Q50 258 50 281T74 320Q131 359 180 359Q227 359 298 333T416 306Q423 306 430 307T442 309T454 314T464 319T475 326T485 333T495 341T506 350Q515 346 515 323Q515 301 492 284Q442
245 387 245Q340 245 269 271T150 298Q132 298 114 290T89 277T59 254Z" />
<glyph unicode="&#xa0;" glyph-name="uni00A0" horiz-adv-x="209" />
<glyph unicode="&#xa1;" glyph-name="exclamdown" horiz-adv-x="195" d="M102 -238Q74 -238 55 -220T36 -171Q36 -135 52 15T77 220Q81 242 89 242Q117 242 122 211Q132 146 148 -1T164 -170Q164 -201 146 -219T102 -238ZM25 366Q25 399 48 421T101 443Q131 443
151 420T172 366T151 314T97 293Q68 293 47 314T25 366Z" />
<glyph unicode="&#xa2;" glyph-name="cent" horiz-adv-x="462" d="M275 474Q314 474 314 466L310 443Q341 438 367 426T404 405T421 388Q421 296 367 296Q328 296 308 346Q303 358 298 366L251 76Q264 73 281 73Q314 73 344 82T386 99T418 122Q427 118 427 103Q427
91 423 83Q413 58 364 26T252 -7Q245 -7 237 -7L231 -45Q192 -45 192 -36L198 -1Q122 18 74 80T26 226Q26 318 95 382T265 447Q268 447 271 447L275 474ZM213 95L261 391Q255 392 248 392Q168 392 168 242Q168 134 213 95Z" />
<glyph unicode="&#xa3;" glyph-name="sterling" horiz-adv-x="491" d="M57 335H335Q340 335 340 325Q340 300 325 290H56Q51 290 51 303Q51 326 57 335ZM290 642Q329 642 365 630T414 600Q414 515 362 515Q346 515 334 526T314 552T294 578T265 590Q226 590 208
565T190 484Q190 458 205 383T221 260Q221 162 180 103Q200 112 231 112Q261 112 308 97T368 82Q378 82 386 83T401 89T412 97T423 108T432 120T441 135T450 149Q455 149 461 142T468 127Q468 122 466 114Q456 73 426 33T348 -8Q314 -8 252 9T166 26Q146 26 130
20T97 4T79 -8Q63 -5 55 4T46 20L98 83Q110 114 110 218Q110 244 96 322T81 439Q81 529 141 585T290 642Z" />
<glyph unicode="&#xa4;" glyph-name="currency" horiz-adv-x="469" d="M246 164Q281 164 297 198T313 279Q313 452 226 452Q191 452 176 417T161 334Q161 164 246 164ZM351 462L402 510Q406 514 415 507T434 487T446 462L397 416Q432 367 432 308Q432 240 391
190L436 142Q440 138 433 129T413 110T388 98L342 148Q294 119 237 119Q171 119 119 157L67 108Q63 104 54 111T35 131T23 156L74 204Q42 252 42 308Q42 372 83 424L34 476Q30 480 37 489T57 508T82 520L131 467Q178 497 237 497Q300 497 351 462Z" />
<glyph unicode="&#xa5;" glyph-name="yen" horiz-adv-x="689" d="M166 636Q189 636 309 642Q311 638 311 622T307 605Q292 605 274 600T254 584Q254 576 262 562L362 385Q367 380 372 387Q401 429 441 498T481 583Q481 605 417 605Q413 605 413 621T416 642Q506
636 537 636Q563 636 650 642Q653 633 653 624Q653 606 649 606Q631 606 608 597T571 570Q545 535 471 416T396 284V259H465Q470 259 470 247Q470 224 464 214H396V178H465Q470 178 470 166Q470 144 464 133H396Q396 87 404 58Q406 51 431 42T466 33Q470 33 470
14Q470 2 468 -4Q461 -4 408 0T329 4Q302 4 250 1T184 -4Q180 0 180 12Q180 33 183 33Q194 33 220 41T249 58Q255 83 256 133H186Q181 133 181 146Q181 162 187 178H256V214H186Q181 214 181 227Q181 242 187 259H256V289Q256 296 225 353T162 464L131 517Q98 578
77 590Q52 605 24 605Q20 605 20 621T24 642Q41 641 69 640T120 637T166 636Z" />
<glyph unicode="&#xa6;" glyph-name="brokenbar" horiz-adv-x="154" d="M121 399Q121 395 84 390T41 384Q34 384 34 390V753Q33 759 39 761Q63 768 113 768Q117 768 119 767T121 764V762V399ZM121 -106Q121 -110 84 -115T41 -121Q34 -121 34 -115V248Q33 254 39
256Q63 263 113 263Q117 263 119 262T121 258V257V-106Z" />
<glyph unicode="&#xa7;" glyph-name="section" horiz-adv-x="410" d="M384 290Q384 244 362 204T318 148Q329 124 329 89Q329 52 314 25T274 -16T225 -35T177 -41Q143 -41 116 -29T80 -4Q79 0 79 14Q79 40 89 52T112 65Q130 65 158 41T209 17Q236 17 253 28T271
58Q271 88 246 112T184 155T112 195T51 251T25 330Q25 417 89 463Q79 480 79 518Q79 582 123 616T231 651Q265 651 291 639T326 613Q326 611 327 603T329 593Q329 565 321 554T293 543Q280 543 253 568T202 593Q137 593 137 550Q137 521 162 498T224 458T296 420T358
367T384 290ZM298 185Q316 203 316 225Q316 260 291 287T234 329T165 370T110 424Q95 412 95 381Q95 351 110 329T150 293T201 265T255 232T298 185Z" />
<glyph unicode="&#xa8;" glyph-name="dieresis" horiz-adv-x="405" d="M241 484T241 514T262 564T313 585T364 565T385 514T364 463T313 442T262 463ZM19 484T19 514T39 564T90 585T141 565T162 514T141 463T90 442T40 463Z" />
<glyph unicode="&#xa9;" glyph-name="copyright" horiz-adv-x="600" d="M411 268Q411 261 405 242T392 219Q356 199 297 199Q242 199 203 240T164 337Q164 396 203 438T302 481Q350 481 398 469Q400 468 404 437T408 401Q408 397 400 397Q393 397 387 399Q382
417 363 434T304 451Q270 451 252 420T234 346Q234 297 255 263T317 229Q354 229 370 244Q376 249 381 256T390 268T394 273Q408 273 411 268ZM72 436T72 341T139 180T300 113T461 179T528 341T461 502T300 569T139 503ZM27 229T27 342T107 535T300 615T493 535T574
342T494 149T300 69T107 149Z" />
<glyph unicode="&#xaa;" glyph-name="ordfeminine" horiz-adv-x="347" d="M189 326V394Q186 393 176 390T161 385T147 380T134 373T125 366T117 356T115 343Q115 297 151 297Q169 297 179 305T189 326ZM277 326Q277 315 278 310T283 302T296 298Q302 298 306 300T313
304T317 306Q322 306 322 297Q322 286 316 271Q286 249 245 249Q229 249 215 259T195 281L190 278Q185 274 177 269T159 260T135 252T108 248Q66 248 47 272T27 330Q27 349 37 364T67 389T104 405T147 418T183 428Q189 430 189 439V463Q189 518 159 518Q141 518
127 505T113 467Q113 459 100 453T74 447Q56 447 46 457T35 482Q35 508 77 532T170 556Q277 556 277 436V326Z" />
<glyph unicode="&#xab;" glyph-name="guillemotleft" horiz-adv-x="477" d="M307 248Q307 248 379 177Q453 106 453 98T439 82T418 73Q417 75 399 91T329 146T212 227Q205 230 205 241Q205 259 213 268Q240 284 265 301T310 332T347 360T377 385T399 404T414 418L419
423Q426 422 440 414T454 398T380 319L307 248ZM128 248L200 177Q274 106 274 98T260 82T239 73Q238 75 220 91T150 146T33 227Q26 230 26 241Q26 259 34 268Q61 284 86 301T131 332T168 360T198 385T220 404T234 418L240 423Q247 422 261 414T275 398T201 319L128
248Z" />
<glyph unicode="&#xac;" glyph-name="logicalnot" horiz-adv-x="539" d="M28 366Q33 427 43 427Q43 427 492 427Q504 427 504 416V169Q496 161 445 154H441Q437 154 435 156T434 160V161V346Q434 356 423 356H34Q28 356 28 366Z" />
<glyph unicode="&#xae;" glyph-name="registered" horiz-adv-x="599" d="M269 335Q268 311 272 299Q273 296 282 292T296 288Q298 288 298 283T296 273Q291 273 279 274T255 276T235 277Q223 277 200 275T171 273Q169 275 169 280Q169 288 170 288Q175 288 185
292T196 299Q199 312 199 332V496Q199 516 196 529Q195 532 185 536T171 540Q170 540 170 547T171 555Q211 553 236 553Q248 553 265 553T295 554Q330 554 361 537T393 483Q393 454 377 433T344 405Q342 404 344 401Q375 348 408 315Q435 288 451 288Q453 286 453
280Q453 277 452 273Q449 272 441 272Q407 272 382 284T346 307T319 341Q311 352 302 366T287 388T279 398Q278 399 274 399Q269 399 269 393V335ZM294 425Q323 425 323 475Q323 532 290 532Q276 532 273 529T270 521Q269 516 269 487V441Q269 430 273 428T291
425H294ZM72 502T72 408T139 247T300 180T461 247T528 408T461 569T300 636T139 569ZM27 296T27 409T107 602T300 682T493 602T574 409T494 216T300 136T107 216Z" />
<glyph unicode="&#xaf;" glyph-name="overscore" horiz-adv-x="384" d="M57 541Q58 563 61 577T67 595T72 599H73H319H320Q326 599 326 589Q325 567 322 553T315 534L312 530H63Q63 530 58 532Q57 535 57 541Z" />
<glyph unicode="&#xb0;" glyph-name="degree" horiz-adv-x="233" d="M64 559T64 536T79 498T117 482T154 497T170 536T155 574T117 590T80 575ZM18 496T18 536T47 605T117 634T186 605T215 536Q215 495 186 466T117 437Q76 437 47 466Z" />
<glyph unicode="&#xb1;" glyph-name="plusminus" horiz-adv-x="530" d="M302 306V122Q287 112 242 106Q242 106 236 106Q230 106 230 113V304Q230 309 224 309H33Q27 309 27 319Q27 349 35 376Q36 379 37 380T40 381H42H225Q230 381 230 387V569Q229 574 235 576Q262
584 292 584L302 578V386Q302 381 306 381H498Q506 381 506 374Q506 352 496 315Q495 312 494 311T490 309H489H306Q302 309 302 306ZM490 71Q491 71 492 71T496 68T498 60Q490 7 482 -1H34Q33 -1 32 -1T29 2T28 12Q35 64 36 66Q37 69 38 70T42 71H43H490Z" />
<glyph unicode="&#xb2;" glyph-name="uni00B2" horiz-adv-x="322" d="M121 586Q101 586 83 575T55 552T43 540Q38 540 32 549T26 564Q26 567 27 572V574Q38 595 72 619T151 644Q199 644 229 614T260 534Q260 477 211 420T101 322Q99 320 100 318T103 316H217Q228
316 236 318T249 326T257 336T264 350T271 364Q272 368 278 368Q293 368 298 363Q294 345 283 302T270 253L167 254Q44 253 39 253Q26 266 26 279Q26 285 27 288Q173 434 173 528Q173 549 160 567T121 586Z" />
<glyph unicode="&#xb3;" glyph-name="uni00B3" horiz-adv-x="298" d="M159 645Q187 645 214 627T241 574Q241 541 218 513T169 472Q199 472 236 450T273 382Q273 317 221 282T102 246Q53 246 29 266Q26 270 26 284Q26 297 37 306T60 315T89 299T123 282Q153 282
170 303T188 365T169 423T110 440H87Q81 449 81 456Q81 464 83 470Q159 487 159 554Q159 574 148 585T123 596Q104 596 82 578T58 559Q51 559 43 567T38 580Q54 605 89 625T159 645Z" />
<glyph unicode="&#xb4;" glyph-name="acute" horiz-adv-x="234" d="M200 658Q200 633 129 578T44 522Q39 522 33 528T27 540Q27 543 42 567T80 625T120 678Q129 687 154 687Q177 687 188 677T200 658Z" />
<glyph unicode="&#xb5;" glyph-name="uni00B5" horiz-adv-x="535" d="M209 -9Q202 -9 196 -8T185 -2T176 5T168 15T161 26T155 39T150 51T145 64T141 76Q141 75 142 23T148 -92T163 -207Q159 -213 143 -220T113 -227Q98 -227 71 -213T43 -190Q43 -158 49 -10T64
204Q64 216 62 251T60 298V426Q64 432 82 439T111 446Q120 446 147 432T175 409Q175 346 158 266L152 223Q152 164 170 127T215 90Q239 90 256 101T282 134T295 176T303 227V298V426Q307 432 325 439T353 446Q363 446 396 432T429 409Q429 354 406 246L401 223Q400
176 403 148T417 99T451 78Q468 78 487 89T513 109Q518 109 526 96Q529 90 529 76Q519 43 493 20T436 -4Q402 -3 376 36T343 128Q315 62 286 27T209 -9Z" />
<glyph unicode="&#xb6;" glyph-name="paragraph" horiz-adv-x="468" d="M279 261L281 57Q281 44 299 44Q313 44 313 58Q317 103 317 270Q317 274 313 274Q303 274 287 270Q279 269 279 261ZM206 652Q236 652 262 650T317 648L438 654Q442 650 440 636T434 622Q421
622 402 617T379 604Q376 594 376 500Q376 464 376 408T377 348Q377 343 382 343L425 352Q428 346 428 333Q428 316 408 304Q396 298 383 294Q378 292 378 290Q378 78 385 52Q388 44 408 37T439 30Q443 30 443 18Q443 0 439 -4Q420 -3 367 -1T278 2Q258 2 238 1T195
-1T159 -4Q157 0 157 14T161 28Q169 28 189 35T212 50Q217 71 217 183V256Q217 263 197 263Q113 263 65 319T16 460Q16 511 34 550T81 610T141 642T206 652ZM281 594Q279 434 279 332Q279 326 287 326Q298 326 310 332Q317 336 317 340Q317 570 315 596Q315 599
310 602T298 606Q281 606 281 594Z" />
<glyph unicode="&#xb7;" glyph-name="middot" horiz-adv-x="205" d="M31 235T31 265T52 316T105 338Q135 338 156 317T178 265Q178 234 158 211T107 188Q76 188 54 211Z" />
<glyph unicode="&#xb8;" glyph-name="cedilla" horiz-adv-x="443" d="M226 -28Q238 -27 245 -27Q267 -27 283 -42T299 -78Q299 -114 273 -135T202 -156Q170 -156 154 -140Q152 -134 152 -123Q152 -109 159 -109L178 -116Q196 -124 209 -124Q228 -124 238 -116T248
-95Q248 -67 224 -67Q209 -67 194 -73Q192 -73 186 -67T180 -57Q185 -49 194 -29T208 -2H240L226 -28Z" />
<glyph unicode="&#xb9;" glyph-name="uni00B9" horiz-adv-x="277" d="M38 543Q34 544 29 550T23 563V572Q179 648 182 648H183Q186 648 192 640T200 628Q187 580 187 543V331Q187 306 197 295Q203 289 221 285T247 281Q251 281 251 266Q251 255 248 252Q241 252
201 254T145 257T83 255T32 252Q30 254 30 267T32 281Q40 281 59 286T83 297Q94 312 94 330V529Q94 560 81 560Q75 560 38 543Z" />
<glyph unicode="&#xba;" glyph-name="ordmasculine" horiz-adv-x="370" d="M176 517Q148 517 136 489T123 421Q123 284 192 284Q221 284 234 312T247 377Q247 517 176 517ZM119 554T185 554T297 509T344 400T298 292T185 247Q119 247 73 291T27 400T73 509Z" />
<glyph unicode="&#xbb;" glyph-name="guillemotright" horiz-adv-x="479" d="M172 248Q172 248 99 319Q25 390 25 398T39 414T60 423Q60 423 66 418Q71 412 80 404T101 385T131 361T168 333T213 301T266 268Q274 259 274 241Q274 230 267 227Q201 185 150 147T81
92T61 73Q54 74 40 82T26 98T100 177L172 248ZM351 248L278 319Q204 390 204 398T218 414T239 423L244 418Q250 412 259 404T280 385T310 361T347 333T392 301T445 268Q453 259 453 241Q453 230 446 227Q380 185 329 147T260 92T240 73Q233 74 219 82T205 98T279
177L351 248Z" />
<glyph unicode="&#xbc;" glyph-name="onequarter" horiz-adv-x="699" d="M37 543Q33 544 28 550T22 563V572Q178 648 181 648H182Q185 648 191 640T199 628Q186 580 186 543V331Q186 306 196 295Q202 289 220 285T246 281Q250 281 250 266Q250 255 247 252Q240
252 200 254T144 257T82 255T31 252Q29 254 29 267T31 281Q39 281 58 286T82 297Q93 312 93 330V529Q93 560 80 560Q74 560 37 543ZM595 -3Q552 -3 552 3V97Q551 100 546 100H390Q382 105 382 123L604 388Q612 398 624 398Q641 398 641 391V158Q641 156 647 154H666Q676
154 676 104Q676 102 675 101T672 98H670H645Q641 98 641 93V2Q619 -3 595 -3ZM552 160V261Q552 267 551 267L548 266L463 164V162Q463 156 467 156H546Q552 159 552 160ZM577 617L229 -14Q229 -16 225 -16Q204 -16 189 3L187 12L532 644Q534 647 538 647Q556 647
574 628Q576 626 577 623T578 618L577 617Z" />
<glyph unicode="&#xbd;" glyph-name="onehalf" horiz-adv-x="748" d="M549 332Q529 332 511 321T483 298T471 286Q466 286 460 295T454 310Q454 313 455 318V320Q466 341 500 365T579 390Q627 390 657 360T688 280Q688 223 639 166T529 68Q527 66 528 64T531 62H645Q656
62 664 64T677 72T685 82T692 96T699 110Q700 114 706 114Q721 114 726 109Q722 91 711 48T698 -1L595 0Q472 -1 467 -1Q451 15 455 34Q601 180 601 274Q601 295 588 313T549 332ZM37 543Q33 544 28 550T22 563V572Q178 648 181 648H182Q185 648 191 640T199 628Q186
580 186 543V331Q186 306 196 295Q202 289 220 285T246 281Q250 281 250 266Q250 255 247 252Q240 252 200 254T144 257T82 255T31 252Q29 254 29 267T31 281Q39 281 58 286T82 297Q93 312 93 330V529Q93 560 80 560Q74 560 37 543ZM577 617L229 -14Q229 -16 225
-16Q204 -16 188 4Q186 6 186 8T186 11L187 12L532 644Q534 647 538 647Q556 647 574 628Q576 626 577 623T578 618L577 617Z" />
<glyph unicode="&#xbe;" glyph-name="threequarters" horiz-adv-x="693" d="M156 645Q184 645 211 627T238 574Q238 541 215 513T166 472Q196 472 233 450T270 382Q270 317 218 282T99 246Q50 246 26 266Q23 270 23 284Q23 297 34 306T57 315T86 299T120 282Q150
282 167 303T185 365T166 423T106 440H84Q78 449 78 456Q78 464 80 470Q156 487 156 554Q156 574 145 585T120 596Q101 596 80 578T56 559Q49 559 41 567T36 580Q52 605 86 625T156 645ZM589 -3Q546 -3 546 3V97Q545 100 540 100H384Q376 105 376 123L598 388Q606
398 618 398Q635 398 635 391V158Q635 156 641 154H660Q670 154 670 104Q670 102 669 101T666 98H664H639Q635 98 635 93V2Q613 -3 589 -3ZM545 267L542 266L457 164V162Q457 156 461 156H540Q546 159 546 160V261Q546 267 545 267ZM571 617L223 -14Q221 -16 217
-16Q198 -16 182 4Q180 6 180 8T180 11L181 12L526 644Q527 647 531 647Q550 647 568 628Q570 626 571 623T572 618L571 617Z" />
<glyph unicode="&#xbf;" glyph-name="questiondown" horiz-adv-x="349" d="M319 372Q319 341 298 320T247 299Q215 299 194 320T172 372T192 426T243 449Q272 449 295 427T319 372ZM222 217Q222 230 232 239T255 248Q259 248 262 241T267 226Q281 139 277 97T238
40Q156 7 133 -17T109 -72Q109 -122 166 -122Q183 -122 207 -115T254 -108Q286 -108 306 -129T327 -176Q327 -206 318 -219Q292 -232 259 -232Q171 -228 97 -183T23 -55Q23 15 52 51T144 121Q151 125 166 133T186 143T199 152T210 163T216 175T221 193T222 217Z"
/>
<glyph unicode="&#xc0;" glyph-name="Agrave" horiz-adv-x="720" d="M411 748Q411 743 407 736T397 728Q379 728 298 767T217 831Q217 850 236 859T273 869Q283 869 291 865Q324 840 367 797T411 748ZM423 33Q445 33 468 42T491 68Q491 70 466 135L436 208Q432
212 429 212Q410 213 333 213Q267 213 232 212Q228 212 225 207Q225 207 192 131Q172 86 172 70T190 45T221 35T245 33Q248 32 248 17T246 -4Q233 -3 194 0T129 4T69 1T15 -4Q11 0 11 11Q11 32 13 32Q25 32 53 42T88 64Q96 76 104 93T118 122L123 134L344 642Q355
668 381 668Q396 668 405 655L610 148Q629 102 643 66Q649 50 676 42T717 33Q721 33 721 16T719 -4Q715 -4 658 0T574 4Q567 4 423 -4Q419 0 419 16T423 33ZM259 276Q289 273 333 273Q373 273 404 275L407 280L335 459L257 280Q257 276 259 276Z" />
<glyph unicode="&#xc1;" glyph-name="Aacute" horiz-adv-x="720" d="M317 748Q317 754 360 797T437 865Q445 869 455 869Q473 869 492 860T511 831Q511 807 430 768T331 728Q326 728 322 735T317 748ZM423 33Q445 33 468 42T491 68Q491 70 466 135L436 208Q432
212 429 212Q410 213 333 213Q267 213 232 212Q228 212 225 207Q225 207 192 131Q172 86 172 70T190 45T221 35T245 33Q248 32 248 17T246 -4Q233 -3 194 0T129 4T69 1T15 -4Q11 0 11 11Q11 32 13 32Q25 32 53 42T88 64Q96 76 104 93T118 122L123 134L344 642Q355
668 381 668Q396 668 405 655L610 148Q629 102 643 66Q649 50 676 42T717 33Q721 33 721 16T719 -4Q715 -4 658 0T574 4Q567 4 423 -4Q419 0 419 16T423 33ZM259 276Q289 273 333 273Q373 273 404 275L407 280L335 459L257 280Q257 276 259 276Z" />
<glyph unicode="&#xc2;" glyph-name="Acircumflex" horiz-adv-x="720" d="M495 728Q487 728 444 750T375 790Q349 773 306 751T255 728Q245 728 245 747Q273 768 318 812Q339 832 361 860Q369 869 374 869Q380 869 389 860Q391 858 404 843T429 816Q477 768 505
747Q505 728 495 728ZM423 33Q445 33 468 42T491 68Q491 70 466 135L436 208Q432 212 429 212Q410 213 333 213Q267 213 232 212Q228 212 225 207Q225 207 192 131Q172 86 172 70T190 45T221 35T245 33Q248 32 248 17T246 -4Q233 -3 194 0T129 4T69 1T15 -4Q11
0 11 11Q11 32 13 32Q25 32 53 42T88 64Q96 76 104 93T118 122L123 134L344 642Q355 668 381 668Q396 668 405 655L610 148Q629 102 643 66Q649 50 676 42T717 33Q721 33 721 16T719 -4Q715 -4 658 0T574 4Q567 4 423 -4Q419 0 419 16T423 33ZM259 276Q289 273
333 273Q373 273 404 275L407 280L335 459L257 280Q257 276 259 276Z" />
<glyph unicode="&#xc3;" glyph-name="Atilde" horiz-adv-x="720" d="M194 739Q186 739 186 761Q186 785 204 811Q242 862 292 862Q330 862 388 828T484 794Q503 794 527 822T556 851Q564 851 564 829Q564 804 546 778Q511 728 460 728Q422 728 364 762T268 796Q250
796 224 768T194 739ZM423 33Q445 33 468 42T491 68Q491 70 466 135L436 208Q432 212 429 212Q410 213 333 213Q267 213 232 212Q228 212 225 207Q225 207 192 131Q172 86 172 70T190 45T221 35T245 33Q248 32 248 17T246 -4Q233 -3 194 0T129 4T69 1T15 -4Q11
0 11 11Q11 32 13 32Q25 32 53 42T88 64Q96 76 104 93T118 122L123 134L344 642Q355 668 381 668Q396 668 405 655L610 148Q629 102 643 66Q649 50 676 42T717 33Q721 33 721 16T719 -4Q715 -4 658 0T574 4Q567 4 423 -4Q419 0 419 16T423 33ZM259 276Q289 273
333 273Q373 273 404 275L407 280L335 459L257 280Q257 276 259 276Z" />
<glyph unicode="&#xc4;" glyph-name="Adieresis" horiz-adv-x="720" d="M416 771T416 802T437 854T490 876T542 855T564 802T543 750T490 728T438 749ZM186 771T186 802T207 854T260 876T312 855T334 802T313 750T260 728T208 749ZM423 33Q445 33 468 42T491 68Q491
70 466 135L436 208Q432 212 429 212Q410 213 333 213Q267 213 232 212Q228 212 225 207Q225 207 192 131Q172 86 172 70T190 45T221 35T245 33Q248 32 248 17T246 -4Q233 -3 194 0T129 4T69 1T15 -4Q11 0 11 11Q11 32 13 32Q25 32 53 42T88 64Q96 76 104 93T118
122L123 134L344 642Q355 668 381 668Q396 668 405 655L610 148Q629 102 643 66Q649 50 676 42T717 33Q721 33 721 16T719 -4Q715 -4 658 0T574 4Q567 4 423 -4Q419 0 419 16T423 33ZM259 276Q289 273 333 273Q373 273 404 275L407 280L335 459L257 280Q257 276
259 276Z" />
<glyph unicode="&#xc5;" glyph-name="Aring" horiz-adv-x="720" d="M322 782T322 759T337 721T375 705T412 720T428 759T413 797T375 813T338 798ZM276 759Q276 799 305 828T375 857T444 829T473 759T444 689T375 660Q334 660 305 689T276 759ZM423 33Q445 33
468 42T491 68Q491 70 466 135L436 208Q432 212 429 212Q410 213 333 213Q267 213 232 212Q228 212 225 207Q225 207 192 131Q172 86 172 70T190 45T221 35T245 33Q248 32 248 17T246 -4Q233 -3 194 0T129 4T69 1T15 -4Q11 0 11 11Q11 32 13 32Q25 32 53 42T88
64Q96 76 104 93T118 122L123 134L344 642Q355 668 381 668Q396 668 405 655L610 148Q629 102 643 66Q649 50 676 42T717 33Q721 33 721 16T719 -4Q715 -4 658 0T574 4Q567 4 423 -4Q419 0 419 16T423 33ZM259 276Q289 273 333 273Q373 273 404 275L407 280L335
459L257 280Q257 276 259 276Z" />
<glyph unicode="&#xc6;" glyph-name="AE" horiz-adv-x="931" d="M429 584Q433 590 433 598Q433 609 414 618T384 627Q380 627 380 644T383 664Q454 656 521 656Q566 656 677 660T844 664Q845 654 873 516Q868 511 850 511Q839 511 836 518Q817 556 776 583T696
610H658Q595 610 593 597Q588 573 588 519V365Q588 359 631 359H684Q746 359 752 363Q757 367 760 392Q762 407 766 421Q767 428 781 428Q798 428 803 423V234Q799 230 782 230Q769 230 766 238Q762 252 759 262T754 277T750 286T746 291T742 293T738 296Q725 304
660 304Q588 304 588 295V141Q588 93 596 70Q601 54 664 54H690Q752 54 802 80Q819 89 840 114T874 170Q876 176 888 176Q912 176 918 170Q869 32 864 -2Q807 -2 686 0T522 2L382 -4Q378 0 378 13Q378 33 382 33Q393 33 416 41T442 56Q448 79 448 135V200Q448 210
439 210Q413 211 370 211Q313 211 278 210Q272 210 270 205L223 129Q193 84 190 67Q187 51 200 44Q224 33 260 33Q263 33 260 18T254 -4Q240 -3 202 0T139 4Q113 4 71 1T12 -4Q10 -2 10 8Q10 13 12 23T16 33Q28 33 62 45T106 69L147 132L429 584ZM448 282V475Q448
480 445 480Q441 480 438 475L316 278Q316 274 318 274Q348 271 383 271Q397 271 404 271T419 272T439 273Q448 273 448 282Z" />
<glyph unicode="&#xc7;" glyph-name="Ccedilla" horiz-adv-x="638" d="M348 -32Q362 -31 370 -31Q395 -31 414 -49T434 -91Q434 -133 404 -158T320 -183Q282 -183 263 -164Q261 -156 261 -144Q261 -128 269 -128Q270 -128 291 -136T328 -145Q351 -145 362 -135T374
-111Q374 -78 345 -78Q327 -78 310 -85Q308 -85 301 -77T294 -66Q300 -56 312 -31T327 -1H364L348 -32ZM611 180Q611 166 596 102T570 34Q458 -7 345 -7Q213 -7 119 90T25 322Q25 464 119 565T355 667Q464 667 584 638Q589 637 596 571T604 490T577 475Q576 475
561 478Q556 496 545 516T511 559T449 596T360 611Q181 611 181 343Q181 218 236 133T392 47Q466 47 520 101Q533 114 543 136T559 174T566 190Q607 190 611 180Z" />
<glyph unicode="&#xc8;" glyph-name="Egrave" horiz-adv-x="598" d="M365 748Q365 743 361 736T351 728Q333 728 252 767T171 831Q171 850 190 859T227 869Q237 869 245 865Q278 840 321 797T365 748ZM176 659Q220 659 331 661T499 664Q500 654 528 516Q523 511
505 511Q494 511 491 518Q472 556 431 583T351 610H313Q250 610 248 597Q243 573 243 519V365Q243 359 286 359H339Q401 359 407 363Q412 367 415 392Q417 407 421 421Q422 428 436 428Q453 428 458 423V234Q454 230 437 230Q424 230 421 238Q417 252 414 262T409
277T405 286T401 291T397 293T393 296Q380 304 315 304Q243 304 243 295V141Q243 93 251 70Q256 54 319 54H345Q407 54 457 80Q474 89 495 114T529 170Q530 176 543 176Q567 176 573 170Q524 32 519 -2Q468 -2 357 0T177 2L31 -4Q27 0 27 13Q27 33 31 33Q43 33
68 40T97 55Q103 78 103 143V521Q103 576 97 599Q94 607 68 617T30 627Q26 627 26 645Q26 661 29 664Q109 659 176 659Z" />
<glyph unicode="&#xc9;" glyph-name="Eacute" horiz-adv-x="598" d="M221 748Q221 754 264 797T341 865Q349 869 359 869Q377 869 396 860T415 831Q415 807 334 768T235 728Q230 728 226 735T221 748ZM176 659Q220 659 331 661T499 664Q500 654 528 516Q523 511
505 511Q494 511 491 518Q472 556 431 583T351 610H313Q250 610 248 597Q243 573 243 519V365Q243 359 286 359H339Q401 359 407 363Q412 367 415 392Q417 407 421 421Q422 428 436 428Q453 428 458 423V234Q454 230 437 230Q424 230 421 238Q417 252 414 262T409
277T405 286T401 291T397 293T393 296Q380 304 315 304Q243 304 243 295V141Q243 93 251 70Q256 54 319 54H345Q407 54 457 80Q474 89 495 114T529 170Q530 176 543 176Q567 176 573 170Q524 32 519 -2Q468 -2 357 0T177 2L31 -4Q27 0 27 13Q27 33 31 33Q43 33
68 40T97 55Q103 78 103 143V521Q103 576 97 599Q94 607 68 617T30 627Q26 627 26 645Q26 661 29 664Q109 659 176 659Z" />
<glyph unicode="&#xca;" glyph-name="Ecircumflex" horiz-adv-x="598" d="M409 728Q401 728 358 750T289 790Q263 773 220 751T169 728Q159 728 159 747Q187 768 232 812Q253 832 275 860Q283 869 288 869Q294 869 303 860Q305 858 318 843T343 816Q391 768 419
747Q419 728 409 728ZM176 659Q220 659 331 661T499 664Q500 654 528 516Q523 511 505 511Q494 511 491 518Q472 556 431 583T351 610H313Q250 610 248 597Q243 573 243 519V365Q243 359 286 359H339Q401 359 407 363Q412 367 415 392Q417 407 421 421Q422 428
436 428Q453 428 458 423V234Q454 230 437 230Q424 230 421 238Q417 252 414 262T409 277T405 286T401 291T397 293T393 296Q380 304 315 304Q243 304 243 295V141Q243 93 251 70Q256 54 319 54H345Q407 54 457 80Q474 89 495 114T529 170Q530 176 543 176Q567
176 573 170Q524 32 519 -2Q468 -2 357 0T177 2L31 -4Q27 0 27 13Q27 33 31 33Q43 33 68 40T97 55Q103 78 103 143V521Q103 576 97 599Q94 607 68 617T30 627Q26 627 26 645Q26 661 29 664Q109 659 176 659Z" />
<glyph unicode="&#xcb;" glyph-name="Edieresis" horiz-adv-x="598" d="M330 771T330 802T351 854T404 876T456 855T478 802T457 750T404 728T352 749ZM100 771T100 802T121 854T174 876T226 855T248 802T227 750T174 728T122 749ZM176 659Q220 659 331 661T499
664Q500 654 528 516Q523 511 505 511Q494 511 491 518Q472 556 431 583T351 610H313Q250 610 248 597Q243 573 243 519V365Q243 359 286 359H339Q401 359 407 363Q412 367 415 392Q417 407 421 421Q422 428 436 428Q453 428 458 423V234Q454 230 437 230Q424 230
421 238Q417 252 414 262T409 277T405 286T401 291T397 293T393 296Q380 304 315 304Q243 304 243 295V141Q243 93 251 70Q256 54 319 54H345Q407 54 457 80Q474 89 495 114T529 170Q530 176 543 176Q567 176 573 170Q524 32 519 -2Q468 -2 357 0T177 2L31 -4Q27
0 27 13Q27 33 31 33Q43 33 68 40T97 55Q103 78 103 143V521Q103 576 97 599Q94 607 68 617T30 627Q26 627 26 645Q26 661 29 664Q109 659 176 659Z" />
<glyph unicode="&#xcc;" glyph-name="Igrave" horiz-adv-x="346" d="M242 1004Q242 999 238 992T228 984Q210 984 129 1023T48 1087Q48 1106 67 1115T104 1125Q114 1125 122 1121Q155 1096 198 1053T242 1004ZM102 522Q102 586 94 600Q89 608 66 616T32 625Q28
625 28 642Q28 660 30 662Q45 661 78 659T127 656T175 656Q195 656 315 662Q318 653 318 644Q318 625 314 625Q305 625 278 617T249 601Q246 589 244 568T242 531V516V146Q242 89 250 58Q252 51 277 42T312 33Q316 33 316 14Q316 2 314 -4Q307 -4 254 0T175 4Q148
4 96 1T30 -4Q26 0 26 12Q26 33 29 33Q40 33 66 41T95 58Q102 85 102 138V522Z" />
<glyph unicode="&#xcd;" glyph-name="Iacute" horiz-adv-x="346" d="M100 1004Q100 1010 143 1053T220 1121Q228 1125 238 1125Q256 1125 275 1116T294 1087Q294 1063 213 1024T114 984Q109 984 105 991T100 1004ZM102 522Q102 586 94 600Q89 608 66 616T32 625Q28
625 28 642Q28 660 30 662Q45 661 78 659T127 656T175 656Q195 656 315 662Q318 653 318 644Q318 625 314 625Q305 625 278 617T249 601Q246 589 244 568T242 531V516V146Q242 89 250 58Q252 51 277 42T312 33Q316 33 316 14Q316 2 314 -4Q307 -4 254 0T175 4Q148
4 96 1T30 -4Q26 0 26 12Q26 33 29 33Q40 33 66 41T95 58Q102 85 102 138V522Z" />
<glyph unicode="&#xce;" glyph-name="Icircumflex" horiz-adv-x="346" d="M548 728Q540 728 497 750T428 790Q402 773 359 751T308 728Q298 728 298 747Q326 768 371 812Q392 832 414 860Q422 869 427 869Q433 869 442 860Q444 858 457 843T482 816Q530 768 558
747Q558 728 548 728ZM102 522Q102 586 94 600Q89 608 66 616T32 625Q28 625 28 642Q28 660 30 662Q45 661 78 659T127 656T175 656Q195 656 315 662Q318 653 318 644Q318 625 314 625Q305 625 278 617T249 601Q246 589 244 568T242 531V516V146Q242 89 250 58Q252
51 277 42T312 33Q316 33 316 14Q316 2 314 -4Q307 -4 254 0T175 4Q148 4 96 1T30 -4Q26 0 26 12Q26 33 29 33Q40 33 66 41T95 58Q102 85 102 138V522Z" />
<glyph unicode="&#xcf;" glyph-name="Idieresis" horiz-adv-x="346" d="M470 771T470 802T491 854T544 876T596 855T618 802T597 750T544 728T492 749ZM240 771T240 802T261 854T314 876T366 855T388 802T367 750T314 728T262 749ZM102 522Q102 586 94 600Q89
608 66 616T32 625Q28 625 28 642Q28 660 30 662Q45 661 78 659T127 656T175 656Q195 656 315 662Q318 653 318 644Q318 625 314 625Q305 625 278 617T249 601Q246 589 244 568T242 531V516V146Q242 89 250 58Q252 51 277 42T312 33Q316 33 316 14Q316 2 314 -4Q307
-4 254 0T175 4Q148 4 96 1T30 -4Q26 0 26 12Q26 33 29 33Q40 33 66 41T95 58Q102 85 102 138V522Z" />
<glyph unicode="&#xd0;" glyph-name="Eth" horiz-adv-x="706" d="M38 353H383Q389 353 389 339Q389 320 383 307H37Q32 307 32 322Q32 344 38 353ZM161 659H335Q445 659 525 611T643 491T680 336Q680 191 588 94T334 -3Q315 -3 257 -1T162 2L16 -4Q12 0 12 13Q12
33 16 33Q28 33 53 40T82 55Q88 78 88 143V521Q88 576 82 599Q79 607 53 617T15 627Q11 627 11 645Q11 661 14 664Q95 659 161 659ZM228 524V136Q228 71 237 66Q259 53 350 53Q435 53 481 125T528 340Q528 450 479 526T343 603H338Q253 603 241 587Q228 569 228
524Z" />
<glyph unicode="&#xd1;" glyph-name="Ntilde" horiz-adv-x="777" d="M207 739Q199 739 199 761Q199 785 217 811Q255 862 305 862Q343 862 401 828T497 794Q516 794 540 822T569 851Q577 851 577 829Q577 804 559 778Q524 728 473 728Q435 728 377 762T281 796Q263
796 237 768T207 739ZM585 524Q585 581 572 596Q563 607 535 616T494 625Q490 625 489 641T491 662Q583 654 623 654Q648 654 691 657T747 662Q751 654 751 644Q751 625 746 625Q691 625 663 592Q649 575 649 519V139Q649 103 653 -1Q649 -5 628 -5Q616 -5 597
18L190 524V141Q190 86 198 70Q207 53 240 44T288 34Q291 34 291 17T290 -4Q281 -4 231 0T155 4T89 1T31 -4Q28 -1 28 14Q28 33 31 33Q41 33 54 35T87 46T116 71Q126 87 126 144V537Q126 589 111 608Q106 615 76 620T32 625Q28 625 27 641T30 662Q46 661 93 658T167
654Q201 654 265 662Q282 628 331 564T459 404T583 248Q585 255 585 289V524Z" />
<glyph unicode="&#xd2;" glyph-name="Ograve" horiz-adv-x="695" d="M360 748Q360 743 356 736T346 728Q328 728 247 767T166 831Q166 850 185 859T222 869Q232 869 240 865Q273 840 316 797T360 748ZM331 611Q278 611 243 573T195 478T181 350Q181 299 190 250T219
153T276 76T362 46Q437 46 474 122T512 309Q512 364 504 413T476 509T420 583T331 611ZM25 188T25 328T119 567T346 667T573 568T668 328T573 89T346 -10T120 89Z" />
<glyph unicode="&#xd3;" glyph-name="Oacute" horiz-adv-x="695" d="M332 748Q332 754 375 797T452 865Q460 869 470 869Q488 869 507 860T526 831Q526 807 445 768T346 728Q341 728 337 735T332 748ZM331 611Q278 611 243 573T195 478T181 350Q181 299 190 250T219
153T276 76T362 46Q437 46 474 122T512 309Q512 364 504 413T476 509T420 583T331 611ZM25 188T25 328T119 567T346 667T573 568T668 328T573 89T346 -10T120 89Z" />
<glyph unicode="&#xd4;" glyph-name="Ocircumflex" horiz-adv-x="695" d="M466 728Q458 728 415 750T346 790Q320 773 277 751T226 728Q216 728 216 747Q244 768 289 812Q310 832 332 860Q340 869 345 869Q351 869 360 860Q362 858 375 843T400 816Q448 768 476
747Q476 728 466 728ZM331 611Q278 611 243 573T195 478T181 350Q181 299 190 250T219 153T276 76T362 46Q437 46 474 122T512 309Q512 364 504 413T476 509T420 583T331 611ZM25 188T25 328T119 567T346 667T573 568T668 328T573 89T346 -10T120 89Z" />
<glyph unicode="&#xd5;" glyph-name="Otilde" horiz-adv-x="695" d="M165 739Q157 739 157 761Q157 785 175 811Q213 862 263 862Q301 862 359 828T455 794Q474 794 498 822T527 851Q535 851 535 829Q535 804 517 778Q482 728 431 728Q393 728 335 762T239 796Q221
796 195 768T165 739ZM331 611Q278 611 243 573T195 478T181 350Q181 299 190 250T219 153T276 76T362 46Q437 46 474 122T512 309Q512 364 504 413T476 509T420 583T331 611ZM25 188T25 328T119 567T346 667T573 568T668 328T573 89T346 -10T120 89Z" />
<glyph unicode="&#xd6;" glyph-name="Odieresis" horiz-adv-x="695" d="M387 771T387 802T408 854T461 876T513 855T535 802T514 750T461 728T409 749ZM157 771T157 802T178 854T231 876T283 855T305 802T284 750T231 728T179 749ZM331 611Q278 611 243 573T195
478T181 350Q181 299 190 250T219 153T276 76T362 46Q437 46 474 122T512 309Q512 364 504 413T476 509T420 583T331 611ZM25 188T25 328T119 567T346 667T573 568T668 328T573 89T346 -10T120 89Z" />
<glyph unicode="&#xd7;" glyph-name="multiply" horiz-adv-x="425" d="M160 245Q162 247 159 250L30 379Q24 385 28 392Q39 412 64 437Q69 442 76 435L210 301Q213 298 217 302L352 437Q357 442 364 435Q384 415 398 389Q399 386 399 384T398 381L397 380L268
251Q264 247 267 244L397 114H398Q398 113 399 111T398 106Q384 80 364 60Q361 57 358 56T354 56L352 57L217 192Q212 196 209 193L71 55Q70 54 66 54Q58 54 50 63Q17 102 26 111L160 245Z" />
<glyph unicode="&#xd8;" glyph-name="Oslash" horiz-adv-x="700" d="M331 611Q278 611 243 573T195 478T181 350Q181 299 190 250T219 153T276 76T362 46Q437 46 474 122T512 309Q512 364 504 413T476 509T420 583T331 611ZM506 676Q546 661 544 655L167 -18Q127
-3 129 4L506 676ZM214 667T346 667T573 568T668 328T573 89T346 -10T120 89T25 328T119 567Z" />
<glyph unicode="&#xd9;" glyph-name="Ugrave" horiz-adv-x="753" d="M430 748Q430 743 426 736T416 728Q398 728 317 767T236 831Q236 850 255 859T292 869Q302 869 310 865Q343 840 386 797T430 748ZM171 656Q191 656 311 662Q314 653 314 644Q314 625 310 625Q301
625 274 617T245 601Q238 574 238 516V279Q238 187 279 131T392 75Q466 75 513 123T561 286V524Q561 581 548 596Q539 607 511 616T470 625Q466 625 465 641T467 662Q559 654 599 654Q624 654 667 657T723 662Q727 654 727 644Q727 625 722 625Q667 625 639 592Q625
575 625 519V291Q625 145 554 70T368 -5Q246 -5 172 71T98 311V522Q98 586 90 600Q85 608 62 616T28 625Q24 625 24 642Q24 660 26 662Q164 656 171 656Z" />
<glyph unicode="&#xda;" glyph-name="Uacute" horiz-adv-x="753" d="M314 748Q314 754 357 797T434 865Q442 869 452 869Q470 869 489 860T508 831Q508 807 427 768T328 728Q323 728 319 735T314 748ZM171 656Q191 656 311 662Q314 653 314 644Q314 625 310 625Q301
625 274 617T245 601Q238 574 238 516V279Q238 187 279 131T392 75Q466 75 513 123T561 286V524Q561 581 548 596Q539 607 511 616T470 625Q466 625 465 641T467 662Q559 654 599 654Q624 654 667 657T723 662Q727 654 727 644Q727 625 722 625Q667 625 639 592Q625
575 625 519V291Q625 145 554 70T368 -5Q246 -5 172 71T98 311V522Q98 586 90 600Q85 608 62 616T28 625Q24 625 24 642Q24 660 26 662Q164 656 171 656Z" />
<glyph unicode="&#xdb;" glyph-name="Ucircumflex" horiz-adv-x="753" d="M500 728Q492 728 449 750T380 790Q354 773 311 751T260 728Q250 728 250 747Q278 768 323 812Q344 832 366 860Q374 869 379 869Q385 869 394 860Q396 858 409 843T434 816Q482 768 510
747Q510 728 500 728ZM171 656Q191 656 311 662Q314 653 314 644Q314 625 310 625Q301 625 274 617T245 601Q238 574 238 516V279Q238 187 279 131T392 75Q466 75 513 123T561 286V524Q561 581 548 596Q539 607 511 616T470 625Q466 625 465 641T467 662Q559 654
599 654Q624 654 667 657T723 662Q727 654 727 644Q727 625 722 625Q667 625 639 592Q625 575 625 519V291Q625 145 554 70T368 -5Q246 -5 172 71T98 311V522Q98 586 90 600Q85 608 62 616T28 625Q24 625 24 642Q24 660 26 662Q164 656 171 656Z" />
<glyph unicode="&#xdc;" glyph-name="Udieresis" horiz-adv-x="753" d="M414 771T414 802T435 854T488 876T540 855T562 802T541 750T488 728T436 749ZM184 771T184 802T205 854T258 876T310 855T332 802T311 750T258 728T206 749ZM171 656Q191 656 311 662Q314
653 314 644Q314 625 310 625Q301 625 274 617T245 601Q238 574 238 516V279Q238 187 279 131T392 75Q466 75 513 123T561 286V524Q561 581 548 596Q539 607 511 616T470 625Q466 625 465 641T467 662Q559 654 599 654Q624 654 667 657T723 662Q727 654 727 644Q727
625 722 625Q667 625 639 592Q625 575 625 519V291Q625 145 554 70T368 -5Q246 -5 172 71T98 311V522Q98 586 90 600Q85 608 62 616T28 625Q24 625 24 642Q24 660 26 662Q164 656 171 656Z" />
<glyph unicode="&#xdd;" glyph-name="Yacute" horiz-adv-x="669" d="M322 748Q322 754 365 797T442 865Q450 869 460 869Q478 869 497 860T516 831Q516 807 435 768T336 728Q331 728 327 735T322 748ZM177 656Q200 656 320 662Q322 658 322 642T318 625Q303 625
285 620T265 604Q265 596 273 582L373 405Q378 400 383 407Q412 449 452 518T492 603Q492 625 428 625Q424 625 424 641T427 662Q517 656 548 656Q574 656 661 662Q664 653 664 644Q664 626 660 626Q642 626 619 617T582 590Q556 555 482 436T407 304V145Q407 89
415 58Q417 51 442 42T477 33Q481 33 481 14Q481 2 479 -4Q472 -4 419 0T340 4Q313 4 261 1T195 -4Q191 0 191 12Q191 33 194 33Q205 33 231 41T260 58Q267 85 267 139V309Q267 316 236 373T173 484L142 537Q109 598 88 610Q63 625 35 625Q31 625 31 641T35 662Q52
661 80 660T131 657T177 656Z" />
<glyph unicode="&#xde;" glyph-name="Thorn" horiz-adv-x="572" d="M155 656Q175 656 295 662Q298 653 298 644Q298 625 294 625Q285 625 258 617T229 601Q222 574 222 521V516Q222 512 226 512L236 514Q247 516 264 518T296 520Q330 520 367 511T440 482T500
425T524 339Q524 258 462 199T310 140Q294 140 278 145T254 154T244 162Q240 168 239 184T243 200Q256 192 288 192Q372 192 372 328Q372 465 280 465Q242 465 234 460Q229 457 228 454T224 429T222 359V141Q222 89 230 58Q232 51 257 42T292 33Q296 33 296 14Q296
2 294 -4Q287 -4 234 0T155 4Q128 4 76 1T10 -4Q6 0 6 12Q6 33 9 33Q20 33 46 41T75 58Q82 85 82 138V522Q82 586 74 600Q69 608 46 616T12 625Q8 625 8 642Q8 660 10 662Q148 656 155 656Z" />
<glyph unicode="&#xdf;" glyph-name="germandbls" horiz-adv-x="608" d="M518 565Q518 520 497 492T452 453T406 424T385 379Q385 319 473 271Q515 249 549 211T584 130Q584 71 544 32T445 -7Q404 -7 361 13T309 49Q309 77 319 98T348 120Q371 120 385 109T404
84T419 59T444 48Q455 48 460 62T466 90V104Q466 132 448 153T403 190T349 223T304 268T285 334Q285 361 296 382T324 417T356 447T384 488T396 549Q396 642 300 642Q276 642 261 629T239 588T230 537T228 475V139Q228 90 236 54Q237 47 260 39T292 30Q295 30 295
15T294 -4Q283 -3 235 0T163 4Q139 4 92 1T32 -4Q29 -1 29 12Q29 24 33 24Q44 24 65 31T88 46Q97 81 97 135Q98 273 98 361Q98 369 93 369H40Q37 369 37 375Q37 385 42 405T52 426H93Q98 426 98 432V452Q98 573 167 634T334 696Q406 696 462 660T518 565Z" />
<glyph unicode="&#xe0;" glyph-name="agrave" horiz-adv-x="486" d="M116 902Q116 911 127 921T162 931Q187 931 196 922Q213 902 236 869T274 812T289 784Q289 779 283 773T272 766Q259 766 188 821T116 902ZM211 65Q237 65 251 77T266 108V209Q264 208 247 203T224
195T205 188T186 178T172 166T161 151T158 133Q158 97 173 81T211 65ZM251 449Q321 449 358 411T396 271V109Q396 75 420 75Q437 75 454 88Q461 84 461 73Q461 48 454 36Q440 23 409 9T349 -6Q325 -6 303 8T274 42Q273 42 266 37T248 24T223 10T188 -2T148 -7Q93
-7 61 23T28 100Q28 127 40 149T69 186T114 213T162 232T213 247T257 260Q266 263 266 275V311Q266 393 216 393Q158 393 158 326Q158 304 140 294T100 283Q54 283 37 313Q37 364 104 406T251 449Z" />
<glyph unicode="&#xe1;" glyph-name="aacute" horiz-adv-x="486" d="M290 675Q313 675 324 665T336 646Q336 621 265 566T180 510Q175 510 169 516T163 528Q163 531 178 555T216 613T256 666Q265 675 290 675ZM211 65Q237 65 251 77T266 108V209Q264 208 247 203T224
195T205 188T186 178T172 166T161 151T158 133Q158 97 173 81T211 65ZM251 449Q321 449 358 411T396 271V109Q396 75 420 75Q437 75 454 88Q461 84 461 73Q461 48 454 36Q440 23 409 9T349 -6Q325 -6 303 8T274 42Q273 42 266 37T248 24T223 10T188 -2T148 -7Q93
-7 61 23T28 100Q28 127 40 149T69 186T114 213T162 232T213 247T257 260Q266 263 266 275V311Q266 393 216 393Q158 393 158 326Q158 304 140 294T100 283Q54 283 37 313Q37 364 104 406T251 449Z" />
<glyph unicode="&#xe2;" glyph-name="acircumflex" horiz-adv-x="486" d="M337 510Q329 510 290 537T228 584Q205 564 166 537T119 510Q110 510 110 533Q134 557 176 611Q197 638 215 668Q221 678 228 678Q232 678 240 668Q243 664 254 647T277 616Q321 558 346
533Q346 510 337 510ZM211 65Q237 65 251 77T266 108V209Q264 208 247 203T224 195T205 188T186 178T172 166T161 151T158 133Q158 97 173 81T211 65ZM251 449Q321 449 358 411T396 271V109Q396 75 420 75Q437 75 454 88Q461 84 461 73Q461 48 454 36Q440 23 409
9T349 -6Q325 -6 303 8T274 42Q273 42 266 37T248 24T223 10T188 -2T148 -7Q93 -7 61 23T28 100Q28 127 40 149T69 186T114 213T162 232T213 247T257 260Q266 263 266 275V311Q266 393 216 393Q158 393 158 326Q158 304 140 294T100 283Q54 283 37 313Q37 364 104
406T251 449Z" />
<glyph unicode="&#xe3;" glyph-name="atilde" horiz-adv-x="486" d="M68 775Q61 775 61 795Q61 812 77 839Q109 885 148 885Q179 885 227 855T306 824Q322 824 342 849T366 875Q372 875 372 855Q372 836 357 810Q328 766 287 766Q256 766 208 796T128 826Q114
826 93 801T68 775ZM211 65Q237 65 251 77T266 108V209Q264 208 247 203T224 195T205 188T186 178T172 166T161 151T158 133Q158 97 173 81T211 65ZM251 449Q321 449 358 411T396 271V109Q396 75 420 75Q437 75 454 88Q461 84 461 73Q461 48 454 36Q440 23 409
9T349 -6Q325 -6 303 8T274 42Q273 42 266 37T248 24T223 10T188 -2T148 -7Q93 -7 61 23T28 100Q28 127 40 149T69 186T114 213T162 232T213 247T257 260Q266 263 266 275V311Q266 393 216 393Q158 393 158 326Q158 304 140 294T100 283Q54 283 37 313Q37 364 104
406T251 449Z" />
<glyph unicode="&#xe4;" glyph-name="adieresis" horiz-adv-x="486" d="M255 552T255 582T276 632T327 653T378 633T399 582T378 531T327 510T276 531ZM33 552T33 582T53 632T104 653T155 633T176 582T155 531T104 510T54 531ZM211 65Q237 65 251 77T266 108V209Q264
208 247 203T224 195T205 188T186 178T172 166T161 151T158 133Q158 97 173 81T211 65ZM251 449Q321 449 358 411T396 271V109Q396 75 420 75Q437 75 454 88Q461 84 461 73Q461 48 454 36Q440 23 409 9T349 -6Q325 -6 303 8T274 42Q273 42 266 37T248 24T223 10T188
-2T148 -7Q93 -7 61 23T28 100Q28 127 40 149T69 186T114 213T162 232T213 247T257 260Q266 263 266 275V311Q266 393 216 393Q158 393 158 326Q158 304 140 294T100 283Q54 283 37 313Q37 364 104 406T251 449Z" />
<glyph unicode="&#xe5;" glyph-name="aring" horiz-adv-x="486" d="M174 632T174 609T189 571T227 555T264 570T280 609T265 647T227 663T190 648ZM128 569T128 609T157 678T227 707T296 678T325 609Q325 568 296 539T227 510Q186 510 157 539ZM211 65Q237 65
251 77T266 108V209Q264 208 247 203T224 195T205 188T186 178T172 166T161 151T158 133Q158 97 173 81T211 65ZM251 449Q321 449 358 411T396 271V109Q396 75 420 75Q437 75 454 88Q461 84 461 73Q461 48 454 36Q440 23 409 9T349 -6Q325 -6 303 8T274 42Q273
42 266 37T248 24T223 10T188 -2T148 -7Q93 -7 61 23T28 100Q28 127 40 149T69 186T114 213T162 232T213 247T257 260Q266 263 266 275V311Q266 393 216 393Q158 393 158 326Q158 304 140 294T100 283Q54 283 37 313Q37 364 104 406T251 449Z" />
<glyph unicode="&#xe6;" glyph-name="ae" horiz-adv-x="679" d="M252 108V193Q228 190 216 188T185 179T158 161T149 133Q149 97 164 81T202 65Q226 65 239 77T252 108ZM460 392Q422 392 405 354T387 270Q387 264 394 264Q518 280 526 282Q532 284 532 292Q532
331 512 361T460 392ZM242 449Q305 449 346 404Q409 449 471 449Q517 449 554 430T612 380T644 320T658 262Q659 251 651 244T618 233Q571 226 392 203Q387 202 387 196Q387 185 392 167T410 127T447 89T506 73Q539 73 568 83T609 100T641 122Q650 115 650 104T645
81Q635 57 584 25T471 -8Q377 -8 311 61Q274 26 237 10T139 -7Q84 -7 52 23T19 100Q19 121 26 138T43 169T70 193T101 211T139 225T175 236T211 244T243 252Q252 254 252 266V311Q252 348 240 370T207 393Q149 393 149 326Q149 304 131 294T91 283Q45 283 28 313Q28
364 95 406T242 449Z" />
<glyph unicode="&#xe7;" glyph-name="ccedilla" horiz-adv-x="462" d="M248 -28Q260 -27 267 -27Q289 -27 305 -42T321 -78Q321 -114 295 -135T224 -156Q192 -156 176 -140Q174 -134 174 -123Q174 -109 181 -109L200 -116Q218 -124 231 -124Q250 -124 260 -116T270
-95Q270 -67 246 -67Q231 -67 216 -73Q214 -73 208 -67T202 -57Q207 -49 216 -29T230 -2H262L248 -28ZM265 447Q308 447 345 434T398 410T421 388Q421 296 367 296Q328 296 308 346Q299 369 286 380T248 392Q168 392 168 242Q168 73 281 73Q314 73 344 82T386 99T418
122Q427 118 427 103Q427 91 423 83Q413 58 364 26T252 -7Q156 -7 91 60T26 226Q26 318 95 382T265 447Z" />
<glyph unicode="&#xe8;" glyph-name="egrave" horiz-adv-x="462" d="M123 902Q123 911 134 921T169 931Q194 931 203 922Q220 902 243 869T281 812T296 784Q296 779 290 773T279 766Q266 766 195 821T123 902ZM238 392Q199 392 181 355T163 281Q163 275 170 275H297Q311
275 311 294Q311 332 291 362T238 392ZM243 447Q333 447 387 385T442 257Q442 234 433 227T395 220H169Q163 220 163 213Q163 159 193 116T281 73Q314 73 344 82T386 99T418 122Q427 118 427 103Q427 91 423 83Q413 59 363 26T251 -7Q159 -7 93 60T26 221Q26 317
86 382T243 447Z" />
<glyph unicode="&#xe9;" glyph-name="eacute" horiz-adv-x="462" d="M311 675Q334 675 345 665T357 646Q357 621 286 566T201 510Q196 510 190 516T184 528Q184 531 199 555T237 613T277 666Q286 675 311 675ZM238 392Q199 392 181 355T163 281Q163 275 170 275H297Q311
275 311 294Q311 332 291 362T238 392ZM243 447Q333 447 387 385T442 257Q442 234 433 227T395 220H169Q163 220 163 213Q163 159 193 116T281 73Q314 73 344 82T386 99T418 122Q427 118 427 103Q427 91 423 83Q413 59 363 26T251 -7Q159 -7 93 60T26 221Q26 317
86 382T243 447Z" />
<glyph unicode="&#xea;" glyph-name="ecircumflex" horiz-adv-x="462" d="M340 510Q332 510 293 537T231 584Q208 564 169 537T122 510Q113 510 113 533Q137 557 179 611Q200 638 218 668Q224 678 231 678Q235 678 243 668Q246 664 257 647T280 616Q324 558 349
533Q349 510 340 510ZM238 392Q199 392 181 355T163 281Q163 275 170 275H297Q311 275 311 294Q311 332 291 362T238 392ZM243 447Q333 447 387 385T442 257Q442 234 433 227T395 220H169Q163 220 163 213Q163 159 193 116T281 73Q314 73 344 82T386 99T418 122Q427
118 427 103Q427 91 423 83Q413 59 363 26T251 -7Q159 -7 93 60T26 221Q26 317 86 382T243 447Z" />
<glyph unicode="&#xeb;" glyph-name="edieresis" horiz-adv-x="462" d="M270 552T270 582T291 632T342 653T393 633T414 582T393 531T342 510T291 531ZM48 552T48 582T68 632T119 653T170 633T191 582T170 531T119 510T69 531ZM238 392Q199 392 181 355T163 281Q163
275 170 275H297Q311 275 311 294Q311 332 291 362T238 392ZM243 447Q333 447 387 385T442 257Q442 234 433 227T395 220H169Q163 220 163 213Q163 159 193 116T281 73Q314 73 344 82T386 99T418 122Q427 118 427 103Q427 91 423 83Q413 59 363 26T251 -7Q159 -7
93 60T26 221Q26 317 86 382T243 447Z" />
<glyph unicode="&#xec;" glyph-name="igrave" horiz-adv-x="327" d="M55 902Q55 911 66 921T101 931Q126 931 135 922Q152 902 175 869T213 812T228 784Q228 779 222 773T211 766Q198 766 127 821T55 902ZM228 146Q228 87 236 55Q238 48 261 39T292 30Q295 30
295 15T294 -4Q282 -3 234 0T163 4Q139 4 92 1T32 -4Q28 0 28 15T32 30Q43 30 66 38T91 55Q98 85 98 131V277Q98 333 80 352Q73 360 59 365T35 372T25 375Q25 404 30 404Q49 404 117 417T213 440Q214 440 219 442L224 443Q229 443 234 437T239 426Q228 338 228
326V146Z" />
<glyph unicode="&#xed;" glyph-name="iacute" horiz-adv-x="327" d="M219 931Q242 931 253 921T265 902Q265 877 194 822T109 766Q104 766 98 772T92 784Q92 787 107 811T145 869T185 922Q194 931 219 931ZM228 146Q228 87 236 55Q238 48 261 39T292 30Q295 30
295 15T294 -4Q282 -3 234 0T163 4Q139 4 92 1T32 -4Q28 0 28 15T32 30Q43 30 66 38T91 55Q98 85 98 131V277Q98 333 80 352Q73 360 59 365T35 372T25 375Q25 404 30 404Q49 404 117 417T213 440Q214 440 219 442L224 443Q229 443 234 437T239 426Q228 338 228
326V146Z" />
<glyph unicode="&#xee;" glyph-name="icircumflex" horiz-adv-x="327" d="M264 510Q256 510 217 537T155 584Q132 564 93 537T46 510Q37 510 37 533Q61 557 103 611Q124 638 142 668Q148 678 155 678Q159 678 167 668Q170 664 181 647T204 616Q248 558 273 533Q273
510 264 510ZM228 146Q228 87 236 55Q238 48 261 39T292 30Q295 30 295 15T294 -4Q282 -3 234 0T163 4Q139 4 92 1T32 -4Q28 0 28 15T32 30Q43 30 66 38T91 55Q98 85 98 131V277Q98 333 80 352Q73 360 59 365T35 372T25 375Q25 404 30 404Q49 404 117 417T213 440Q214
440 219 442L224 443Q229 443 234 437T239 426Q228 338 228 326V146Z" />
<glyph unicode="&#xef;" glyph-name="idieresis" horiz-adv-x="327" d="M513 906Q542 906 562 886T583 837T562 788T513 767T465 787T444 837Q444 865 464 885T513 906ZM283 906T312 906T361 886T382 837T362 788T312 767T263 788T242 837T262 885ZM228 146Q228
87 236 55Q238 48 261 39T292 30Q295 30 295 15T294 -4Q282 -3 234 0T163 4Q139 4 92 1T32 -4Q28 0 28 15T32 30Q43 30 66 38T91 55Q98 85 98 131V277Q98 333 80 352Q73 360 59 365T35 372T25 375Q25 404 30 404Q49 404 117 417T213 440Q214 440 219 442L224 443Q229
443 234 437T239 426Q228 338 228 326V146Z" />
<glyph unicode="&#xf0;" glyph-name="eth" horiz-adv-x="521" d="M399 697Q424 667 418 662L144 492Q119 522 126 528L399 697ZM250 447Q302 447 315 443Q287 527 227 583T82 662Q82 695 92 695Q141 695 194 679T300 629T396 546T464 426T491 271Q491 194 471
138T416 51T342 8T259 -6Q170 -6 99 57T28 217Q28 302 92 374T250 447ZM252 392Q170 392 170 245Q170 161 193 105T270 48Q349 48 349 203Q347 287 340 318Q332 353 306 372T252 392Z" />
<glyph unicode="&#xf1;" glyph-name="ntilde" horiz-adv-x="622" d="M159 775Q152 775 152 795Q152 812 168 839Q200 885 239 885Q270 885 318 855T397 824Q413 824 433 849T457 875Q463 875 463 855Q463 836 448 810Q419 766 378 766Q347 766 299 796T219 826Q205
826 184 801T159 775ZM387 446Q445 446 481 397T518 248V149Q518 85 525 58Q527 51 553 42T588 33Q591 33 591 17T590 -4Q579 -3 528 0T453 4Q429 4 381 1T320 -4Q316 0 316 16T320 33Q331 33 355 42T381 58Q388 88 388 134V224Q388 298 368 329T302 361Q271 361
252 350T233 317V149Q233 85 240 58Q242 51 266 42T299 33Q302 33 302 17T301 -4Q289 -3 240 0T168 4Q144 4 93 1T31 -4Q27 0 27 16T31 33Q42 33 68 42T96 58Q103 88 103 134V271Q103 327 85 346Q78 354 64 359T40 366T30 369Q30 404 35 404Q47 404 75 409T148
425T218 440Q220 440 222 441T227 442L229 443Q234 443 239 437T244 426Q240 398 240 395Q240 390 241 389Q243 389 248 394Q304 446 387 446Z" />
<glyph unicode="&#xf2;" glyph-name="ograve" horiz-adv-x="523" d="M139 902Q139 911 150 921T185 931Q210 931 219 922Q236 902 259 869T297 812T312 784Q312 779 306 773T295 766Q282 766 211 821T139 902ZM247 392Q218 392 199 369T174 317T168 251Q168 48
271 48Q313 48 332 89T352 185Q352 392 247 392ZM163 447T261 447T427 381T496 220T428 59T261 -7Q163 -7 95 59T26 220T94 381Z" />
<glyph unicode="&#xf3;" glyph-name="oacute" horiz-adv-x="523" d="M343 675Q366 675 377 665T389 646Q389 621 318 566T233 510Q228 510 222 516T216 528Q216 531 231 555T269 613T309 666Q318 675 343 675ZM247 392Q218 392 199 369T174 317T168 251Q168 48
271 48Q313 48 332 89T352 185Q352 392 247 392ZM163 447T261 447T427 381T496 220T428 59T261 -7Q163 -7 95 59T26 220T94 381Z" />
<glyph unicode="&#xf4;" glyph-name="ocircumflex" horiz-adv-x="523" d="M370 510Q362 510 323 537T261 584Q238 564 199 537T152 510Q143 510 143 533Q167 557 209 611Q230 638 248 668Q254 678 261 678Q265 678 273 668Q276 664 287 647T310 616Q354 558 379
533Q379 510 370 510ZM247 392Q218 392 199 369T174 317T168 251Q168 48 271 48Q313 48 332 89T352 185Q352 392 247 392ZM163 447T261 447T427 381T496 220T428 59T261 -7Q163 -7 95 59T26 220T94 381Z" />
<glyph unicode="&#xf5;" glyph-name="otilde" horiz-adv-x="523" d="M112 775Q105 775 105 795Q105 812 121 839Q153 885 192 885Q223 885 271 855T350 824Q366 824 386 849T410 875Q416 875 416 855Q416 836 401 810Q372 766 331 766Q300 766 252 796T172 826Q158
826 137 801T112 775ZM247 392Q218 392 199 369T174 317T168 251Q168 48 271 48Q313 48 332 89T352 185Q352 392 247 392ZM163 447T261 447T427 381T496 220T428 59T261 -7Q163 -7 95 59T26 220T94 381Z" />
<glyph unicode="&#xf6;" glyph-name="odieresis" horiz-adv-x="523" d="M294 552T294 582T315 632T366 653T417 633T438 582T417 531T366 510T315 531ZM72 552T72 582T92 632T143 653T194 633T215 582T194 531T143 510T93 531ZM247 392Q218 392 199 369T174 317T168
251Q168 48 271 48Q313 48 332 89T352 185Q352 392 247 392ZM163 447T261 447T427 381T496 220T428 59T261 -7Q163 -7 95 59T26 220T94 381Z" />
<glyph unicode="&#xf7;" glyph-name="divide" horiz-adv-x="522" d="M259 378Q234 378 218 393T198 434V438Q198 461 216 479T259 498Q284 498 300 483T320 443V437Q320 414 302 396T259 378ZM283 -6T259 -6T218 10T198 52V57Q198 80 216 99T259 118T300 101T320
58V56Q320 33 302 14ZM25 220Q25 231 28 257T39 283H488Q495 282 495 273Q495 250 487 218Q486 215 484 214T480 212L479 211H31Q31 211 27 213Q25 216 25 220Z" />
<glyph unicode="&#xf8;" glyph-name="oslash" horiz-adv-x="462" d="M373 455Q410 441 407 434L154 -18Q148 -16 141 -13T126 -4T120 4L373 455ZM247 392Q218 392 199 369T174 317T168 251Q168 48 271 48Q313 48 332 89T352 185Q352 392 247 392ZM163 447T261
447T427 381T496 220T428 59T261 -7Q163 -7 95 59T26 220T94 381Z" />
<glyph unicode="&#xf9;" glyph-name="ugrave" horiz-adv-x="599" d="M158 902Q158 911 169 921T204 931Q229 931 238 922Q255 902 278 869T316 812T331 784Q331 779 325 773T314 766Q301 766 230 821T158 902ZM512 327V131Q512 79 522 68Q527 63 538 61T560 58H570Q574
56 574 50Q574 21 568 21Q553 20 529 17T481 11T436 4T400 -2L386 -5Q380 -5 380 13V50Q380 54 379 55T376 54Q355 32 315 14T227 -4Q168 -4 133 48T97 174V271Q97 327 79 346Q72 354 58 359T34 366T24 369Q24 404 29 404Q48 404 116 417T212 440L217 442Q222 443
223 443Q228 443 233 437T238 426Q227 338 227 326V219Q227 141 247 110T314 78Q348 78 365 93T382 128V271Q382 327 364 346Q357 354 343 359T319 366T309 369Q309 404 314 404Q333 404 401 417T497 440Q498 440 503 442L508 443Q513 443 518 437T523 426Q512
338 512 327Z" />
<glyph unicode="&#xfa;" glyph-name="uacute" horiz-adv-x="599" d="M400 675Q423 675 434 665T446 646Q446 621 375 566T290 510Q285 510 279 516T273 528Q273 531 288 555T326 613T366 666Q375 675 400 675ZM512 327V131Q512 79 522 68Q527 63 538 61T560 58H570Q574
56 574 50Q574 21 568 21Q553 20 529 17T481 11T436 4T400 -2L386 -5Q380 -5 380 13V50Q380 54 379 55T376 54Q355 32 315 14T227 -4Q168 -4 133 48T97 174V271Q97 327 79 346Q72 354 58 359T34 366T24 369Q24 404 29 404Q48 404 116 417T212 440L217 442Q222 443
223 443Q228 443 233 437T238 426Q227 338 227 326V219Q227 141 247 110T314 78Q348 78 365 93T382 128V271Q382 327 364 346Q357 354 343 359T319 366T309 369Q309 404 314 404Q333 404 401 417T497 440Q498 440 503 442L508 443Q513 443 518 437T523 426Q512
338 512 327Z" />
<glyph unicode="&#xfb;" glyph-name="ucircumflex" horiz-adv-x="599" d="M405 510Q397 510 358 537T296 584Q273 564 234 537T187 510Q178 510 178 533Q202 557 244 611Q265 638 283 668Q289 678 296 678Q300 678 308 668Q311 664 322 647T345 616Q389 558 414
533Q414 510 405 510ZM512 327V131Q512 79 522 68Q527 63 538 61T560 58H570Q574 56 574 50Q574 21 568 21Q553 20 529 17T481 11T436 4T400 -2L386 -5Q380 -5 380 13V50Q380 54 379 55T376 54Q355 32 315 14T227 -4Q168 -4 133 48T97 174V271Q97 327 79 346Q72
354 58 359T34 366T24 369Q24 404 29 404Q48 404 116 417T212 440L217 442Q222 443 223 443Q228 443 233 437T238 426Q227 338 227 326V219Q227 141 247 110T314 78Q348 78 365 93T382 128V271Q382 327 364 346Q357 354 343 359T319 366T309 369Q309 404 314 404Q333
404 401 417T497 440Q498 440 503 442L508 443Q513 443 518 437T523 426Q512 338 512 327Z" />
<glyph unicode="&#xfc;" glyph-name="udieresis" horiz-adv-x="599" d="M335 552T335 582T356 632T407 653T458 633T479 582T458 531T407 510T356 531ZM113 552T113 582T133 632T184 653T235 633T256 582T235 531T184 510T134 531ZM512 327V131Q512 79 522 68Q527
63 538 61T560 58H570Q574 56 574 50Q574 21 568 21Q553 20 529 17T481 11T436 4T400 -2L386 -5Q380 -5 380 13V50Q380 54 379 55T376 54Q355 32 315 14T227 -4Q168 -4 133 48T97 174V271Q97 327 79 346Q72 354 58 359T34 366T24 369Q24 404 29 404Q48 404 116
417T212 440L217 442Q222 443 223 443Q228 443 233 437T238 426Q227 338 227 326V219Q227 141 247 110T314 78Q348 78 365 93T382 128V271Q382 327 364 346Q357 354 343 359T319 366T309 369Q309 404 314 404Q333 404 401 417T497 440Q498 440 503 442L508 443Q513
443 518 437T523 426Q512 338 512 327Z" />
<glyph unicode="&#xfd;" glyph-name="yacute" horiz-adv-x="544" d="M391 675Q414 675 425 665T437 646Q437 621 366 566T281 510Q276 510 270 516T264 528Q264 531 279 555T317 613T357 666Q366 675 391 675ZM148 435Q170 435 219 438T279 443Q282 434 282 422Q282
406 278 406Q265 406 241 398T216 380L217 371Q219 355 295 176Q363 323 369 338Q375 352 375 368Q375 374 370 382T347 398T304 406Q300 406 300 424Q300 437 302 443Q314 442 361 439T433 435Q454 435 489 438T540 443Q544 435 544 426Q544 406 540 406Q525 406
496 396T456 366L270 -37Q187 -218 76 -218Q46 -218 28 -202T9 -165Q9 -134 32 -118Q159 -118 197 -40Q220 9 228 26L79 356L74 368Q64 389 44 397T8 406Q4 406 4 421Q4 441 6 443Q14 443 69 439T148 435Z" />
<glyph unicode="&#xfe;" glyph-name="thorn" horiz-adv-x="567" d="M315 446Q410 446 472 380T535 227Q535 116 464 54T285 -8Q273 -8 260 -6T237 -2T227 1Q223 1 223 -15V-65Q223 -129 230 -156Q232 -163 258 -172T293 -181Q296 -181 296 -197T295 -218Q284 -217
233 -214T158 -210Q134 -210 83 -213T21 -218Q17 -214 17 -198T21 -181Q32 -181 58 -172T86 -156Q93 -126 93 -80V528Q93 578 88 603Q83 619 36 619H27Q21 619 21 639Q21 656 27 656Q58 659 89 664T143 674T182 684T210 692L220 695H222Q226 695 230 689T235 678Q223
633 223 577V418Q223 412 225 412Q269 446 315 446ZM300 388Q265 388 244 367T223 314V125Q223 87 248 67T301 46Q391 46 391 194Q391 388 300 388Z" />
<glyph unicode="&#xff;" glyph-name="ydieresis" horiz-adv-x="544" d="M326 552T326 582T347 632T398 653T449 633T470 582T449 531T398 510T347 531ZM104 552T104 582T124 632T175 653T226 633T247 582T226 531T175 510T125 531ZM148 435Q170 435 219 438T279
443Q282 434 282 422Q282 406 278 406Q265 406 241 398T216 380L217 371Q219 355 295 176Q363 323 369 338Q375 352 375 368Q375 374 370 382T347 398T304 406Q300 406 300 424Q300 437 302 443Q314 442 361 439T433 435Q454 435 489 438T540 443Q544 435 544 426Q544
406 540 406Q525 406 496 396T456 366L270 -37Q187 -218 76 -218Q46 -218 28 -202T9 -165Q9 -134 32 -118Q159 -118 197 -40Q220 9 228 26L79 356L74 368Q64 389 44 397T8 406Q4 406 4 421Q4 441 6 443Q14 443 69 439T148 435Z" />
<glyph unicode="&#x2013;" glyph-name="endash" horiz-adv-x="499" d="M28 203Q28 215 31 241T42 268H467Q473 268 473 259Q473 237 464 201Q463 198 462 197T458 194H457H34Q34 194 30 196Q28 199 28 203Z" />
<glyph unicode="&#x2014;" glyph-name="emdash" horiz-adv-x="886" d="M28 203Q28 215 31 241T42 268H852Q858 268 858 259Q858 237 849 201Q848 198 847 197T844 194H842H34Q34 194 30 196Q28 199 28 203Z" />
<glyph unicode="&#x2018;" glyph-name="quoteleft" horiz-adv-x="160" d="M16 555Q16 581 26 606T52 649T83 679T111 699T126 706Q133 706 146 697T162 680Q135 664 118 643T97 610T92 590Q92 577 113 555T134 518Q134 500 114 487T68 474Q45 474 31 485Q16 507 16 555Z" />
<glyph unicode="&#x2019;" glyph-name="quoteright" horiz-adv-x="165" d="M155 625Q155 599 145 574T119 531T88 501T60 481T45 474Q38 474 25 483T9 500Q36 516 53 537T74 570T79 590Q79 603 58 625T37 662Q37 680 57 693T103 706Q126 706 140 695Q155 673 155 625Z" />
<glyph unicode="&#x201a;" glyph-name="quotesinglbase" horiz-adv-x="160" d="M150 43Q150 17 140 -8T114 -51T83 -81T55 -101T40 -108Q33 -108 20 -99T4 -82Q31 -66 48 -45T69 -12T74 8Q74 21 53 43T32 80Q32 98 52 111T98 124Q121 124 135 113Q150 91 150 43Z" />
<glyph unicode="&#x201c;" glyph-name="quotedblleft" horiz-adv-x="332" d="M164 555Q164 581 174 606T200 649T231 679T259 699T274 706Q281 706 294 697T310 680Q283 664 266 643T245 610T240 590Q240 577 261 555T282 518Q282 500 262 487T216 474Q193 474
179 485Q164 507 164 555ZM16 555Q16 581 26 606T52 649T83 679T111 699T126 706Q133 706 146 697T162 680Q135 664 118 643T97 610T92 590Q92 577 113 555T134 518Q134 500 114 487T68 474Q45 474 31 485Q16 507 16 555Z" />
<glyph unicode="&#x201d;" glyph-name="quotedblright" horiz-adv-x="332" d="M162 625Q162 599 152 574T126 531T95 501T67 481T52 474Q45 474 32 483T16 500Q43 516 60 537T81 570T86 590Q86 603 65 625T44 662Q44 680 64 693T110 706Q133 706 147 695Q162 673
162 625ZM310 625Q310 599 300 574T274 531T243 501T215 481T200 474Q193 474 180 483T164 500Q191 516 208 537T229 570T234 590Q234 603 213 625T192 662Q192 680 212 693T258 706Q281 706 295 695Q310 673 310 625Z" />
<glyph unicode="&#x201e;" glyph-name="quotedblbase" horiz-adv-x="320" d="M158 43Q158 17 148 -8T122 -51T91 -81T63 -101T48 -108Q41 -108 28 -99T12 -82Q39 -66 56 -45T77 -12T82 8Q82 21 61 43T40 80Q40 98 60 111T106 124Q129 124 143 113Q158 91 158 43ZM306
43Q306 17 296 -8T270 -51T239 -81T211 -101T196 -108Q189 -108 176 -99T160 -82Q187 -66 204 -45T225 -12T230 8Q230 21 209 43T188 80Q188 98 208 111T254 124Q277 124 291 113Q306 91 306 43Z" />
<glyph unicode="&#x2022;" glyph-name="bullet" horiz-adv-x="409" d="M63 205T63 263T104 362T203 404T301 363T342 263T302 164T203 123T104 164Z" />
<glyph unicode="&#x2039;" glyph-name="guilsinglleft" horiz-adv-x="324" d="M146 248Q146 248 218 177Q292 106 292 98T278 82T257 73Q256 75 238 91T168 146T51 227Q44 230 44 241Q44 259 52 268Q79 284 104 301T149 332T186 360T216 385T238 404T252 418L258
423Q265 422 279 414T293 398T219 319L146 248Z" />
<glyph unicode="&#x203a;" glyph-name="guilsinglright" horiz-adv-x="324" d="M191 248Q191 248 118 319Q44 390 44 398T58 414T79 423Q79 423 84 418Q90 412 99 404T120 385T150 361T187 333T232 301T285 268Q293 259 293 241Q293 230 286 227Q220 185 169 147T100
92T80 73Q73 74 59 82T45 98T119 177L191 248Z" />
</font>
</defs>
</svg>
